<svg width="36" height="38" viewBox="0 0 36 38" fill="none" xmlns="http://www.w3.org/2000/svg">
<g clip-path="url(#clip0_67_292)">
<ellipse cx="18.5" cy="21.4702" rx="15.5" ry="15.7802" fill="#F5F5F5"/>
<path fill-rule="evenodd" clip-rule="evenodd" d="M28.045 14.8069C28.2557 15.0216 28.374 15.3127 28.374 15.6163C28.374 15.9198 28.2557 16.2109 28.045 16.4256L17.545 27.1155C17.334 27.33 17.0481 27.4504 16.75 27.4504C16.4519 27.4504 16.1659 27.33 15.955 27.1155L9.95499 21.007C9.84446 20.9021 9.7558 20.7757 9.69431 20.6352C9.63283 20.4947 9.59976 20.343 9.5971 20.1892C9.59443 20.0355 9.62222 19.8827 9.6788 19.7401C9.73538 19.5975 9.8196 19.4679 9.92643 19.3592C10.0333 19.2504 10.1605 19.1647 10.3006 19.1071C10.4407 19.0495 10.5907 19.0212 10.7418 19.0239C10.8928 19.0266 11.0418 19.0603 11.1798 19.1229C11.3178 19.1855 11.442 19.2757 11.545 19.3882L16.75 24.6873L26.455 14.8069C26.6659 14.5924 26.9519 14.4719 27.25 14.4719C27.5481 14.4719 27.834 14.5924 28.045 14.8069Z" fill="url(#paint0_linear_67_292)"/>
</g>
<defs>
<linearGradient id="paint0_linear_67_292" x1="9.59692" y1="23.0768" x2="32.4123" y2="-3.95856" gradientUnits="userSpaceOnUse">
<stop stop-color="#23A7DC"/>
<stop offset="1" stop-color="#0F7193"/>
</linearGradient>
<clipPath id="clip0_67_292">
<rect width="36" height="36.6509" fill="white" transform="translate(0 0.599609)"/>
</clipPath>
</defs>
</svg>
