<svg width="32" height="32" viewBox="0 0 32 32" fill="none" xmlns="http://www.w3.org/2000/svg">
<path d="M11.27 3H5.76C5.3665 3.03032 4.98284 3.13799 4.63101 3.31684C4.27919 3.49569 3.96611 3.7422 3.70972 4.04225C3.45333 4.3423 3.25866 4.69 3.13688 5.06541C3.01509 5.44082 2.96858 5.83658 3 6.23L11.27 3ZM11.27 3C11.6706 2.99961 12.062 3.11951 12.3936 3.34416C12.7253 3.56881 12.9818 3.88787 13.13 4.26L11.27 3ZM4.72164 3.49513C5.04777 3.32934 5.4032 3.22909 5.76783 3.2L11.27 3.2L11.2702 3.2C11.6307 3.19965 11.983 3.30756 12.2815 3.50975C12.5799 3.71193 12.8108 3.99908 12.9442 4.334L12.9447 4.3353L14.4645 8.07469C14.4645 8.07483 14.4646 8.07496 14.4646 8.0751C14.5962 8.40218 14.6288 8.7607 14.5585 9.10617C14.4881 9.45178 14.3177 9.76909 14.0685 10.0187L14.0679 10.0192L11.9379 12.1692L11.8651 12.2428L11.883 12.3447C12.2228 14.2758 13.1476 16.0559 14.5323 17.4442C15.9169 18.8325 17.6946 19.762 19.6248 20.1069L19.727 20.1251L19.8008 20.0521L21.9695 17.9034C21.9697 17.9032 21.9699 17.903 21.9701 17.9028C22.2233 17.6566 22.5434 17.4904 22.8904 17.4249C23.2377 17.3592 23.5967 17.3973 23.9225 17.5344L23.9225 17.5344L23.9256 17.5357L27.693 19.0446C27.6935 19.0448 27.6939 19.045 27.6944 19.0452C28.0237 19.1828 28.3046 19.4153 28.5015 19.713C28.6986 20.0111 28.8025 20.3612 28.8 20.7186V20.72V26C28.8 26.7426 28.505 27.4548 27.9799 27.9799C27.4548 28.505 26.7426 28.8 26 28.8H25.8358C16.0803 28.2374 10.5287 23.8463 7.36011 18.9796C4.18391 14.1013 3.39327 8.72977 3.19941 6.21463L3.19937 6.21408C3.17004 5.84688 3.21345 5.47751 3.32712 5.12713C3.44079 4.77674 3.62247 4.45223 3.86177 4.17218C4.10107 3.89213 4.39328 3.66205 4.72164 3.49513ZM4.8 6.08V6.08776L4.8006 6.09549C5.03186 9.07159 5.88919 14.0916 8.90369 18.4979C11.9252 22.9144 17.102 26.696 25.9281 27.1996C26.0856 27.2093 26.2435 27.1878 26.3927 27.1364C26.542 27.085 26.6797 27.0045 26.7979 26.8997C26.9161 26.7949 27.0124 26.6678 27.0813 26.5257C27.1503 26.3836 27.1905 26.2293 27.1997 26.0716L27.2 26.0716V26.06V20.72V20.5847L27.0744 20.5343L23.3044 19.0243L23.1823 18.9755L23.0891 19.0681L20.2882 21.8495L19.9049 21.8016C19.9048 21.8016 19.9048 21.8015 19.9048 21.8015C15.6299 21.2659 13.2082 18.8655 11.8494 16.5827C11.1688 15.4394 10.7554 14.3259 10.5123 13.4924C10.3908 13.076 10.3121 12.7302 10.2639 12.4868C10.2398 12.3651 10.2233 12.2691 10.213 12.2029C10.2078 12.1698 10.2042 12.1444 10.202 12.1273C10.2009 12.119 10.2003 12.1139 10.2 12.1113V12.1075L10.1985 12.0952L10.1505 11.7116L12.9222 8.91068L13.0142 8.81766L12.9658 8.69606L11.4658 4.92606L11.4157 4.8H11.28H6C5.68174 4.8 5.37652 4.92643 5.15148 5.15147C4.92643 5.37652 4.8 5.68174 4.8 6V6.08Z" fill="#F8F8F8" stroke="#5FBFE5" stroke-width="0.4"/>
</svg>
