<svg width="31" height="32" viewBox="0 0 31 32" fill="none" xmlns="http://www.w3.org/2000/svg">
<path d="M21.6096 3.16748H9.39041C8.58005 3.21616 7.82162 3.58261 7.27988 4.18724C6.73813 4.79186 6.45683 5.58582 6.49708 6.39665V25.6037C6.45683 26.4146 6.73813 27.2085 7.27988 27.8131C7.82162 28.4178 8.58005 28.7842 9.39041 28.8329H21.6096C22.4199 28.7842 23.1784 28.4178 23.7201 27.8131C24.2619 27.2085 24.5432 26.4146 24.5029 25.6037V6.39665C24.5432 5.58582 24.2619 4.79186 23.7201 4.18724C23.1784 3.58261 22.4199 3.21616 21.6096 3.16748ZM23.2112 25.6037C23.2507 26.072 23.1051 26.537 22.8057 26.8992C22.5063 27.2614 22.0769 27.4919 21.6096 27.5412H9.39041C8.9231 27.4919 8.49372 27.2614 8.19432 26.8992C7.89492 26.537 7.74932 26.072 7.78875 25.6037V6.39665C7.74932 5.92839 7.89492 5.46333 8.19432 5.10115C8.49372 4.73897 8.9231 4.5085 9.39041 4.45915H11.3667V5.1179C11.3667 5.46047 11.5027 5.78901 11.745 6.03124C11.9872 6.27348 12.3158 6.40956 12.6583 6.40956H18.3417C18.6842 6.40956 19.0128 6.27348 19.255 6.03124C19.4972 5.78901 19.6333 5.46047 19.6333 5.1179V4.45915H21.6096C22.0769 4.5085 22.5063 4.73897 22.8057 5.10115C23.1051 5.46333 23.2507 5.92839 23.2112 6.39665V25.6037Z" fill="#F8F8F8"/>
<path d="M12.9167 24.9562H18.0834C18.2547 24.9562 18.4189 24.8882 18.54 24.7671C18.6612 24.6459 18.7292 24.4817 18.7292 24.3104C18.7292 24.1391 18.6612 23.9748 18.54 23.8537C18.4189 23.7326 18.2547 23.6646 18.0834 23.6646H12.9167C12.7454 23.6646 12.5812 23.7326 12.46 23.8537C12.3389 23.9748 12.2709 24.1391 12.2709 24.3104C12.2709 24.4817 12.3389 24.6459 12.46 24.7671C12.5812 24.8882 12.7454 24.9562 12.9167 24.9562Z" fill="#F8F8F8"/>
</svg>
