<svg width="26" height="26" viewBox="0 0 26 26" fill="none" xmlns="http://www.w3.org/2000/svg">
<path d="M13 2.6001C8.69695 2.6001 5.19995 6.0971 5.19995 10.4001C5.19995 13.0261 6.72095 15.2231 8.48895 16.7571C9.04795 17.2381 10.023 18.0051 10.894 19.1361C11.856 20.3971 12.727 21.7491 13 22.6591C13.273 21.7491 14.144 20.3971 15.106 19.1361C15.977 18.0051 16.952 17.2381 17.511 16.7571C19.279 15.2231 20.8 13.0261 20.8 10.4001C20.8 6.0971 17.303 2.6001 13 2.6001ZM13 5.9281C13.5872 5.9281 14.1687 6.04377 14.7113 6.26851C15.2539 6.49325 15.7469 6.82265 16.1621 7.23792C16.5774 7.65318 16.9068 8.14617 17.1315 8.68874C17.3563 9.23131 17.472 9.81283 17.472 10.4001C17.472 10.9874 17.3563 11.5689 17.1315 12.1115C16.9068 12.654 16.5774 13.147 16.1621 13.5623C15.7469 13.9775 15.2539 14.3069 14.7113 14.5317C14.1687 14.7564 13.5872 14.8721 13 14.8721C11.8139 14.8721 10.6764 14.4009 9.83777 13.5623C8.99911 12.7236 8.52795 11.5861 8.52795 10.4001C8.52795 9.21405 8.99911 8.07658 9.83777 7.23792C10.6764 6.39925 11.8139 5.9281 13 5.9281Z" fill="#EA4335"/>
</svg>
