<svg width="30" height="30" viewBox="0 0 30 30" fill="none" xmlns="http://www.w3.org/2000/svg">
<path d="M7.5 6.75C7.5 6.15326 7.73705 5.58097 8.15901 5.15901C8.58097 4.73705 9.15326 4.5 9.75 4.5H20.25C20.8467 4.5 21.419 4.73705 21.841 5.15901C22.2629 5.58097 22.5 6.15326 22.5 6.75V10.5H21V6.75C21 6.55109 20.921 6.36032 20.7803 6.21967C20.6397 6.07902 20.4489 6 20.25 6H9.75C9.55109 6 9.36032 6.07902 9.21967 6.21967C9.07902 6.36032 9 6.55109 9 6.75V12H17.25C16.9163 12.4436 16.6857 12.9561 16.575 13.5H7.5C7.10218 13.5 6.72064 13.658 6.43934 13.9393C6.15804 14.2206 6 14.6022 6 15V23.25C6 23.4489 6.07902 23.6397 6.21967 23.7803C6.36032 23.921 6.55109 24 6.75 24H16.575C16.6875 24.555 16.9215 25.065 17.25 25.5H6.75C6.15326 25.5 5.58097 25.2629 5.15901 24.841C4.73705 24.419 4.5 23.8467 4.5 23.25V15C4.5 14.2044 4.81607 13.4413 5.37868 12.8787C5.94129 12.3161 6.70435 12 7.5 12V6.75ZM18 14.25C18 13.6533 18.2371 13.081 18.659 12.659C19.081 12.2371 19.6533 12 20.25 12H23.25C23.8467 12 24.419 12.2371 24.841 12.659C25.2629 13.081 25.5 13.6533 25.5 14.25V23.25C25.5 23.8467 25.2629 24.419 24.841 24.841C24.419 25.2629 23.8467 25.5 23.25 25.5H20.25C19.6533 25.5 19.081 25.2629 18.659 24.841C18.2371 24.419 18 23.8467 18 23.25V14.25ZM20.25 13.5C20.0511 13.5 19.8603 13.579 19.7197 13.7197C19.579 13.8603 19.5 14.0511 19.5 14.25V23.25C19.5 23.4489 19.579 23.6397 19.7197 23.7803C19.8603 23.921 20.0511 24 20.25 24H23.25C23.4489 24 23.6397 23.921 23.7803 23.7803C23.921 23.6397 24 23.4489 24 23.25V14.25C24 14.0511 23.921 13.8603 23.7803 13.7197C23.6397 13.579 23.4489 13.5 23.25 13.5H20.25ZM8.4375 15C8.68614 15 8.9246 15.0988 9.10041 15.2746C9.27623 15.4504 9.375 15.6889 9.375 15.9375C9.375 16.1861 9.27623 16.4246 9.10041 16.6004C8.9246 16.7762 8.68614 16.875 8.4375 16.875C8.18886 16.875 7.9504 16.7762 7.77459 16.6004C7.59877 16.4246 7.5 16.1861 7.5 15.9375C7.5 15.6889 7.59877 15.4504 7.77459 15.2746C7.9504 15.0988 8.18886 15 8.4375 15ZM8.4375 18.375C8.68614 18.375 8.9246 18.4738 9.10041 18.6496C9.27623 18.8254 9.375 19.0639 9.375 19.3125C9.375 19.5611 9.27623 19.7996 9.10041 19.9754C8.9246 20.1512 8.68614 20.25 8.4375 20.25C8.18886 20.25 7.9504 20.1512 7.77459 19.9754C7.59877 19.7996 7.5 19.5611 7.5 19.3125C7.5 19.0639 7.59877 18.8254 7.77459 18.6496C7.9504 18.4738 8.18886 18.375 8.4375 18.375ZM12.75 19.5C12.75 19.2514 12.6512 19.0129 12.4754 18.8371C12.2996 18.6613 12.0611 18.5625 11.8125 18.5625C11.5639 18.5625 11.3254 18.6613 11.1496 18.8371C10.9738 19.0129 10.875 19.2514 10.875 19.5C10.875 19.7486 10.9738 19.9871 11.1496 20.1629C11.3254 20.3387 11.5639 20.4375 11.8125 20.4375C12.0611 20.4375 12.2996 20.3387 12.4754 20.1629C12.6512 19.9871 12.75 19.7486 12.75 19.5ZM11.8125 15C12.0611 15 12.2996 15.0988 12.4754 15.2746C12.6512 15.4504 12.75 15.6889 12.75 15.9375C12.75 16.1861 12.6512 16.4246 12.4754 16.6004C12.2996 16.7762 12.0611 16.875 11.8125 16.875C11.5639 16.875 11.3254 16.7762 11.1496 16.6004C10.9738 16.4246 10.875 16.1861 10.875 15.9375C10.875 15.6889 10.9738 15.4504 11.1496 15.2746C11.3254 15.0988 11.5639 15 11.8125 15Z" fill="#F8F8F8"/>
</svg>
