<svg width="70" height="70" viewBox="0 0 70 70" fill="none" xmlns="http://www.w3.org/2000/svg">
<path d="M12.3958 11.6667C10.6553 11.6667 8.98607 12.3582 7.75536 13.5889C6.52466 14.8196 5.83325 16.4888 5.83325 18.2292V25.5209C5.83325 27.2614 6.52466 28.9306 7.75536 30.1613C8.98607 31.392 10.6553 32.0834 12.3958 32.0834H19.6874C21.4279 32.0834 23.0971 31.392 24.3278 30.1613C25.5585 28.9306 26.2499 27.2614 26.2499 25.5209V18.2292C26.2499 16.4888 25.5585 14.8196 24.3278 13.5889C23.0971 12.3582 21.4279 11.6667 19.6874 11.6667H12.3958ZM10.2083 18.2292C10.2083 17.6491 10.4387 17.0927 10.849 16.6825C11.2592 16.2722 11.8156 16.0417 12.3958 16.0417H19.6874C20.2676 16.0417 20.824 16.2722 21.2342 16.6825C21.6445 17.0927 21.8749 17.6491 21.8749 18.2292V25.5209C21.8749 26.1011 21.6445 26.6575 21.2342 27.0677C20.824 27.4779 20.2676 27.7084 19.6874 27.7084H12.3958C11.8156 27.7084 11.2592 27.4779 10.849 27.0677C10.4387 26.6575 10.2083 26.1011 10.2083 25.5209V18.2292ZM32.8124 14.5834C32.2323 14.5834 31.6759 14.8139 31.2656 15.2241C30.8554 15.6344 30.6249 16.1908 30.6249 16.7709C30.6249 17.3511 30.8554 17.9075 31.2656 18.3177C31.6759 18.7279 32.2323 18.9584 32.8124 18.9584H61.9791C62.5592 18.9584 63.1156 18.7279 63.5259 18.3177C63.9361 17.9075 64.1666 17.3511 64.1666 16.7709C64.1666 16.1908 63.9361 15.6344 63.5259 15.2241C63.1156 14.8139 62.5592 14.5834 61.9791 14.5834H32.8124ZM32.8124 23.3334C32.2323 23.3334 31.6759 23.5639 31.2656 23.9741C30.8554 24.3844 30.6249 24.9408 30.6249 25.5209C30.6249 26.1011 30.8554 26.6575 31.2656 27.0677C31.6759 27.4779 32.2323 27.7084 32.8124 27.7084H53.2291C53.8092 27.7084 54.3656 27.4779 54.7759 27.0677C55.1861 26.6575 55.4166 26.1011 55.4166 25.5209C55.4166 24.9408 55.1861 24.3844 54.7759 23.9741C54.3656 23.5639 53.8092 23.3334 53.2291 23.3334H32.8124ZM12.3958 37.9167C10.6553 37.9167 8.98607 38.6082 7.75536 39.8389C6.52466 41.0696 5.83325 42.7388 5.83325 44.4792V51.7709C5.83325 52.6327 6.003 53.4861 6.33279 54.2823C6.66259 55.0785 7.14598 55.8019 7.75536 56.4113C8.36475 57.0207 9.08819 57.5041 9.88439 57.8339C10.6806 58.1637 11.534 58.3334 12.3958 58.3334H19.6874C20.5492 58.3334 21.4026 58.1637 22.1988 57.8339C22.995 57.5041 23.7184 57.0207 24.3278 56.4113C24.9372 55.8019 25.4206 55.0785 25.7504 54.2823C26.0802 53.4861 26.2499 52.6327 26.2499 51.7709V44.4792C26.2499 42.7388 25.5585 41.0696 24.3278 39.8389C23.0971 38.6082 21.4279 37.9167 19.6874 37.9167H12.3958ZM10.2083 44.4792C10.2083 43.8991 10.4387 43.3427 10.849 42.9325C11.2592 42.5222 11.8156 42.2917 12.3958 42.2917H19.6874C20.2676 42.2917 20.824 42.5222 21.2342 42.9325C21.6445 43.3427 21.8749 43.8991 21.8749 44.4792V51.7709C21.8749 52.3511 21.6445 52.9075 21.2342 53.3177C20.824 53.728 20.2676 53.9584 19.6874 53.9584H12.3958C11.8156 53.9584 11.2592 53.728 10.849 53.3177C10.4387 52.9075 10.2083 52.3511 10.2083 51.7709V44.4792ZM32.8124 40.8334C32.2323 40.8334 31.6759 41.0639 31.2656 41.4741C30.8554 41.8844 30.6249 42.4408 30.6249 43.0209C30.6249 43.6011 30.8554 44.1575 31.2656 44.5677C31.6759 44.9779 32.2323 45.2084 32.8124 45.2084H61.9791C62.5592 45.2084 63.1156 44.9779 63.5259 44.5677C63.9361 44.1575 64.1666 43.6011 64.1666 43.0209C64.1666 42.4408 63.9361 41.8844 63.5259 41.4741C63.1156 41.0639 62.5592 40.8334 61.9791 40.8334H32.8124ZM32.8124 49.5834C32.2323 49.5834 31.6759 49.8139 31.2656 50.2241C30.8554 50.6344 30.6249 51.1908 30.6249 51.7709C30.6249 52.3511 30.8554 52.9075 31.2656 53.3177C31.6759 53.728 32.2323 53.9584 32.8124 53.9584H53.2291C53.8092 53.9584 54.3656 53.728 54.7759 53.3177C55.1861 52.9075 55.4166 52.3511 55.4166 51.7709C55.4166 51.1908 55.1861 50.6344 54.7759 50.2241C54.3656 49.8139 53.8092 49.5834 53.2291 49.5834H32.8124Z" fill="url(#paint0_linear_67_288)"/>
<defs>
<linearGradient id="paint0_linear_67_288" x1="5.83325" y1="42.6072" x2="89.0316" y2="-42.5704" gradientUnits="userSpaceOnUse">
<stop stop-color="#23A7DC"/>
<stop offset="1" stop-color="#0F7193"/>
</linearGradient>
</defs>
</svg>
