<svg width="70" height="70" viewBox="0 0 70 70" fill="none" xmlns="http://www.w3.org/2000/svg">
<path d="M45.9375 43.75C45.3573 43.75 44.8009 43.9805 44.3907 44.3907C43.9805 44.8009 43.75 45.3573 43.75 45.9375C43.75 46.5177 43.9805 47.0741 44.3907 47.4843C44.8009 47.8945 45.3573 48.125 45.9375 48.125H54.6875C55.2677 48.125 55.8241 47.8945 56.2343 47.4843C56.6445 47.0741 56.875 46.5177 56.875 45.9375C56.875 45.3573 56.6445 44.8009 56.2343 44.3907C55.8241 43.9805 55.2677 43.75 54.6875 43.75H45.9375ZM4.375 24.0625C4.375 21.1617 5.52734 18.3797 7.57852 16.3285C9.6297 14.2773 12.4117 13.125 15.3125 13.125H54.6875C57.5883 13.125 60.3703 14.2773 62.4215 16.3285C64.4727 18.3797 65.625 21.1617 65.625 24.0625V45.9375C65.625 48.8383 64.4727 51.6203 62.4215 53.6715C60.3703 55.7227 57.5883 56.875 54.6875 56.875H15.3125C12.4117 56.875 9.6297 55.7227 7.57852 53.6715C5.52734 51.6203 4.375 48.8383 4.375 45.9375V24.0625ZM61.25 26.25V24.0625C61.25 22.322 60.5586 20.6528 59.3279 19.4221C58.0972 18.1914 56.428 17.5 54.6875 17.5H15.3125C13.572 17.5 11.9028 18.1914 10.6721 19.4221C9.4414 20.6528 8.75 22.322 8.75 24.0625V26.25H61.25ZM8.75 30.625V45.9375C8.75 47.678 9.4414 49.3472 10.6721 50.5779C11.9028 51.8086 13.572 52.5 15.3125 52.5H54.6875C56.428 52.5 58.0972 51.8086 59.3279 50.5779C60.5586 49.3472 61.25 47.678 61.25 45.9375V30.625H8.75Z" fill="url(#paint0_linear_67_290)"/>
<defs>
<linearGradient id="paint0_linear_67_290" x1="4.375" y1="42.1317" x2="81.6702" y2="-46.4984" gradientUnits="userSpaceOnUse">
<stop stop-color="#23A7DC"/>
<stop offset="1" stop-color="#0F7193"/>
</linearGradient>
</defs>
</svg>
