<svg width="170" height="164" viewBox="0 0 170 164" fill="none" xmlns="http://www.w3.org/2000/svg">
<g filter="url(#filter0_d_156_198)">
<g clip-path="url(#clip0_156_198)">
<rect x="34" y="34" width="102" height="96" rx="20" fill="white" fill-opacity="0.9" shape-rendering="crispEdges"/>
<path d="M49.5356 47.0005L79.8848 59.2828V97.5559L49.5356 85.0359V47.0005Z" fill="url(#paint0_linear_156_198)"/>
<path d="M87.5712 47.0005L117.92 59.2828V97.5559L87.5712 85.0359V47.0005Z" fill="url(#paint1_linear_156_198)"/>
<g filter="url(#filter1_ddddd_156_198)">
<path d="M86.1885 48.2529C86.5193 48.3173 86.8138 48.4877 87.0239 48.7363C87.234 48.9849 87.3473 49.297 87.3453 49.6217L87.2522 67.1916L96.8077 64.138C97.0885 64.0482 97.388 64.0381 97.6693 64.109C97.9506 64.1798 98.2013 64.3285 98.3906 64.5368C98.5798 64.745 98.6993 65.0037 98.7342 65.2808C98.7691 65.5579 98.7179 65.8414 98.5871 66.0962L82.9694 96.5639C82.8184 96.8589 82.5688 97.0995 82.2614 97.2465C81.954 97.3935 81.6069 97.4382 81.2767 97.3734C80.9465 97.3086 80.6526 97.138 80.443 96.8896C80.2334 96.6411 80.1203 96.3293 80.1223 96.005L80.2146 78.4324L70.6591 81.4859C70.3783 81.5758 70.0788 81.5859 69.7975 81.515C69.5162 81.4442 69.2655 81.2954 69.0762 81.0872C68.887 80.8789 68.7675 80.6203 68.7326 80.3432C68.6977 80.0661 68.7489 79.7826 68.8797 79.5278L84.4974 49.0601C84.6483 48.7655 84.8974 48.5251 85.2043 48.3781C85.5112 48.2311 85.8577 48.186 86.1877 48.2502L86.1885 48.2529Z" fill="white"/>
</g>
<path fill-rule="evenodd" clip-rule="evenodd" d="M56.3503 91.0582L56.3503 48.1099L56.5088 48.1099L56.5088 91.0582L56.3503 91.0582Z" fill="white" fill-opacity="0.8"/>
<path fill-rule="evenodd" clip-rule="evenodd" d="M64.2744 93.277L64.2744 50.3286L64.4329 50.3286L64.4329 93.277L64.2744 93.277Z" fill="white" fill-opacity="0.8"/>
<path fill-rule="evenodd" clip-rule="evenodd" d="M72.1985 95.4957L72.1985 52.5474L72.3569 52.5474L72.3569 95.4957L72.1985 95.4957Z" fill="white" fill-opacity="0.8"/>
<path fill-rule="evenodd" clip-rule="evenodd" d="M85.0354 71.0896L47 56.3509L47.0573 56.2031L85.0927 70.9419L85.0354 71.0896Z" fill="white" fill-opacity="0.8"/>
<path fill-rule="evenodd" clip-rule="evenodd" d="M85.0354 80.5984L47 65.8597L47.0573 65.7119L85.0927 80.4506L85.0354 80.5984Z" fill="white" fill-opacity="0.8"/>
<path fill-rule="evenodd" clip-rule="evenodd" d="M85.0354 90.1072L47 75.3685L47.0573 75.2207L85.0927 89.9594L85.0354 90.1072Z" fill="white" fill-opacity="0.8"/>
<g filter="url(#filter2_b_156_198)">
<path d="M56.9842 59.9165C56.9842 60.2228 56.7359 60.4712 56.4296 60.4712C56.1232 60.4712 55.8749 60.2228 55.8749 59.9165C55.8749 59.6102 56.1232 59.3618 56.4296 59.3618C56.7359 59.3618 56.9842 59.6102 56.9842 59.9165Z" fill="white" fill-opacity="0.8"/>
</g>
<g filter="url(#filter3_b_156_198)">
<path d="M72.8324 66.0972C72.8324 66.4035 72.584 66.6518 72.2777 66.6518C71.9714 66.6518 71.723 66.4035 71.723 66.0972C71.723 65.7908 71.9714 65.5425 72.2777 65.5425C72.584 65.5425 72.8324 65.7908 72.8324 66.0972Z" fill="white" fill-opacity="0.8"/>
</g>
<g filter="url(#filter4_b_156_198)">
<path d="M72.8324 85.1147C72.8324 85.4211 72.584 85.6694 72.2777 85.6694C71.9714 85.6694 71.723 85.4211 71.723 85.1147C71.723 84.8084 71.9714 84.5601 72.2777 84.5601C72.584 84.5601 72.8324 84.8084 72.8324 85.1147Z" fill="white" fill-opacity="0.8"/>
</g>
<g filter="url(#filter5_b_156_198)">
<path d="M64.9083 82.104C64.9083 82.4103 64.66 82.6587 64.3536 82.6587C64.0473 82.6587 63.799 82.4103 63.799 82.104C63.799 81.7977 64.0473 81.5493 64.3536 81.5493C64.66 81.5493 64.9083 81.7977 64.9083 82.104Z" fill="white" fill-opacity="0.8"/>
</g>
<g filter="url(#filter6_b_156_198)">
<path d="M64.9083 72.5947C64.9083 72.9011 64.66 73.1494 64.3536 73.1494C64.0473 73.1494 63.799 72.9011 63.799 72.5947C63.799 72.2884 64.0473 72.04 64.3536 72.04C64.66 72.04 64.9083 72.2884 64.9083 72.5947Z" fill="white" fill-opacity="0.8"/>
</g>
<g filter="url(#filter7_b_156_198)">
<path d="M64.9083 62.9277C64.9083 63.2341 64.66 63.4824 64.3536 63.4824C64.0473 63.4824 63.799 63.2341 63.799 62.9277C63.799 62.6214 64.0473 62.373 64.3536 62.373C64.66 62.373 64.9083 62.6214 64.9083 62.9277Z" fill="white" fill-opacity="0.8"/>
</g>
<g filter="url(#filter8_b_156_198)">
<path d="M56.9842 78.9341C56.9842 79.2404 56.7359 79.4888 56.4296 79.4888C56.1232 79.4888 55.8749 79.2404 55.8749 78.9341C55.8749 78.6277 56.1232 78.3794 56.4296 78.3794C56.7359 78.3794 56.9842 78.6277 56.9842 78.9341Z" fill="white" fill-opacity="0.8"/>
</g>
<g filter="url(#filter9_b_156_198)">
<path d="M56.9842 69.4253C56.9842 69.7316 56.7359 69.98 56.4296 69.98C56.1232 69.98 55.8749 69.7316 55.8749 69.4253C55.8749 69.1189 56.1232 68.8706 56.4296 68.8706C56.7359 68.8706 56.9842 69.1189 56.9842 69.4253Z" fill="white" fill-opacity="0.8"/>
</g>
<path fill-rule="evenodd" clip-rule="evenodd" d="M94.5443 91.0582L94.5443 48.1099L94.7028 48.1099L94.7028 91.0582L94.5443 91.0582Z" fill="white" fill-opacity="0.8"/>
<path fill-rule="evenodd" clip-rule="evenodd" d="M102.468 93.277L102.468 50.3286L102.627 50.3286L102.627 93.277L102.468 93.277Z" fill="white" fill-opacity="0.8"/>
<path fill-rule="evenodd" clip-rule="evenodd" d="M110.392 95.4957L110.392 52.5474L110.551 52.5474L110.551 95.4957L110.392 95.4957Z" fill="white" fill-opacity="0.8"/>
<path fill-rule="evenodd" clip-rule="evenodd" d="M123.229 71.0896L85.194 56.3509L85.2512 56.2031L123.287 70.9419L123.229 71.0896Z" fill="white" fill-opacity="0.8"/>
<path fill-rule="evenodd" clip-rule="evenodd" d="M123.229 80.5984L85.194 65.8597L85.2512 65.7119L123.287 80.4506L123.229 80.5984Z" fill="white" fill-opacity="0.8"/>
<path fill-rule="evenodd" clip-rule="evenodd" d="M123.229 90.1072L85.194 75.3685L85.2512 75.2207L123.287 89.9594L123.229 90.1072Z" fill="white" fill-opacity="0.8"/>
<g filter="url(#filter10_b_156_198)">
<path d="M95.1783 59.9165C95.1783 60.2228 94.93 60.4712 94.6237 60.4712C94.3173 60.4712 94.069 60.2228 94.069 59.9165C94.069 59.6102 94.3173 59.3618 94.6237 59.3618C94.93 59.3618 95.1783 59.6102 95.1783 59.9165Z" fill="white" fill-opacity="0.8"/>
</g>
<g filter="url(#filter11_b_156_198)">
<path d="M111.026 66.0972C111.026 66.4035 110.778 66.6518 110.472 66.6518C110.165 66.6518 109.917 66.4035 109.917 66.0972C109.917 65.7908 110.165 65.5425 110.472 65.5425C110.778 65.5425 111.026 65.7908 111.026 66.0972Z" fill="white" fill-opacity="0.8"/>
</g>
<g filter="url(#filter12_b_156_198)">
<path d="M111.026 85.1147C111.026 85.4211 110.778 85.6694 110.472 85.6694C110.165 85.6694 109.917 85.4211 109.917 85.1147C109.917 84.8084 110.165 84.5601 110.472 84.5601C110.778 84.5601 111.026 84.8084 111.026 85.1147Z" fill="white" fill-opacity="0.8"/>
</g>
<g filter="url(#filter13_b_156_198)">
<path d="M103.102 82.104C103.102 82.4103 102.854 82.6587 102.548 82.6587C102.241 82.6587 101.993 82.4103 101.993 82.104C101.993 81.7977 102.241 81.5493 102.548 81.5493C102.854 81.5493 103.102 81.7977 103.102 82.104Z" fill="white" fill-opacity="0.8"/>
</g>
<g filter="url(#filter14_b_156_198)">
<path d="M103.102 72.5947C103.102 72.9011 102.854 73.1494 102.548 73.1494C102.241 73.1494 101.993 72.9011 101.993 72.5947C101.993 72.2884 102.241 72.04 102.548 72.04C102.854 72.04 103.102 72.2884 103.102 72.5947Z" fill="white" fill-opacity="0.8"/>
</g>
<g filter="url(#filter15_b_156_198)">
<path d="M103.102 62.9277C103.102 63.2341 102.854 63.4824 102.548 63.4824C102.241 63.4824 101.993 63.2341 101.993 62.9277C101.993 62.6214 102.241 62.373 102.548 62.373C102.854 62.373 103.102 62.6214 103.102 62.9277Z" fill="white" fill-opacity="0.8"/>
</g>
<g filter="url(#filter16_b_156_198)">
<path d="M95.1783 78.9341C95.1783 79.2404 94.93 79.4888 94.6237 79.4888C94.3173 79.4888 94.069 79.2404 94.069 78.9341C94.069 78.6277 94.3173 78.3794 94.6237 78.3794C94.93 78.3794 95.1783 78.6277 95.1783 78.9341Z" fill="white" fill-opacity="0.8"/>
</g>
<g filter="url(#filter17_b_156_198)">
<path d="M95.1783 69.4253C95.1783 69.7316 94.93 69.98 94.6237 69.98C94.3173 69.98 94.069 69.7316 94.069 69.4253C94.069 69.1189 94.3173 68.8706 94.6237 68.8706C94.93 68.8706 95.1783 69.1189 95.1783 69.4253Z" fill="white" fill-opacity="0.8"/>
</g>
<path d="M85.748 117.774C85.2206 117.774 84.6678 117.678 84.0897 117.485C83.5115 117.293 83.0297 116.968 82.6443 116.512C82.5632 116.41 82.5277 116.304 82.5378 116.192C82.5581 116.07 82.624 115.969 82.7356 115.888C82.837 115.817 82.9435 115.791 83.0551 115.812C83.1768 115.832 83.2732 115.888 83.3442 115.979C83.6383 116.324 83.9933 116.567 84.4092 116.709C84.8352 116.841 85.2967 116.907 85.7937 116.907C86.6457 116.907 87.2491 116.755 87.6041 116.451C87.9591 116.146 88.1366 115.791 88.1366 115.386C88.1366 114.99 87.9439 114.666 87.5585 114.412C87.1832 114.148 86.6 113.961 85.8089 113.849C84.7946 113.707 84.044 113.433 83.5572 113.028C83.0703 112.622 82.8269 112.15 82.8269 111.613C82.8269 111.105 82.9537 110.679 83.2072 110.335C83.4608 109.98 83.8057 109.716 84.2418 109.543C84.6881 109.361 85.1952 109.27 85.7632 109.27C86.4529 109.27 87.0361 109.396 87.5129 109.65C87.9896 109.893 88.375 110.223 88.6691 110.639C88.7503 110.74 88.7756 110.852 88.7452 110.974C88.7249 111.085 88.6489 111.176 88.517 111.247C88.4156 111.298 88.3091 111.313 88.1975 111.293C88.0859 111.273 87.9896 111.212 87.9084 111.111C87.6549 110.786 87.3455 110.543 86.9804 110.38C86.6254 110.208 86.2095 110.122 85.7328 110.122C85.0938 110.122 84.5968 110.259 84.2418 110.532C83.8868 110.806 83.7093 111.136 83.7093 111.521C83.7093 111.785 83.7803 112.018 83.9223 112.221C84.0745 112.414 84.3179 112.581 84.6526 112.723C84.9873 112.855 85.4336 112.962 85.9914 113.043C86.7522 113.144 87.3506 113.317 87.7867 113.56C88.233 113.803 88.5474 114.087 88.73 114.412C88.9227 114.726 89.0191 115.066 89.0191 115.431C89.0191 115.908 88.8669 116.324 88.5626 116.679C88.2584 117.034 87.8577 117.308 87.3607 117.5C86.8637 117.683 86.3262 117.774 85.748 117.774Z" fill="#404040"/>
<path d="M94.8785 117.774C94.0671 117.774 93.3368 117.592 92.6877 117.227C92.0487 116.851 91.5416 116.344 91.1663 115.705C90.8011 115.056 90.6186 114.331 90.6186 113.53C90.6186 112.718 90.8011 111.993 91.1663 111.354C91.5416 110.705 92.0487 110.198 92.6877 109.833C93.3368 109.457 94.0671 109.27 94.8785 109.27C95.69 109.27 96.4152 109.457 97.0542 109.833C97.6932 110.198 98.1952 110.705 98.5604 111.354C98.9357 111.993 99.1233 112.718 99.1233 113.53C99.1233 114.331 98.9357 115.056 98.5604 115.705C98.1952 116.344 97.6932 116.851 97.0542 117.227C96.4152 117.592 95.69 117.774 94.8785 117.774ZM94.8785 116.922C95.5175 116.922 96.0855 116.775 96.5825 116.481C97.0897 116.177 97.4852 115.771 97.7692 115.264C98.0634 114.747 98.2104 114.164 98.2104 113.514C98.2104 112.875 98.0634 112.302 97.7692 111.795C97.4852 111.278 97.0897 110.872 96.5825 110.578C96.0855 110.274 95.5175 110.122 94.8785 110.122C94.2497 110.122 93.6817 110.274 93.1746 110.578C92.6674 110.872 92.2668 111.278 91.9726 111.795C91.6785 112.302 91.5314 112.88 91.5314 113.53C91.5314 114.169 91.6785 114.747 91.9726 115.264C92.2668 115.771 92.6674 116.177 93.1746 116.481C93.6817 116.775 94.2497 116.922 94.8785 116.922Z" fill="#404040"/>
<path d="M103.075 117.683C102.689 117.683 102.344 117.577 102.04 117.364C101.746 117.151 101.513 116.856 101.34 116.481C101.178 116.106 101.097 115.67 101.097 115.173V106.257C101.097 106.115 101.137 106.004 101.218 105.922C101.31 105.841 101.421 105.801 101.553 105.801C101.695 105.801 101.807 105.841 101.888 105.922C101.969 106.004 102.01 106.115 102.01 106.257V115.173C102.01 115.639 102.106 116.025 102.299 116.329C102.502 116.623 102.76 116.77 103.075 116.77H103.455C103.567 116.77 103.658 116.811 103.729 116.892C103.8 116.973 103.835 117.085 103.835 117.227C103.835 117.358 103.795 117.47 103.714 117.561C103.632 117.642 103.521 117.683 103.379 117.683H103.075Z" fill="#404040"/>
<path d="M108.845 117.774C108.033 117.774 107.303 117.592 106.654 117.227C106.015 116.851 105.508 116.344 105.132 115.705C104.767 115.056 104.585 114.331 104.585 113.53C104.585 112.718 104.767 111.993 105.132 111.354C105.508 110.705 106.015 110.198 106.654 109.833C107.303 109.457 108.033 109.27 108.845 109.27C109.656 109.27 110.381 109.457 111.02 109.833C111.659 110.198 112.161 110.705 112.527 111.354C112.902 111.993 113.089 112.718 113.089 113.53L112.709 114.138C112.709 114.828 112.537 115.447 112.192 115.994C111.857 116.542 111.401 116.978 110.823 117.303C110.244 117.617 109.585 117.774 108.845 117.774ZM108.845 116.922C109.484 116.922 110.052 116.775 110.549 116.481C111.056 116.177 111.451 115.771 111.735 115.264C112.03 114.747 112.177 114.169 112.177 113.53C112.177 112.88 112.03 112.302 111.735 111.795C111.451 111.278 111.056 110.872 110.549 110.578C110.052 110.274 109.484 110.122 108.845 110.122C108.216 110.122 107.648 110.274 107.141 110.578C106.634 110.872 106.233 111.278 105.939 111.795C105.645 112.302 105.498 112.88 105.498 113.53C105.498 114.169 105.645 114.747 105.939 115.264C106.233 115.771 106.634 116.177 107.141 116.481C107.648 116.775 108.216 116.922 108.845 116.922ZM112.633 117.683C112.501 117.683 112.39 117.642 112.298 117.561C112.217 117.47 112.177 117.358 112.177 117.227V114.442L112.466 113.53H113.089V117.227C113.089 117.358 113.049 117.47 112.968 117.561C112.887 117.642 112.775 117.683 112.633 117.683Z" fill="#404040"/>
<path d="M115.671 112.602C115.732 111.952 115.91 111.379 116.204 110.882C116.498 110.375 116.878 109.98 117.345 109.696C117.812 109.412 118.329 109.27 118.897 109.27C119.282 109.27 119.581 109.315 119.794 109.407C120.007 109.498 120.089 109.66 120.038 109.893C120.007 110.046 119.936 110.137 119.825 110.167C119.713 110.198 119.576 110.203 119.414 110.182C119.262 110.152 119.09 110.137 118.897 110.137C118.39 110.137 117.938 110.243 117.543 110.456C117.147 110.669 116.838 110.963 116.615 111.339C116.392 111.704 116.28 112.125 116.28 112.602H115.671ZM115.824 117.683C115.692 117.683 115.58 117.642 115.489 117.561C115.408 117.47 115.367 117.358 115.367 117.227V109.817C115.367 109.675 115.408 109.564 115.489 109.483C115.58 109.401 115.692 109.361 115.824 109.361C115.966 109.361 116.077 109.401 116.158 109.483C116.239 109.564 116.28 109.675 116.28 109.817V117.227C116.28 117.358 116.239 117.47 116.158 117.561C116.077 117.642 115.966 117.683 115.824 117.683Z" fill="#404040"/>
<path d="M120.23 117.926C120.006 117.926 119.819 117.85 119.667 117.698C119.525 117.556 119.454 117.374 119.454 117.151C119.454 116.927 119.53 116.745 119.682 116.603C119.834 116.461 120.017 116.39 120.23 116.39C120.443 116.39 120.62 116.466 120.762 116.618C120.914 116.76 120.99 116.938 120.99 117.151C120.99 117.364 120.914 117.546 120.762 117.698C120.62 117.85 120.443 117.926 120.23 117.926Z" fill="#404040"/>
<path d="M49.6649 117.683C49.5122 117.683 49.3865 117.633 49.2877 117.535C49.1889 117.436 49.1395 117.31 49.1395 117.158V107.687C49.1395 107.535 49.1889 107.409 49.2877 107.31C49.3865 107.212 49.5122 107.162 49.6649 107.162H52.0897C52.862 107.162 53.567 107.292 54.2046 107.553C54.8512 107.804 55.408 108.168 55.875 108.644C56.342 109.111 56.7012 109.663 56.9526 110.301C57.2131 110.938 57.3433 111.643 57.3433 112.416C57.3433 113.188 57.2131 113.898 56.9526 114.544C56.7012 115.182 56.342 115.739 55.875 116.215C55.408 116.682 54.8512 117.045 54.2046 117.306C53.567 117.557 52.862 117.683 52.0897 117.683H49.6649ZM50.1903 116.74H52.0897C52.9159 116.74 53.6433 116.556 54.2719 116.188C54.9096 115.81 55.408 115.299 55.7672 114.652C56.1264 113.996 56.306 113.251 56.306 112.416C56.306 111.581 56.1264 110.84 55.7672 110.193C55.408 109.537 54.9096 109.026 54.2719 108.657C53.6433 108.289 52.9159 108.105 52.0897 108.105H50.1903V116.74Z" fill="#0C2054"/>
<path d="M58.6634 117.683C58.4569 117.683 58.3087 117.598 58.2189 117.427C58.1291 117.256 58.1201 117.09 58.192 116.929L62.1524 107.526C62.2512 107.283 62.4218 107.162 62.6643 107.162C62.8978 107.162 63.0639 107.283 63.1627 107.526L67.1366 116.942C67.2175 117.113 67.204 117.279 67.0962 117.44C66.9974 117.602 66.8537 117.683 66.6651 117.683C66.5574 117.683 66.4586 117.656 66.3688 117.602C66.288 117.548 66.2206 117.467 66.1667 117.36L62.4622 108.374H62.8798L59.1484 117.36C59.1035 117.467 59.0361 117.548 58.9463 117.602C58.8655 117.656 58.7712 117.683 58.6634 117.683ZM59.5525 115.177L59.9566 114.275H65.4258L65.83 115.177H59.5525Z" fill="#0C2054"/>
<path d="M69.2398 117.683C69.0871 117.683 68.9614 117.633 68.8626 117.535C68.7638 117.436 68.7144 117.31 68.7144 117.158V107.687C68.7144 107.535 68.7638 107.409 68.8626 107.31C68.9614 107.212 69.0871 107.162 69.2398 107.162C69.4014 107.162 69.5361 107.225 69.6439 107.351L76.083 115.81V107.687C76.083 107.535 76.1324 107.409 76.2312 107.31C76.33 107.212 76.4557 107.162 76.6083 107.162C76.752 107.162 76.8733 107.212 76.9721 107.31C77.0798 107.409 77.1337 107.535 77.1337 107.687V117.158C77.1337 117.31 77.0798 117.436 76.9721 117.535C76.8733 117.633 76.752 117.683 76.6083 117.683C76.5365 117.683 76.4647 117.669 76.3928 117.642C76.321 117.616 76.2626 117.571 76.2177 117.508L69.7651 109.048V117.158C69.7651 117.31 69.7113 117.436 69.6035 117.535C69.5047 117.633 69.3835 117.683 69.2398 117.683Z" fill="#0C2054"/>
<path fill-rule="evenodd" clip-rule="evenodd" d="M56.1001 116.438L56.099 116.439C55.6002 116.938 55.0069 117.324 54.3229 117.6L54.3219 117.6L54.3208 117.601C53.6418 117.868 52.8967 118 52.0896 118H49.6648C49.4367 118 49.2276 117.923 49.0635 117.759C48.8995 117.595 48.8225 117.386 48.8225 117.158V107.688C48.8225 107.459 48.8995 107.25 49.0635 107.086C49.2276 106.922 49.4367 106.845 49.6648 106.845H52.0896C52.8971 106.845 53.6425 106.981 54.3219 107.258C55.0071 107.525 55.6012 107.913 56.1001 108.421C56.598 108.919 56.9802 109.508 57.2467 110.183C57.524 110.862 57.6602 111.608 57.6602 112.416C57.6602 113.224 57.5239 113.974 57.247 114.662C56.9805 115.337 56.5984 115.93 56.1012 116.437L56.1001 116.438ZM56.9526 114.544C57.213 113.898 57.3432 113.188 57.3432 112.416C57.3432 111.643 57.213 110.939 56.9526 110.301C56.7011 109.663 56.3419 109.111 55.8749 108.644C55.4079 108.168 54.8511 107.804 54.2045 107.553C53.5669 107.292 52.8619 107.162 52.0896 107.162H49.6648C49.5122 107.162 49.3864 107.212 49.2877 107.31C49.1889 107.409 49.1395 107.535 49.1395 107.688V117.158C49.1395 117.31 49.1889 117.436 49.2877 117.535C49.3864 117.634 49.5122 117.683 49.6648 117.683H52.0896C52.8619 117.683 53.5669 117.557 54.2045 117.306C54.8511 117.045 55.4079 116.682 55.8749 116.215C56.3419 115.739 56.7011 115.182 56.9526 114.544ZM55.4901 110.347L55.4892 110.345C55.1574 109.74 54.6999 109.271 54.1134 108.932L54.1117 108.931C53.5379 108.595 52.8672 108.422 52.0896 108.422H50.5072V116.423H52.0896C52.8669 116.423 53.5374 116.25 54.111 115.915C54.6998 115.566 55.1579 115.096 55.4896 114.499C55.8201 113.895 55.989 113.204 55.989 112.416C55.989 111.627 55.8199 110.941 55.4901 110.347ZM55.7671 114.652C55.4079 115.299 54.9095 115.81 54.2719 116.188C53.6432 116.556 52.9158 116.74 52.0896 116.74H50.1902V108.105H52.0896C52.9158 108.105 53.6432 108.289 54.2719 108.657C54.9095 109.026 55.4079 109.538 55.7671 110.193C56.1264 110.84 56.306 111.581 56.306 112.416C56.306 113.251 56.1264 113.996 55.7671 114.652ZM59.1483 117.36C59.1034 117.467 59.0361 117.548 58.9463 117.602C58.8655 117.656 58.7712 117.683 58.6634 117.683C58.4568 117.683 58.3087 117.598 58.2188 117.427C58.129 117.256 58.1201 117.09 58.1919 116.929L62.1523 107.526C62.2511 107.283 62.4218 107.162 62.6642 107.162C62.8977 107.162 63.0639 107.283 63.1627 107.526L67.1366 116.942C67.2174 117.113 67.2039 117.279 67.0962 117.44C66.9974 117.602 66.8537 117.683 66.6651 117.683C66.5573 117.683 66.4585 117.656 66.3687 117.602C66.2879 117.548 66.2206 117.467 66.1667 117.36L65.2669 115.177H60.0546L59.1483 117.36ZM60.4294 114.275H64.8948L62.6702 108.879L60.4294 114.275ZM60.9043 113.958H64.4213L62.6692 109.708L60.9043 113.958ZM60.2662 115.494L59.4409 117.482C59.3741 117.642 59.2669 117.777 59.1158 117.87C58.9788 117.959 58.8242 118 58.6634 118C58.5161 118 58.3705 117.969 58.2392 117.894C58.1067 117.817 58.0075 117.706 57.9384 117.575C57.8086 117.328 57.7873 117.061 57.9009 116.803L61.8596 107.404C61.926 107.242 62.026 107.098 62.1708 106.995C62.3179 106.89 62.488 106.845 62.6642 106.845C62.8387 106.845 63.0063 106.892 63.1508 106.997C63.2922 107.1 63.3898 107.244 63.4554 107.404L67.4262 116.813C67.5519 117.084 67.5262 117.363 67.3633 117.611C67.2071 117.863 66.9626 118 66.6651 118C66.5016 118 66.3462 117.958 66.2057 117.874L66.1992 117.87L66.1929 117.866C66.0564 117.775 65.9559 117.647 65.8832 117.501L65.878 117.491L65.0548 115.494H60.2662ZM69.8905 107.151L75.766 114.871V107.688C75.766 107.459 75.8429 107.25 76.007 107.086C76.171 106.922 76.3801 106.845 76.6083 106.845C76.8311 106.845 77.0319 106.924 77.1912 107.081C77.3643 107.243 77.4506 107.453 77.4506 107.688V117.158C77.4506 117.392 77.3643 117.603 77.1912 117.764C77.0319 117.921 76.8311 118 76.6083 118C76.4959 118 76.3865 117.979 76.2815 117.939C76.152 117.891 76.0439 117.808 75.963 117.697L70.082 109.986V117.158C70.082 117.392 69.9958 117.603 69.8227 117.764C69.6633 117.921 69.4625 118 69.2397 118C69.0116 118 68.8024 117.923 68.6384 117.759C68.4744 117.595 68.3974 117.386 68.3974 117.158V107.688C68.3974 107.459 68.4744 107.25 68.6384 107.086C68.8024 106.922 69.0116 106.845 69.2397 106.845C69.4965 106.845 69.7182 106.95 69.8845 107.144L69.8905 107.151ZM69.6034 117.535C69.7112 117.436 69.7651 117.31 69.7651 117.158V109.048L76.2176 117.508C76.2625 117.571 76.3209 117.616 76.3928 117.643C76.4646 117.669 76.5364 117.683 76.6083 117.683C76.752 117.683 76.8732 117.634 76.972 117.535C77.0798 117.436 77.1337 117.31 77.1337 117.158V107.688C77.1337 107.535 77.0798 107.409 76.972 107.31C76.8732 107.212 76.752 107.162 76.6083 107.162C76.4556 107.162 76.3299 107.212 76.2311 107.31C76.1323 107.409 76.0829 107.535 76.0829 107.688V115.81L69.6438 107.351C69.5361 107.225 69.4014 107.162 69.2397 107.162C69.087 107.162 68.9613 107.212 68.8625 107.31C68.7637 107.409 68.7144 107.535 68.7144 107.688V117.158C68.7144 117.31 68.7637 117.436 68.8625 117.535C68.9613 117.634 69.087 117.683 69.2397 117.683C69.3834 117.683 69.5046 117.634 69.6034 117.535Z" fill="#0C2054"/>
</g>
</g>
<defs>
<filter id="filter0_d_156_198" x="0" y="0" width="170" height="164" filterUnits="userSpaceOnUse" color-interpolation-filters="sRGB">
<feFlood flood-opacity="0" result="BackgroundImageFix"/>
<feColorMatrix in="SourceAlpha" type="matrix" values="0 0 0 0 0 0 0 0 0 0 0 0 0 0 0 0 0 0 127 0" result="hardAlpha"/>
<feOffset/>
<feGaussianBlur stdDeviation="17"/>
<feComposite in2="hardAlpha" operator="out"/>
<feColorMatrix type="matrix" values="0 0 0 0 1 0 0 0 0 1 0 0 0 0 1 0 0 0 0.38 0"/>
<feBlend mode="normal" in2="BackgroundImageFix" result="effect1_dropShadow_156_198"/>
<feBlend mode="normal" in="SourceGraphic" in2="effect1_dropShadow_156_198" result="shape"/>
</filter>
<filter id="filter1_ddddd_156_198" x="21.7219" y="41.2217" width="106.023" height="189.181" filterUnits="userSpaceOnUse" color-interpolation-filters="sRGB">
<feFlood flood-opacity="0" result="BackgroundImageFix"/>
<feColorMatrix in="SourceAlpha" type="matrix" values="0 0 0 0 0 0 0 0 0 0 0 0 0 0 0 0 0 0 127 0" result="hardAlpha"/>
<feOffset/>
<feColorMatrix type="matrix" values="0 0 0 0 0 0 0 0 0 0 0 0 0 0 0 0 0 0 0.1 0"/>
<feBlend mode="normal" in2="BackgroundImageFix" result="effect1_dropShadow_156_198"/>
<feColorMatrix in="SourceAlpha" type="matrix" values="0 0 0 0 0 0 0 0 0 0 0 0 0 0 0 0 0 0 127 0" result="hardAlpha"/>
<feOffset dx="-1" dy="6"/>
<feGaussianBlur stdDeviation="6.5"/>
<feColorMatrix type="matrix" values="0 0 0 0 0 0 0 0 0 0 0 0 0 0 0 0 0 0 0.1 0"/>
<feBlend mode="normal" in2="effect1_dropShadow_156_198" result="effect2_dropShadow_156_198"/>
<feColorMatrix in="SourceAlpha" type="matrix" values="0 0 0 0 0 0 0 0 0 0 0 0 0 0 0 0 0 0 127 0" result="hardAlpha"/>
<feOffset dx="-2" dy="24"/>
<feGaussianBlur stdDeviation="12"/>
<feColorMatrix type="matrix" values="0 0 0 0 0 0 0 0 0 0 0 0 0 0 0 0 0 0 0.09 0"/>
<feBlend mode="normal" in2="effect2_dropShadow_156_198" result="effect3_dropShadow_156_198"/>
<feColorMatrix in="SourceAlpha" type="matrix" values="0 0 0 0 0 0 0 0 0 0 0 0 0 0 0 0 0 0 127 0" result="hardAlpha"/>
<feOffset dx="-5" dy="54"/>
<feGaussianBlur stdDeviation="16"/>
<feColorMatrix type="matrix" values="0 0 0 0 0 0 0 0 0 0 0 0 0 0 0 0 0 0 0.05 0"/>
<feBlend mode="normal" in2="effect3_dropShadow_156_198" result="effect4_dropShadow_156_198"/>
<feColorMatrix in="SourceAlpha" type="matrix" values="0 0 0 0 0 0 0 0 0 0 0 0 0 0 0 0 0 0 127 0" result="hardAlpha"/>
<feOffset dx="-9" dy="95"/>
<feGaussianBlur stdDeviation="19"/>
<feColorMatrix type="matrix" values="0 0 0 0 0 0 0 0 0 0 0 0 0 0 0 0 0 0 0.01 0"/>
<feBlend mode="normal" in2="effect4_dropShadow_156_198" result="effect5_dropShadow_156_198"/>
<feBlend mode="normal" in="SourceGraphic" in2="effect5_dropShadow_156_198" result="shape"/>
</filter>
<filter id="filter2_b_156_198" x="32.8749" y="36.3618" width="47.1094" height="47.1094" filterUnits="userSpaceOnUse" color-interpolation-filters="sRGB">
<feFlood flood-opacity="0" result="BackgroundImageFix"/>
<feGaussianBlur in="BackgroundImageFix" stdDeviation="11.5"/>
<feComposite in2="SourceAlpha" operator="in" result="effect1_backgroundBlur_156_198"/>
<feBlend mode="normal" in="SourceGraphic" in2="effect1_backgroundBlur_156_198" result="shape"/>
</filter>
<filter id="filter3_b_156_198" x="48.723" y="42.5425" width="47.1094" height="47.1094" filterUnits="userSpaceOnUse" color-interpolation-filters="sRGB">
<feFlood flood-opacity="0" result="BackgroundImageFix"/>
<feGaussianBlur in="BackgroundImageFix" stdDeviation="11.5"/>
<feComposite in2="SourceAlpha" operator="in" result="effect1_backgroundBlur_156_198"/>
<feBlend mode="normal" in="SourceGraphic" in2="effect1_backgroundBlur_156_198" result="shape"/>
</filter>
<filter id="filter4_b_156_198" x="48.723" y="61.5601" width="47.1094" height="47.1094" filterUnits="userSpaceOnUse" color-interpolation-filters="sRGB">
<feFlood flood-opacity="0" result="BackgroundImageFix"/>
<feGaussianBlur in="BackgroundImageFix" stdDeviation="11.5"/>
<feComposite in2="SourceAlpha" operator="in" result="effect1_backgroundBlur_156_198"/>
<feBlend mode="normal" in="SourceGraphic" in2="effect1_backgroundBlur_156_198" result="shape"/>
</filter>
<filter id="filter5_b_156_198" x="40.799" y="58.5493" width="47.1094" height="47.1094" filterUnits="userSpaceOnUse" color-interpolation-filters="sRGB">
<feFlood flood-opacity="0" result="BackgroundImageFix"/>
<feGaussianBlur in="BackgroundImageFix" stdDeviation="11.5"/>
<feComposite in2="SourceAlpha" operator="in" result="effect1_backgroundBlur_156_198"/>
<feBlend mode="normal" in="SourceGraphic" in2="effect1_backgroundBlur_156_198" result="shape"/>
</filter>
<filter id="filter6_b_156_198" x="40.799" y="49.04" width="47.1094" height="47.1094" filterUnits="userSpaceOnUse" color-interpolation-filters="sRGB">
<feFlood flood-opacity="0" result="BackgroundImageFix"/>
<feGaussianBlur in="BackgroundImageFix" stdDeviation="11.5"/>
<feComposite in2="SourceAlpha" operator="in" result="effect1_backgroundBlur_156_198"/>
<feBlend mode="normal" in="SourceGraphic" in2="effect1_backgroundBlur_156_198" result="shape"/>
</filter>
<filter id="filter7_b_156_198" x="40.799" y="39.373" width="47.1094" height="47.1094" filterUnits="userSpaceOnUse" color-interpolation-filters="sRGB">
<feFlood flood-opacity="0" result="BackgroundImageFix"/>
<feGaussianBlur in="BackgroundImageFix" stdDeviation="11.5"/>
<feComposite in2="SourceAlpha" operator="in" result="effect1_backgroundBlur_156_198"/>
<feBlend mode="normal" in="SourceGraphic" in2="effect1_backgroundBlur_156_198" result="shape"/>
</filter>
<filter id="filter8_b_156_198" x="32.8749" y="55.3794" width="47.1094" height="47.1094" filterUnits="userSpaceOnUse" color-interpolation-filters="sRGB">
<feFlood flood-opacity="0" result="BackgroundImageFix"/>
<feGaussianBlur in="BackgroundImageFix" stdDeviation="11.5"/>
<feComposite in2="SourceAlpha" operator="in" result="effect1_backgroundBlur_156_198"/>
<feBlend mode="normal" in="SourceGraphic" in2="effect1_backgroundBlur_156_198" result="shape"/>
</filter>
<filter id="filter9_b_156_198" x="32.8749" y="45.8706" width="47.1094" height="47.1094" filterUnits="userSpaceOnUse" color-interpolation-filters="sRGB">
<feFlood flood-opacity="0" result="BackgroundImageFix"/>
<feGaussianBlur in="BackgroundImageFix" stdDeviation="11.5"/>
<feComposite in2="SourceAlpha" operator="in" result="effect1_backgroundBlur_156_198"/>
<feBlend mode="normal" in="SourceGraphic" in2="effect1_backgroundBlur_156_198" result="shape"/>
</filter>
<filter id="filter10_b_156_198" x="71.069" y="36.3618" width="47.1094" height="47.1094" filterUnits="userSpaceOnUse" color-interpolation-filters="sRGB">
<feFlood flood-opacity="0" result="BackgroundImageFix"/>
<feGaussianBlur in="BackgroundImageFix" stdDeviation="11.5"/>
<feComposite in2="SourceAlpha" operator="in" result="effect1_backgroundBlur_156_198"/>
<feBlend mode="normal" in="SourceGraphic" in2="effect1_backgroundBlur_156_198" result="shape"/>
</filter>
<filter id="filter11_b_156_198" x="86.9171" y="42.5425" width="47.1094" height="47.1094" filterUnits="userSpaceOnUse" color-interpolation-filters="sRGB">
<feFlood flood-opacity="0" result="BackgroundImageFix"/>
<feGaussianBlur in="BackgroundImageFix" stdDeviation="11.5"/>
<feComposite in2="SourceAlpha" operator="in" result="effect1_backgroundBlur_156_198"/>
<feBlend mode="normal" in="SourceGraphic" in2="effect1_backgroundBlur_156_198" result="shape"/>
</filter>
<filter id="filter12_b_156_198" x="86.9171" y="61.5601" width="47.1094" height="47.1094" filterUnits="userSpaceOnUse" color-interpolation-filters="sRGB">
<feFlood flood-opacity="0" result="BackgroundImageFix"/>
<feGaussianBlur in="BackgroundImageFix" stdDeviation="11.5"/>
<feComposite in2="SourceAlpha" operator="in" result="effect1_backgroundBlur_156_198"/>
<feBlend mode="normal" in="SourceGraphic" in2="effect1_backgroundBlur_156_198" result="shape"/>
</filter>
<filter id="filter13_b_156_198" x="78.993" y="58.5493" width="47.1094" height="47.1094" filterUnits="userSpaceOnUse" color-interpolation-filters="sRGB">
<feFlood flood-opacity="0" result="BackgroundImageFix"/>
<feGaussianBlur in="BackgroundImageFix" stdDeviation="11.5"/>
<feComposite in2="SourceAlpha" operator="in" result="effect1_backgroundBlur_156_198"/>
<feBlend mode="normal" in="SourceGraphic" in2="effect1_backgroundBlur_156_198" result="shape"/>
</filter>
<filter id="filter14_b_156_198" x="78.993" y="49.04" width="47.1094" height="47.1094" filterUnits="userSpaceOnUse" color-interpolation-filters="sRGB">
<feFlood flood-opacity="0" result="BackgroundImageFix"/>
<feGaussianBlur in="BackgroundImageFix" stdDeviation="11.5"/>
<feComposite in2="SourceAlpha" operator="in" result="effect1_backgroundBlur_156_198"/>
<feBlend mode="normal" in="SourceGraphic" in2="effect1_backgroundBlur_156_198" result="shape"/>
</filter>
<filter id="filter15_b_156_198" x="78.993" y="39.373" width="47.1094" height="47.1094" filterUnits="userSpaceOnUse" color-interpolation-filters="sRGB">
<feFlood flood-opacity="0" result="BackgroundImageFix"/>
<feGaussianBlur in="BackgroundImageFix" stdDeviation="11.5"/>
<feComposite in2="SourceAlpha" operator="in" result="effect1_backgroundBlur_156_198"/>
<feBlend mode="normal" in="SourceGraphic" in2="effect1_backgroundBlur_156_198" result="shape"/>
</filter>
<filter id="filter16_b_156_198" x="71.069" y="55.3794" width="47.1094" height="47.1094" filterUnits="userSpaceOnUse" color-interpolation-filters="sRGB">
<feFlood flood-opacity="0" result="BackgroundImageFix"/>
<feGaussianBlur in="BackgroundImageFix" stdDeviation="11.5"/>
<feComposite in2="SourceAlpha" operator="in" result="effect1_backgroundBlur_156_198"/>
<feBlend mode="normal" in="SourceGraphic" in2="effect1_backgroundBlur_156_198" result="shape"/>
</filter>
<filter id="filter17_b_156_198" x="71.069" y="45.8706" width="47.1094" height="47.1094" filterUnits="userSpaceOnUse" color-interpolation-filters="sRGB">
<feFlood flood-opacity="0" result="BackgroundImageFix"/>
<feGaussianBlur in="BackgroundImageFix" stdDeviation="11.5"/>
<feComposite in2="SourceAlpha" operator="in" result="effect1_backgroundBlur_156_198"/>
<feBlend mode="normal" in="SourceGraphic" in2="effect1_backgroundBlur_156_198" result="shape"/>
</filter>
<linearGradient id="paint0_linear_156_198" x1="49.5356" y1="78.3005" x2="113.166" y2="41.4537" gradientUnits="userSpaceOnUse">
<stop stop-color="#0EB9F2"/>
<stop offset="1" stop-color="#0695C6"/>
</linearGradient>
<linearGradient id="paint1_linear_156_198" x1="87.5712" y1="80.5192" x2="158.967" y2="45.4157" gradientUnits="userSpaceOnUse">
<stop stop-color="#23A7DC"/>
<stop offset="1" stop-color="#0F7193"/>
</linearGradient>
<clipPath id="clip0_156_198">
<rect x="34" y="34" width="102" height="96" rx="20" fill="white"/>
</clipPath>
</defs>
</svg>
