<svg width="107" height="190" viewBox="0 0 107 190" fill="none" xmlns="http://www.w3.org/2000/svg">
<path d="M28.5356 6.00049L58.8848 18.2828V56.5559L28.5356 44.0359V6.00049Z" fill="url(#paint0_linear_67_178)"/>
<path d="M66.5712 6.00049L96.9203 18.2828V56.5559L66.5712 44.0359V6.00049Z" fill="url(#paint1_linear_67_178)"/>
<g filter="url(#filter0_ddddd_67_178)">
<path d="M65.1885 7.25291C65.5193 7.31728 65.8138 7.48769 66.0239 7.73631C66.234 7.98492 66.3473 8.29704 66.3453 8.62168L66.2522 26.1916L75.8077 23.138C76.0885 23.0482 76.388 23.0381 76.6693 23.109C76.9506 23.1798 77.2013 23.3285 77.3906 23.5368C77.5798 23.745 77.6993 24.0037 77.7342 24.2808C77.7691 24.5579 77.7179 24.8414 77.5871 25.0962L61.9694 55.5639C61.8184 55.8589 61.5688 56.0995 61.2614 56.2465C60.954 56.3935 60.6069 56.4382 60.2767 56.3734C59.9465 56.3086 59.6526 56.138 59.443 55.8896C59.2334 55.6411 59.1203 55.3293 59.1223 55.005L59.2146 37.4324L49.6591 40.4859C49.3783 40.5758 49.0788 40.5859 48.7975 40.515C48.5162 40.4442 48.2655 40.2954 48.0762 40.0872C47.887 39.8789 47.7675 39.6203 47.7326 39.3432C47.6977 39.0661 47.7489 38.7826 47.8797 38.5278L63.4974 8.06009C63.6483 7.76549 63.8974 7.52514 64.2043 7.37809C64.5112 7.23105 64.8577 7.18598 65.1877 7.25019L65.1885 7.25291Z" fill="white"/>
</g>
<path fill-rule="evenodd" clip-rule="evenodd" d="M35.3503 50.0582L35.3503 7.10986L35.5088 7.10986L35.5088 50.0582L35.3503 50.0582Z" fill="white" fill-opacity="0.8"/>
<path fill-rule="evenodd" clip-rule="evenodd" d="M43.2744 52.277L43.2744 9.32861L43.4329 9.32861L43.4329 52.277L43.2744 52.277Z" fill="white" fill-opacity="0.8"/>
<path fill-rule="evenodd" clip-rule="evenodd" d="M51.1985 54.4957L51.1985 11.5474L51.3569 11.5474L51.3569 54.4957L51.1985 54.4957Z" fill="white" fill-opacity="0.8"/>
<path fill-rule="evenodd" clip-rule="evenodd" d="M64.0354 30.0896L26 15.3509L26.0573 15.2031L64.0927 29.9419L64.0354 30.0896Z" fill="white" fill-opacity="0.8"/>
<path fill-rule="evenodd" clip-rule="evenodd" d="M64.0354 39.5984L26 24.8597L26.0573 24.7119L64.0927 39.4506L64.0354 39.5984Z" fill="white" fill-opacity="0.8"/>
<path fill-rule="evenodd" clip-rule="evenodd" d="M64.0354 49.1075L26 34.3687L26.0573 34.2209L64.0927 48.9597L64.0354 49.1075Z" fill="white" fill-opacity="0.8"/>
<g filter="url(#filter1_b_67_178)">
<path d="M35.9842 18.9167C35.9842 19.2231 35.7359 19.4714 35.4296 19.4714C35.1232 19.4714 34.8749 19.2231 34.8749 18.9167C34.8749 18.6104 35.1232 18.3621 35.4296 18.3621C35.7359 18.3621 35.9842 18.6104 35.9842 18.9167Z" fill="white" fill-opacity="0.8"/>
</g>
<g filter="url(#filter2_b_67_178)">
<path d="M51.8324 25.0974C51.8324 25.4038 51.584 25.6521 51.2777 25.6521C50.9714 25.6521 50.723 25.4038 50.723 25.0974C50.723 24.7911 50.9714 24.5427 51.2777 24.5427C51.584 24.5427 51.8324 24.7911 51.8324 25.0974Z" fill="white" fill-opacity="0.8"/>
</g>
<g filter="url(#filter3_b_67_178)">
<path d="M51.8324 44.1152C51.8324 44.4216 51.584 44.6699 51.2777 44.6699C50.9714 44.6699 50.723 44.4216 50.723 44.1152C50.723 43.8089 50.9714 43.5605 51.2777 43.5605C51.584 43.5605 51.8324 43.8089 51.8324 44.1152Z" fill="white" fill-opacity="0.8"/>
</g>
<g filter="url(#filter4_b_67_178)">
<path d="M43.9083 41.104C43.9083 41.4103 43.66 41.6587 43.3536 41.6587C43.0473 41.6587 42.799 41.4103 42.799 41.104C42.799 40.7977 43.0473 40.5493 43.3536 40.5493C43.66 40.5493 43.9083 40.7977 43.9083 41.104Z" fill="white" fill-opacity="0.8"/>
</g>
<g filter="url(#filter5_b_67_178)">
<path d="M43.9083 31.5952C43.9083 31.9016 43.66 32.1499 43.3536 32.1499C43.0473 32.1499 42.799 31.9016 42.799 31.5952C42.799 31.2889 43.0473 31.0405 43.3536 31.0405C43.66 31.0405 43.9083 31.2889 43.9083 31.5952Z" fill="white" fill-opacity="0.8"/>
</g>
<g filter="url(#filter6_b_67_178)">
<path d="M43.9083 21.9277C43.9083 22.2341 43.66 22.4824 43.3536 22.4824C43.0473 22.4824 42.799 22.2341 42.799 21.9277C42.799 21.6214 43.0473 21.373 43.3536 21.373C43.66 21.373 43.9083 21.6214 43.9083 21.9277Z" fill="white" fill-opacity="0.8"/>
</g>
<g filter="url(#filter7_b_67_178)">
<path d="M35.9842 37.9343C35.9842 38.2407 35.7359 38.489 35.4296 38.489C35.1232 38.489 34.8749 38.2407 34.8749 37.9343C34.8749 37.628 35.1232 37.3796 35.4296 37.3796C35.7359 37.3796 35.9842 37.628 35.9842 37.9343Z" fill="white" fill-opacity="0.8"/>
</g>
<g filter="url(#filter8_b_67_178)">
<path d="M35.9842 28.4255C35.9842 28.7319 35.7359 28.9802 35.4296 28.9802C35.1232 28.9802 34.8749 28.7319 34.8749 28.4255C34.8749 28.1192 35.1232 27.8708 35.4296 27.8708C35.7359 27.8708 35.9842 28.1192 35.9842 28.4255Z" fill="white" fill-opacity="0.8"/>
</g>
<path fill-rule="evenodd" clip-rule="evenodd" d="M73.5443 50.0582L73.5443 7.10986L73.7028 7.10986L73.7028 50.0582L73.5443 50.0582Z" fill="white" fill-opacity="0.8"/>
<path fill-rule="evenodd" clip-rule="evenodd" d="M81.4683 52.277L81.4684 9.32861L81.6268 9.32861L81.6268 52.277L81.4683 52.277Z" fill="white" fill-opacity="0.8"/>
<path fill-rule="evenodd" clip-rule="evenodd" d="M89.3924 54.4957L89.3924 11.5474L89.5509 11.5474L89.5509 54.4957L89.3924 54.4957Z" fill="white" fill-opacity="0.8"/>
<path fill-rule="evenodd" clip-rule="evenodd" d="M102.229 30.0896L64.194 15.3509L64.2512 15.2031L102.287 29.9419L102.229 30.0896Z" fill="white" fill-opacity="0.8"/>
<path fill-rule="evenodd" clip-rule="evenodd" d="M102.229 39.5984L64.194 24.8597L64.2512 24.7119L102.287 39.4506L102.229 39.5984Z" fill="white" fill-opacity="0.8"/>
<path fill-rule="evenodd" clip-rule="evenodd" d="M102.229 49.1075L64.194 34.3687L64.2512 34.2209L102.287 48.9597L102.229 49.1075Z" fill="white" fill-opacity="0.8"/>
<g filter="url(#filter9_b_67_178)">
<path d="M74.1783 18.9167C74.1783 19.2231 73.93 19.4714 73.6237 19.4714C73.3173 19.4714 73.069 19.2231 73.069 18.9167C73.069 18.6104 73.3173 18.3621 73.6237 18.3621C73.93 18.3621 74.1783 18.6104 74.1783 18.9167Z" fill="white" fill-opacity="0.8"/>
</g>
<g filter="url(#filter10_b_67_178)">
<path d="M90.0265 25.0974C90.0265 25.4038 89.7781 25.6521 89.4718 25.6521C89.1655 25.6521 88.9171 25.4038 88.9171 25.0974C88.9171 24.7911 89.1655 24.5427 89.4718 24.5427C89.7781 24.5427 90.0265 24.7911 90.0265 25.0974Z" fill="white" fill-opacity="0.8"/>
</g>
<g filter="url(#filter11_b_67_178)">
<path d="M90.0265 44.1152C90.0265 44.4216 89.7781 44.6699 89.4718 44.6699C89.1655 44.6699 88.9171 44.4216 88.9171 44.1152C88.9171 43.8089 89.1655 43.5605 89.4718 43.5605C89.7781 43.5605 90.0265 43.8089 90.0265 44.1152Z" fill="white" fill-opacity="0.8"/>
</g>
<g filter="url(#filter12_b_67_178)">
<path d="M82.1024 41.104C82.1024 41.4103 81.8541 41.6587 81.5477 41.6587C81.2414 41.6587 80.993 41.4103 80.993 41.104C80.993 40.7977 81.2414 40.5493 81.5477 40.5493C81.8541 40.5493 82.1024 40.7977 82.1024 41.104Z" fill="white" fill-opacity="0.8"/>
</g>
<g filter="url(#filter13_b_67_178)">
<path d="M82.1024 31.5952C82.1024 31.9016 81.8541 32.1499 81.5477 32.1499C81.2414 32.1499 80.993 31.9016 80.993 31.5952C80.993 31.2889 81.2414 31.0405 81.5477 31.0405C81.8541 31.0405 82.1024 31.2889 82.1024 31.5952Z" fill="white" fill-opacity="0.8"/>
</g>
<g filter="url(#filter14_b_67_178)">
<path d="M82.1024 21.9277C82.1024 22.2341 81.8541 22.4824 81.5477 22.4824C81.2414 22.4824 80.993 22.2341 80.993 21.9277C80.993 21.6214 81.2414 21.373 81.5477 21.373C81.8541 21.373 82.1024 21.6214 82.1024 21.9277Z" fill="white" fill-opacity="0.8"/>
</g>
<g filter="url(#filter15_b_67_178)">
<path d="M74.1783 37.9343C74.1783 38.2407 73.93 38.489 73.6237 38.489C73.3173 38.489 73.069 38.2407 73.069 37.9343C73.069 37.628 73.3173 37.3796 73.6237 37.3796C73.93 37.3796 74.1783 37.628 74.1783 37.9343Z" fill="white" fill-opacity="0.8"/>
</g>
<g filter="url(#filter16_b_67_178)">
<path d="M74.1783 28.4255C74.1783 28.7319 73.93 28.9802 73.6237 28.9802C73.3173 28.9802 73.069 28.7319 73.069 28.4255C73.069 28.1192 73.3173 27.8708 73.6237 27.8708C73.93 27.8708 74.1783 28.1192 74.1783 28.4255Z" fill="white" fill-opacity="0.8"/>
</g>
<path d="M64.748 76.7743C64.2206 76.7743 63.6678 76.678 63.0897 76.4853C62.5115 76.2926 62.0297 75.968 61.6443 75.5116C61.5632 75.4101 61.5277 75.3036 61.5378 75.1921C61.5581 75.0704 61.624 74.9689 61.7356 74.8878C61.837 74.8168 61.9435 74.7914 62.0551 74.8117C62.1768 74.832 62.2732 74.8878 62.3442 74.9791C62.6383 75.3239 62.9933 75.5673 63.4092 75.7093C63.8352 75.8412 64.2967 75.9071 64.7937 75.9071C65.6457 75.9071 66.2491 75.755 66.6041 75.4507C66.9591 75.1464 67.1366 74.7914 67.1366 74.3857C67.1366 73.9901 66.9439 73.6656 66.5585 73.412C66.1832 73.1483 65.6 72.9607 64.8089 72.8491C63.7946 72.7071 63.044 72.4332 62.5572 72.0275C62.0703 71.6218 61.8269 71.1502 61.8269 70.6126C61.8269 70.1055 61.9537 69.6795 62.2072 69.3346C62.4608 68.9796 62.8057 68.7159 63.2418 68.5435C63.6881 68.3609 64.1952 68.2696 64.7632 68.2696C65.4529 68.2696 66.0361 68.3964 66.5129 68.65C66.9896 68.8934 67.375 69.223 67.6691 69.6389C67.7503 69.7403 67.7756 69.8519 67.7452 69.9736C67.7249 70.0852 67.6489 70.1765 67.517 70.2475C67.4156 70.2982 67.3091 70.3134 67.1975 70.2931C67.0859 70.2728 66.9896 70.212 66.9084 70.1105C66.6549 69.786 66.3455 69.5425 65.9804 69.3802C65.6254 69.2078 65.2095 69.1216 64.7328 69.1216C64.0938 69.1216 63.5968 69.2585 63.2418 69.5324C62.8868 69.8062 62.7093 70.1359 62.7093 70.5213C62.7093 70.785 62.7803 71.0183 62.9223 71.2212C63.0745 71.4139 63.3179 71.5812 63.6526 71.7232C63.9873 71.8551 64.4336 71.9616 64.9914 72.0427C65.7522 72.1442 66.3506 72.3166 66.7867 72.56C67.233 72.8034 67.5474 73.0874 67.73 73.412C67.9227 73.7264 68.0191 74.0662 68.0191 74.4314C68.0191 74.9081 67.8669 75.3239 67.5626 75.6789C67.2584 76.0339 66.8577 76.3078 66.3607 76.5005C65.8637 76.6831 65.3262 76.7743 64.748 76.7743Z" fill="#404040"/>
<path d="M73.8785 76.7743C73.0671 76.7743 72.3368 76.5918 71.6877 76.2266C71.0487 75.8513 70.5416 75.3442 70.1663 74.7052C69.8011 74.0561 69.6186 73.3309 69.6186 72.5296C69.6186 71.7182 69.8011 70.993 70.1663 70.354C70.5416 69.7048 71.0487 69.1977 71.6877 68.8325C72.3368 68.4573 73.0671 68.2696 73.8785 68.2696C74.69 68.2696 75.4152 68.4573 76.0542 68.8325C76.6932 69.1977 77.1952 69.7048 77.5604 70.354C77.9357 70.993 78.1233 71.7182 78.1233 72.5296C78.1233 73.3309 77.9357 74.0561 77.5604 74.7052C77.1952 75.3442 76.6932 75.8513 76.0542 76.2266C75.4152 76.5918 74.69 76.7743 73.8785 76.7743ZM73.8785 75.9223C74.5175 75.9223 75.0855 75.7753 75.5825 75.4811C76.0897 75.1769 76.4852 74.7711 76.7692 74.264C77.0634 73.7467 77.2104 73.1635 77.2104 72.5144C77.2104 71.8754 77.0634 71.3023 76.7692 70.7952C76.4852 70.2779 76.0897 69.8722 75.5825 69.578C75.0855 69.2737 74.5175 69.1216 73.8785 69.1216C73.2497 69.1216 72.6817 69.2737 72.1746 69.578C71.6674 69.8722 71.2668 70.2779 70.9726 70.7952C70.6785 71.3023 70.5314 71.8804 70.5314 72.5296C70.5314 73.1686 70.6785 73.7467 70.9726 74.264C71.2668 74.7711 71.6674 75.1769 72.1746 75.4811C72.6817 75.7753 73.2497 75.9223 73.8785 75.9223Z" fill="#404040"/>
<path d="M82.0746 76.6831C81.6892 76.6831 81.3443 76.5766 81.04 76.3636C80.7459 76.1506 80.5126 75.8564 80.3402 75.4811C80.1779 75.1059 80.0967 74.6697 80.0967 74.1727V65.2572C80.0967 65.1152 80.1373 65.0036 80.2185 64.9225C80.3097 64.8414 80.4213 64.8008 80.5532 64.8008C80.6952 64.8008 80.8067 64.8414 80.8879 64.9225C80.969 65.0036 81.0096 65.1152 81.0096 65.2572V74.1727C81.0096 74.6393 81.1059 75.0247 81.2987 75.329C81.5015 75.6231 81.7602 75.7702 82.0746 75.7702H82.4549C82.5665 75.7702 82.6578 75.8108 82.7288 75.8919C82.7998 75.9731 82.8353 76.0846 82.8353 76.2266C82.8353 76.3585 82.7947 76.4701 82.7136 76.5613C82.6324 76.6425 82.5209 76.6831 82.3789 76.6831H82.0746Z" fill="#404040"/>
<path d="M87.8447 76.7743C87.0333 76.7743 86.303 76.5918 85.6538 76.2266C85.0148 75.8513 84.5077 75.3442 84.1324 74.7052C83.7673 74.0561 83.5847 73.3309 83.5847 72.5296C83.5847 71.7182 83.7673 70.993 84.1324 70.354C84.5077 69.7048 85.0148 69.1977 85.6538 68.8325C86.303 68.4573 87.0333 68.2696 87.8447 68.2696C88.6561 68.2696 89.3813 68.4573 90.0203 68.8325C90.6593 69.1977 91.1614 69.7048 91.5265 70.354C91.9018 70.993 92.0894 71.7182 92.0894 72.5296L91.7091 73.1382C91.7091 73.8279 91.5367 74.4466 91.1918 74.9943C90.8571 75.542 90.4007 75.9781 89.8225 76.3027C89.2444 76.6171 88.5851 76.7743 87.8447 76.7743ZM87.8447 75.9223C88.4837 75.9223 89.0517 75.7753 89.5487 75.4811C90.0558 75.1769 90.4514 74.7711 90.7354 74.264C91.0295 73.7467 91.1766 73.1686 91.1766 72.5296C91.1766 71.8804 91.0295 71.3023 90.7354 70.7952C90.4514 70.2779 90.0558 69.8722 89.5487 69.578C89.0517 69.2737 88.4837 69.1216 87.8447 69.1216C87.2158 69.1216 86.6478 69.2737 86.1407 69.578C85.6336 69.8722 85.2329 70.2779 84.9388 70.7952C84.6446 71.3023 84.4976 71.8804 84.4976 72.5296C84.4976 73.1686 84.6446 73.7467 84.9388 74.264C85.2329 74.7711 85.6336 75.1769 86.1407 75.4811C86.6478 75.7753 87.2158 75.9223 87.8447 75.9223ZM91.633 76.6831C91.5012 76.6831 91.3896 76.6425 91.2983 76.5613C91.2172 76.4701 91.1766 76.3585 91.1766 76.2266V73.4424L91.4657 72.5296H92.0894V76.2266C92.0894 76.3585 92.0489 76.4701 91.9677 76.5613C91.8866 76.6425 91.775 76.6831 91.633 76.6831Z" fill="#404040"/>
<path d="M94.6714 71.6015C94.7323 70.9524 94.9098 70.3793 95.2039 69.8823C95.4981 69.3752 95.8784 68.9796 96.345 68.6956C96.8116 68.4116 97.3289 68.2696 97.8969 68.2696C98.2823 68.2696 98.5815 68.3153 98.7945 68.4065C99.0075 68.4978 99.0886 68.6601 99.0379 68.8934C99.0075 69.0455 98.9365 69.1368 98.8249 69.1673C98.7133 69.1977 98.5764 69.2027 98.4141 69.1825C98.262 69.152 98.0896 69.1368 97.8969 69.1368C97.3897 69.1368 96.9384 69.2433 96.5428 69.4563C96.1472 69.6693 95.8379 69.9635 95.6147 70.3387C95.3916 70.7039 95.28 71.1248 95.28 71.6015H94.6714ZM94.8236 76.6831C94.6917 76.6831 94.5802 76.6425 94.4889 76.5613C94.4077 76.4701 94.3672 76.3585 94.3672 76.2266V68.8173C94.3672 68.6753 94.4077 68.5638 94.4889 68.4826C94.5802 68.4015 94.6917 68.3609 94.8236 68.3609C94.9656 68.3609 95.0772 68.4015 95.1583 68.4826C95.2394 68.5638 95.28 68.6753 95.28 68.8173V76.2266C95.28 76.3585 95.2394 76.4701 95.1583 76.5613C95.0772 76.6425 94.9656 76.6831 94.8236 76.6831Z" fill="#404040"/>
<path d="M99.2295 76.9265C99.0064 76.9265 98.8187 76.8504 98.6666 76.6983C98.5246 76.5563 98.4536 76.3737 98.4536 76.1506C98.4536 75.9274 98.5297 75.7448 98.6818 75.6028C98.834 75.4608 99.0165 75.3898 99.2295 75.3898C99.4425 75.3898 99.62 75.4659 99.762 75.6181C99.9142 75.7601 99.9902 75.9376 99.9902 76.1506C99.9902 76.3636 99.9142 76.5461 99.762 76.6983C99.62 76.8504 99.4425 76.9265 99.2295 76.9265Z" fill="#404040"/>
<path d="M28.6649 76.6831C28.5122 76.6831 28.3865 76.6337 28.2877 76.5349C28.1889 76.4362 28.1395 76.3104 28.1395 76.1578V66.6877C28.1395 66.535 28.1889 66.4093 28.2877 66.3105C28.3865 66.2117 28.5122 66.1624 28.6649 66.1624H31.0897C31.862 66.1624 32.567 66.2926 33.2046 66.553C33.8512 66.8045 34.408 67.1682 34.875 67.6442C35.342 68.1111 35.7012 68.6634 35.9526 69.3011C36.2131 69.9387 36.3433 70.6437 36.3433 71.416C36.3433 72.1883 36.2131 72.8978 35.9526 73.5444C35.7012 74.182 35.342 74.7388 34.875 75.2148C34.408 75.6818 33.8512 76.0455 33.2046 76.3059C32.567 76.5574 31.862 76.6831 31.0897 76.6831H28.6649ZM29.1903 75.7402H31.0897C31.9159 75.7402 32.6433 75.5561 33.2719 75.1878C33.9096 74.8107 34.408 74.2988 34.7672 73.6522C35.1264 72.9966 35.306 72.2512 35.306 71.416C35.306 70.5808 35.1264 69.8399 34.7672 69.1933C34.408 68.5377 33.9096 68.0258 33.2719 67.6576C32.6433 67.2894 31.9159 67.1053 31.0897 67.1053H29.1903V75.7402Z" fill="#0C2054"/>
<path d="M37.6634 76.6831C37.4569 76.6831 37.3087 76.5978 37.2189 76.4272C37.1291 76.2565 37.1201 76.0904 37.192 75.9287L41.1524 66.5261C41.2512 66.2836 41.4218 66.1624 41.6643 66.1624C41.8978 66.1624 42.0639 66.2836 42.1627 66.5261L46.1366 75.9422C46.2175 76.1128 46.204 76.279 46.0962 76.4406C45.9974 76.6023 45.8537 76.6831 45.6651 76.6831C45.5574 76.6831 45.4586 76.6562 45.3688 76.6023C45.288 76.5484 45.2206 76.4676 45.1667 76.3598L41.4622 67.3747H41.8798L38.1484 76.3598C38.1035 76.4676 38.0361 76.5484 37.9463 76.6023C37.8655 76.6562 37.7712 76.6831 37.6634 76.6831ZM38.5525 74.1775L38.9566 73.275H44.4258L44.83 74.1775H38.5525Z" fill="#0C2054"/>
<path d="M48.2398 76.6831C48.0871 76.6831 47.9614 76.6337 47.8626 76.5349C47.7638 76.4362 47.7144 76.3104 47.7144 76.1578V66.6877C47.7144 66.535 47.7638 66.4093 47.8626 66.3105C47.9614 66.2117 48.0871 66.1624 48.2398 66.1624C48.4014 66.1624 48.5361 66.2252 48.6439 66.3509L55.083 74.8107V66.6877C55.083 66.535 55.1324 66.4093 55.2312 66.3105C55.33 66.2117 55.4557 66.1624 55.6083 66.1624C55.752 66.1624 55.8733 66.2117 55.9721 66.3105C56.0798 66.4093 56.1337 66.535 56.1337 66.6877V76.1578C56.1337 76.3104 56.0798 76.4362 55.9721 76.5349C55.8733 76.6337 55.752 76.6831 55.6083 76.6831C55.5365 76.6831 55.4647 76.6696 55.3928 76.6427C55.321 76.6158 55.2626 76.5709 55.2177 76.508L48.7651 68.0483V76.1578C48.7651 76.3104 48.7113 76.4362 48.6035 76.5349C48.5047 76.6337 48.3835 76.6831 48.2398 76.6831Z" fill="#0C2054"/>
<path fill-rule="evenodd" clip-rule="evenodd" d="M35.1001 75.4377L35.099 75.4387C34.6002 75.9376 34.0069 76.3243 33.3229 76.5998L33.3219 76.6002L33.3208 76.6006C32.6418 76.8684 31.8967 76.9999 31.0896 76.9999H28.6648C28.4367 76.9999 28.2276 76.9229 28.0635 76.7589C27.8995 76.5948 27.8225 76.3857 27.8225 76.1576V66.6875C27.8225 66.4594 27.8995 66.2503 28.0635 66.0862C28.2276 65.9222 28.4367 65.8452 28.6648 65.8452H31.0896C31.8971 65.8452 32.6425 65.9813 33.3219 66.2584C34.0071 66.5253 34.6012 66.9127 35.1001 67.4209C35.598 67.9191 35.9802 68.5076 36.2467 69.1828C36.524 69.8624 36.6602 70.6081 36.6602 71.4158C36.6602 72.2239 36.5239 72.9738 36.247 73.6616C35.9805 74.3371 35.5984 74.9298 35.1012 75.4366L35.1001 75.4377ZM35.9526 73.5442C36.213 72.8976 36.3432 72.1882 36.3432 71.4158C36.3432 70.6435 36.213 69.9385 35.9526 69.3009C35.7011 68.6633 35.3419 68.111 34.8749 67.644C34.4079 67.168 33.8511 66.8043 33.2045 66.5528C32.5669 66.2924 31.8619 66.1622 31.0896 66.1622H28.6648C28.5122 66.1622 28.3864 66.2116 28.2877 66.3104C28.1889 66.4091 28.1395 66.5349 28.1395 66.6875V76.1576C28.1395 76.3102 28.1889 76.436 28.2877 76.5348C28.3864 76.6335 28.5122 76.6829 28.6648 76.6829H31.0896C31.8619 76.6829 32.5669 76.5572 33.2045 76.3058C33.8511 76.0453 34.4079 75.6816 34.8749 75.2146C35.3419 74.7386 35.7011 74.1818 35.9526 73.5442ZM34.4901 69.3471L34.4892 69.3454C34.1574 68.7399 33.6999 68.2706 33.1134 67.9319L33.1117 67.931C32.5379 67.5949 31.8672 67.4221 31.0896 67.4221H29.5072V75.423H31.0896C31.8669 75.423 32.5374 75.2504 33.111 74.9145C33.6998 74.5662 34.1579 74.0956 34.4896 73.4989C34.8201 72.8955 34.989 72.2038 34.989 71.4158C34.989 70.6274 34.8199 69.9408 34.4901 69.3471ZM34.7671 73.652C34.4079 74.2986 33.9095 74.8105 33.2719 75.1877C32.6432 75.5559 31.9158 75.74 31.0896 75.74H29.1902V67.1051H31.0896C31.9158 67.1051 32.6432 67.2892 33.2719 67.6574C33.9095 68.0256 34.4079 68.5375 34.7671 69.1931C35.1264 69.8397 35.306 70.5806 35.306 71.4158C35.306 72.251 35.1264 72.9964 34.7671 73.652ZM38.1483 76.3596C38.1034 76.4674 38.0361 76.5482 37.9463 76.6021C37.8655 76.656 37.7712 76.6829 37.6634 76.6829C37.4568 76.6829 37.3087 76.5976 37.2188 76.427C37.129 76.2564 37.1201 76.0902 37.1919 75.9286L41.1523 66.5259C41.2511 66.2834 41.4218 66.1622 41.6642 66.1622C41.8977 66.1622 42.0639 66.2834 42.1627 66.5259L46.1366 75.942C46.2174 76.1127 46.2039 76.2788 46.0962 76.4405C45.9974 76.6021 45.8537 76.6829 45.6651 76.6829C45.5573 76.6829 45.4585 76.656 45.3687 76.6021C45.2879 76.5482 45.2206 76.4674 45.1667 76.3596L44.2669 74.1774H39.0546L38.1483 76.3596ZM39.4294 73.2748H43.8948L41.6702 67.8792L39.4294 73.2748ZM39.9043 72.9578H43.4213L41.6692 68.7081L39.9043 72.9578ZM39.2662 74.4943L38.4409 76.4815C38.3741 76.642 38.2669 76.7774 38.1158 76.87C37.9788 76.9594 37.8242 76.9999 37.6634 76.9999C37.5161 76.9999 37.3705 76.9692 37.2392 76.8936C37.1067 76.8174 37.0075 76.706 36.9384 76.5746C36.8086 76.328 36.7873 76.0611 36.9009 75.803L40.8596 66.4044C40.926 66.2421 41.026 66.0976 41.1708 65.9947C41.3179 65.8902 41.488 65.8452 41.6642 65.8452C41.8387 65.8452 42.0063 65.8916 42.1508 65.9971C42.2922 66.1003 42.3898 66.2441 42.4554 66.4043L46.4262 75.8131C46.5519 76.0839 46.5262 76.3634 46.3633 76.6111C46.2071 76.863 45.9626 76.9999 45.6651 76.9999C45.5016 76.9999 45.3462 76.9582 45.2057 76.8739L45.1992 76.87L45.1929 76.8658C45.0564 76.7748 44.9559 76.6468 44.8832 76.5014L44.878 76.4911L44.0548 74.4943H39.2662ZM48.8905 66.1515L54.766 73.8707V66.6875C54.766 66.4594 54.8429 66.2503 55.007 66.0862C55.171 65.9222 55.3801 65.8452 55.6083 65.8452C55.8311 65.8452 56.0319 65.9245 56.1912 66.0814C56.3643 66.2425 56.4506 66.4527 56.4506 66.6875V76.1576C56.4506 76.3924 56.3643 76.6026 56.1912 76.7637C56.0319 76.9206 55.8311 76.9999 55.6083 76.9999C55.4959 76.9999 55.3865 76.9787 55.2815 76.9393C55.152 76.8908 55.0439 76.8081 54.963 76.6967L49.082 68.9863V76.1576C49.082 76.3924 48.9958 76.6026 48.8227 76.7637C48.6633 76.9206 48.4625 76.9999 48.2397 76.9999C48.0116 76.9999 47.8024 76.9229 47.6384 76.7589C47.4744 76.5948 47.3974 76.3857 47.3974 76.1576V66.6875C47.3974 66.4594 47.4744 66.2503 47.6384 66.0862C47.8024 65.9222 48.0116 65.8452 48.2397 65.8452C48.4965 65.8452 48.7182 65.9505 48.8845 66.1445L48.8905 66.1515ZM48.6034 76.5348C48.7112 76.436 48.7651 76.3102 48.7651 76.1576V68.0481L55.2176 76.5078C55.2625 76.5707 55.3209 76.6156 55.3928 76.6425C55.4646 76.6695 55.5364 76.6829 55.6083 76.6829C55.752 76.6829 55.8732 76.6335 55.972 76.5348C56.0798 76.436 56.1337 76.3102 56.1337 76.1576V66.6875C56.1337 66.5349 56.0798 66.4091 55.972 66.3104C55.8732 66.2116 55.752 66.1622 55.6083 66.1622C55.4556 66.1622 55.3299 66.2116 55.2311 66.3104C55.1323 66.4091 55.0829 66.5349 55.0829 66.6875V74.8105L48.6438 66.3508C48.5361 66.225 48.4014 66.1622 48.2397 66.1622C48.087 66.1622 47.9613 66.2116 47.8625 66.3104C47.7637 66.4091 47.7144 66.5349 47.7144 66.6875V76.1576C47.7144 76.3102 47.7637 76.436 47.8625 76.5348C47.9613 76.6335 48.087 76.6829 48.2397 76.6829C48.3834 76.6829 48.5046 76.6335 48.6034 76.5348Z" fill="#0C2054"/>
<defs>
<filter id="filter0_ddddd_67_178" x="0.721924" y="0.22168" width="106.023" height="189.181" filterUnits="userSpaceOnUse" color-interpolation-filters="sRGB">
<feFlood flood-opacity="0" result="BackgroundImageFix"/>
<feColorMatrix in="SourceAlpha" type="matrix" values="0 0 0 0 0 0 0 0 0 0 0 0 0 0 0 0 0 0 127 0" result="hardAlpha"/>
<feOffset/>
<feColorMatrix type="matrix" values="0 0 0 0 0 0 0 0 0 0 0 0 0 0 0 0 0 0 0.1 0"/>
<feBlend mode="normal" in2="BackgroundImageFix" result="effect1_dropShadow_67_178"/>
<feColorMatrix in="SourceAlpha" type="matrix" values="0 0 0 0 0 0 0 0 0 0 0 0 0 0 0 0 0 0 127 0" result="hardAlpha"/>
<feOffset dx="-1" dy="6"/>
<feGaussianBlur stdDeviation="6.5"/>
<feColorMatrix type="matrix" values="0 0 0 0 0 0 0 0 0 0 0 0 0 0 0 0 0 0 0.1 0"/>
<feBlend mode="normal" in2="effect1_dropShadow_67_178" result="effect2_dropShadow_67_178"/>
<feColorMatrix in="SourceAlpha" type="matrix" values="0 0 0 0 0 0 0 0 0 0 0 0 0 0 0 0 0 0 127 0" result="hardAlpha"/>
<feOffset dx="-2" dy="24"/>
<feGaussianBlur stdDeviation="12"/>
<feColorMatrix type="matrix" values="0 0 0 0 0 0 0 0 0 0 0 0 0 0 0 0 0 0 0.09 0"/>
<feBlend mode="normal" in2="effect2_dropShadow_67_178" result="effect3_dropShadow_67_178"/>
<feColorMatrix in="SourceAlpha" type="matrix" values="0 0 0 0 0 0 0 0 0 0 0 0 0 0 0 0 0 0 127 0" result="hardAlpha"/>
<feOffset dx="-5" dy="54"/>
<feGaussianBlur stdDeviation="16"/>
<feColorMatrix type="matrix" values="0 0 0 0 0 0 0 0 0 0 0 0 0 0 0 0 0 0 0.05 0"/>
<feBlend mode="normal" in2="effect3_dropShadow_67_178" result="effect4_dropShadow_67_178"/>
<feColorMatrix in="SourceAlpha" type="matrix" values="0 0 0 0 0 0 0 0 0 0 0 0 0 0 0 0 0 0 127 0" result="hardAlpha"/>
<feOffset dx="-9" dy="95"/>
<feGaussianBlur stdDeviation="19"/>
<feColorMatrix type="matrix" values="0 0 0 0 0 0 0 0 0 0 0 0 0 0 0 0 0 0 0.01 0"/>
<feBlend mode="normal" in2="effect4_dropShadow_67_178" result="effect5_dropShadow_67_178"/>
<feBlend mode="normal" in="SourceGraphic" in2="effect5_dropShadow_67_178" result="shape"/>
</filter>
<filter id="filter1_b_67_178" x="11.8749" y="-4.63794" width="47.1094" height="47.1094" filterUnits="userSpaceOnUse" color-interpolation-filters="sRGB">
<feFlood flood-opacity="0" result="BackgroundImageFix"/>
<feGaussianBlur in="BackgroundImageFix" stdDeviation="11.5"/>
<feComposite in2="SourceAlpha" operator="in" result="effect1_backgroundBlur_67_178"/>
<feBlend mode="normal" in="SourceGraphic" in2="effect1_backgroundBlur_67_178" result="shape"/>
</filter>
<filter id="filter2_b_67_178" x="27.723" y="1.54272" width="47.1094" height="47.1094" filterUnits="userSpaceOnUse" color-interpolation-filters="sRGB">
<feFlood flood-opacity="0" result="BackgroundImageFix"/>
<feGaussianBlur in="BackgroundImageFix" stdDeviation="11.5"/>
<feComposite in2="SourceAlpha" operator="in" result="effect1_backgroundBlur_67_178"/>
<feBlend mode="normal" in="SourceGraphic" in2="effect1_backgroundBlur_67_178" result="shape"/>
</filter>
<filter id="filter3_b_67_178" x="27.723" y="20.5605" width="47.1094" height="47.1094" filterUnits="userSpaceOnUse" color-interpolation-filters="sRGB">
<feFlood flood-opacity="0" result="BackgroundImageFix"/>
<feGaussianBlur in="BackgroundImageFix" stdDeviation="11.5"/>
<feComposite in2="SourceAlpha" operator="in" result="effect1_backgroundBlur_67_178"/>
<feBlend mode="normal" in="SourceGraphic" in2="effect1_backgroundBlur_67_178" result="shape"/>
</filter>
<filter id="filter4_b_67_178" x="19.799" y="17.5493" width="47.1094" height="47.1094" filterUnits="userSpaceOnUse" color-interpolation-filters="sRGB">
<feFlood flood-opacity="0" result="BackgroundImageFix"/>
<feGaussianBlur in="BackgroundImageFix" stdDeviation="11.5"/>
<feComposite in2="SourceAlpha" operator="in" result="effect1_backgroundBlur_67_178"/>
<feBlend mode="normal" in="SourceGraphic" in2="effect1_backgroundBlur_67_178" result="shape"/>
</filter>
<filter id="filter5_b_67_178" x="19.799" y="8.04053" width="47.1094" height="47.1094" filterUnits="userSpaceOnUse" color-interpolation-filters="sRGB">
<feFlood flood-opacity="0" result="BackgroundImageFix"/>
<feGaussianBlur in="BackgroundImageFix" stdDeviation="11.5"/>
<feComposite in2="SourceAlpha" operator="in" result="effect1_backgroundBlur_67_178"/>
<feBlend mode="normal" in="SourceGraphic" in2="effect1_backgroundBlur_67_178" result="shape"/>
</filter>
<filter id="filter6_b_67_178" x="19.799" y="-1.62695" width="47.1094" height="47.1094" filterUnits="userSpaceOnUse" color-interpolation-filters="sRGB">
<feFlood flood-opacity="0" result="BackgroundImageFix"/>
<feGaussianBlur in="BackgroundImageFix" stdDeviation="11.5"/>
<feComposite in2="SourceAlpha" operator="in" result="effect1_backgroundBlur_67_178"/>
<feBlend mode="normal" in="SourceGraphic" in2="effect1_backgroundBlur_67_178" result="shape"/>
</filter>
<filter id="filter7_b_67_178" x="11.8749" y="14.3796" width="47.1094" height="47.1094" filterUnits="userSpaceOnUse" color-interpolation-filters="sRGB">
<feFlood flood-opacity="0" result="BackgroundImageFix"/>
<feGaussianBlur in="BackgroundImageFix" stdDeviation="11.5"/>
<feComposite in2="SourceAlpha" operator="in" result="effect1_backgroundBlur_67_178"/>
<feBlend mode="normal" in="SourceGraphic" in2="effect1_backgroundBlur_67_178" result="shape"/>
</filter>
<filter id="filter8_b_67_178" x="11.8749" y="4.87085" width="47.1094" height="47.1094" filterUnits="userSpaceOnUse" color-interpolation-filters="sRGB">
<feFlood flood-opacity="0" result="BackgroundImageFix"/>
<feGaussianBlur in="BackgroundImageFix" stdDeviation="11.5"/>
<feComposite in2="SourceAlpha" operator="in" result="effect1_backgroundBlur_67_178"/>
<feBlend mode="normal" in="SourceGraphic" in2="effect1_backgroundBlur_67_178" result="shape"/>
</filter>
<filter id="filter9_b_67_178" x="50.069" y="-4.63794" width="47.1094" height="47.1094" filterUnits="userSpaceOnUse" color-interpolation-filters="sRGB">
<feFlood flood-opacity="0" result="BackgroundImageFix"/>
<feGaussianBlur in="BackgroundImageFix" stdDeviation="11.5"/>
<feComposite in2="SourceAlpha" operator="in" result="effect1_backgroundBlur_67_178"/>
<feBlend mode="normal" in="SourceGraphic" in2="effect1_backgroundBlur_67_178" result="shape"/>
</filter>
<filter id="filter10_b_67_178" x="65.9171" y="1.54272" width="47.1094" height="47.1094" filterUnits="userSpaceOnUse" color-interpolation-filters="sRGB">
<feFlood flood-opacity="0" result="BackgroundImageFix"/>
<feGaussianBlur in="BackgroundImageFix" stdDeviation="11.5"/>
<feComposite in2="SourceAlpha" operator="in" result="effect1_backgroundBlur_67_178"/>
<feBlend mode="normal" in="SourceGraphic" in2="effect1_backgroundBlur_67_178" result="shape"/>
</filter>
<filter id="filter11_b_67_178" x="65.9171" y="20.5605" width="47.1094" height="47.1094" filterUnits="userSpaceOnUse" color-interpolation-filters="sRGB">
<feFlood flood-opacity="0" result="BackgroundImageFix"/>
<feGaussianBlur in="BackgroundImageFix" stdDeviation="11.5"/>
<feComposite in2="SourceAlpha" operator="in" result="effect1_backgroundBlur_67_178"/>
<feBlend mode="normal" in="SourceGraphic" in2="effect1_backgroundBlur_67_178" result="shape"/>
</filter>
<filter id="filter12_b_67_178" x="57.993" y="17.5493" width="47.1094" height="47.1094" filterUnits="userSpaceOnUse" color-interpolation-filters="sRGB">
<feFlood flood-opacity="0" result="BackgroundImageFix"/>
<feGaussianBlur in="BackgroundImageFix" stdDeviation="11.5"/>
<feComposite in2="SourceAlpha" operator="in" result="effect1_backgroundBlur_67_178"/>
<feBlend mode="normal" in="SourceGraphic" in2="effect1_backgroundBlur_67_178" result="shape"/>
</filter>
<filter id="filter13_b_67_178" x="57.993" y="8.04053" width="47.1094" height="47.1094" filterUnits="userSpaceOnUse" color-interpolation-filters="sRGB">
<feFlood flood-opacity="0" result="BackgroundImageFix"/>
<feGaussianBlur in="BackgroundImageFix" stdDeviation="11.5"/>
<feComposite in2="SourceAlpha" operator="in" result="effect1_backgroundBlur_67_178"/>
<feBlend mode="normal" in="SourceGraphic" in2="effect1_backgroundBlur_67_178" result="shape"/>
</filter>
<filter id="filter14_b_67_178" x="57.993" y="-1.62695" width="47.1094" height="47.1094" filterUnits="userSpaceOnUse" color-interpolation-filters="sRGB">
<feFlood flood-opacity="0" result="BackgroundImageFix"/>
<feGaussianBlur in="BackgroundImageFix" stdDeviation="11.5"/>
<feComposite in2="SourceAlpha" operator="in" result="effect1_backgroundBlur_67_178"/>
<feBlend mode="normal" in="SourceGraphic" in2="effect1_backgroundBlur_67_178" result="shape"/>
</filter>
<filter id="filter15_b_67_178" x="50.069" y="14.3796" width="47.1094" height="47.1094" filterUnits="userSpaceOnUse" color-interpolation-filters="sRGB">
<feFlood flood-opacity="0" result="BackgroundImageFix"/>
<feGaussianBlur in="BackgroundImageFix" stdDeviation="11.5"/>
<feComposite in2="SourceAlpha" operator="in" result="effect1_backgroundBlur_67_178"/>
<feBlend mode="normal" in="SourceGraphic" in2="effect1_backgroundBlur_67_178" result="shape"/>
</filter>
<filter id="filter16_b_67_178" x="50.069" y="4.87085" width="47.1094" height="47.1094" filterUnits="userSpaceOnUse" color-interpolation-filters="sRGB">
<feFlood flood-opacity="0" result="BackgroundImageFix"/>
<feGaussianBlur in="BackgroundImageFix" stdDeviation="11.5"/>
<feComposite in2="SourceAlpha" operator="in" result="effect1_backgroundBlur_67_178"/>
<feBlend mode="normal" in="SourceGraphic" in2="effect1_backgroundBlur_67_178" result="shape"/>
</filter>
<linearGradient id="paint0_linear_67_178" x1="28.5356" y1="37.3005" x2="92.1658" y2="0.453654" gradientUnits="userSpaceOnUse">
<stop stop-color="#0EB9F2"/>
<stop offset="1" stop-color="#0695C6"/>
</linearGradient>
<linearGradient id="paint1_linear_67_178" x1="66.5712" y1="39.5192" x2="137.967" y2="4.4157" gradientUnits="userSpaceOnUse">
<stop stop-color="#23A7DC"/>
<stop offset="1" stop-color="#0F7193"/>
</linearGradient>
</defs>
</svg>
