<svg width="654" height="588" viewBox="0 0 654 588" fill="none" xmlns="http://www.w3.org/2000/svg">
<path d="M0.731867 64.5568C0.692127 29.7629 28.866 1.52467 63.6599 1.48493L653.331 0.811444L654 587L1.32942 587.745L0.731867 64.5568Z" fill="white"/>
<path d="M112.913 60.5125L304.542 134.25V364.027L112.913 288.862V60.5125Z" fill="url(#paint0_linear_815_128)"/>
<path d="M353.075 60.5125L544.703 134.25V364.027L353.075 288.862V60.5125Z" fill="url(#paint1_linear_815_128)"/>
<g filter="url(#filter0_ddddd_815_128)">
<path d="M344.344 72.0331C346.433 72.4265 348.292 73.4681 349.619 74.9876C350.946 76.5072 351.661 78.4149 351.649 80.3991L351.06 187.789L411.396 169.125C413.168 168.576 415.06 168.514 416.836 168.947C418.612 169.38 420.195 170.29 421.39 171.562C422.585 172.835 423.339 174.416 423.559 176.11C423.78 177.804 423.457 179.536 422.631 181.093L324.019 367.316C323.065 369.119 321.489 370.59 319.548 371.489C317.607 372.387 315.416 372.661 313.331 372.264C311.246 371.868 309.39 370.826 308.066 369.307C306.743 367.788 306.029 365.882 306.042 363.901L306.625 256.494L246.29 275.158C244.517 275.707 242.625 275.769 240.849 275.336C239.073 274.903 237.49 273.994 236.295 272.721C235.1 271.448 234.346 269.867 234.126 268.173C233.905 266.479 234.228 264.747 235.055 263.19L333.666 76.9666C334.619 75.166 336.192 73.6969 338.13 72.7982C340.068 71.8994 342.256 71.6239 344.339 72.0164L344.344 72.0331Z" fill="white"/>
</g>
<path fill-rule="evenodd" clip-rule="evenodd" d="M155.943 325.017L155.943 67.1729L156.943 67.1729L156.943 325.017L155.943 325.017Z" fill="white" fill-opacity="0.8"/>
<path fill-rule="evenodd" clip-rule="evenodd" d="M205.976 338.338L205.976 80.4932L206.977 80.4932L206.977 338.338L205.976 338.338Z" fill="white" fill-opacity="0.8"/>
<path fill-rule="evenodd" clip-rule="evenodd" d="M256.01 351.659L256.01 93.814L257.01 93.814L257.01 351.659L256.01 351.659Z" fill="white" fill-opacity="0.8"/>
<path fill-rule="evenodd" clip-rule="evenodd" d="M337.064 205.134L96.9033 116.649L97.2649 115.761L337.426 204.247L337.064 205.134Z" fill="white" fill-opacity="0.8"/>
<path fill-rule="evenodd" clip-rule="evenodd" d="M337.064 262.221L96.9033 173.735L97.2649 172.848L337.426 261.334L337.064 262.221Z" fill="white" fill-opacity="0.8"/>
<path fill-rule="evenodd" clip-rule="evenodd" d="M337.064 319.308L96.9033 230.823L97.2649 229.936L337.426 318.421L337.064 319.308Z" fill="white" fill-opacity="0.8"/>
<g filter="url(#filter1_b_815_128)">
<path d="M159.945 138.056C159.945 139.895 158.377 141.386 156.443 141.386C154.508 141.386 152.94 139.895 152.94 138.056C152.94 136.217 154.508 134.726 156.443 134.726C158.377 134.726 159.945 136.217 159.945 138.056Z" fill="white" fill-opacity="0.8"/>
</g>
<g filter="url(#filter2_b_815_128)">
<path d="M260.012 175.163C260.012 177.002 258.444 178.493 256.51 178.493C254.576 178.493 253.008 177.002 253.008 175.163C253.008 173.324 254.576 171.833 256.51 171.833C258.444 171.833 260.012 173.324 260.012 175.163Z" fill="white" fill-opacity="0.8"/>
</g>
<g filter="url(#filter3_b_815_128)">
<path d="M260.012 289.338C260.012 291.177 258.444 292.668 256.51 292.668C254.576 292.668 253.008 291.177 253.008 289.338C253.008 287.499 254.576 286.008 256.51 286.008C258.444 286.008 260.012 287.499 260.012 289.338Z" fill="white" fill-opacity="0.8"/>
</g>
<g filter="url(#filter4_b_815_128)">
<path d="M209.978 271.26C209.978 273.099 208.41 274.59 206.476 274.59C204.542 274.59 202.974 273.099 202.974 271.26C202.974 269.42 204.542 267.929 206.476 267.929C208.41 267.929 209.978 269.42 209.978 271.26Z" fill="white" fill-opacity="0.8"/>
</g>
<g filter="url(#filter5_b_815_128)">
<path d="M209.978 214.173C209.978 216.012 208.41 217.503 206.476 217.503C204.542 217.503 202.974 216.012 202.974 214.173C202.974 212.333 204.542 210.843 206.476 210.843C208.41 210.843 209.978 212.333 209.978 214.173Z" fill="white" fill-opacity="0.8"/>
</g>
<g filter="url(#filter6_b_815_128)">
<path d="M209.978 156.134C209.978 157.973 208.41 159.464 206.476 159.464C204.542 159.464 202.974 157.973 202.974 156.134C202.974 154.294 204.542 152.803 206.476 152.803C208.41 152.803 209.978 154.294 209.978 156.134Z" fill="white" fill-opacity="0.8"/>
</g>
<g filter="url(#filter7_b_815_128)">
<path d="M159.945 252.231C159.945 254.07 158.377 255.561 156.443 255.561C154.508 255.561 152.94 254.07 152.94 252.231C152.94 250.392 154.508 248.901 156.443 248.901C158.377 248.901 159.945 250.392 159.945 252.231Z" fill="white" fill-opacity="0.8"/>
</g>
<g filter="url(#filter8_b_815_128)">
<path d="M159.945 195.143C159.945 196.982 158.377 198.473 156.443 198.473C154.508 198.473 152.94 196.982 152.94 195.143C152.94 193.304 154.508 191.813 156.443 191.813C158.377 191.813 159.945 193.304 159.945 195.143Z" fill="white" fill-opacity="0.8"/>
</g>
<path fill-rule="evenodd" clip-rule="evenodd" d="M397.104 325.017L397.104 67.1729L398.105 67.1729L398.105 325.017L397.104 325.017Z" fill="white" fill-opacity="0.8"/>
<path fill-rule="evenodd" clip-rule="evenodd" d="M447.138 338.338L447.138 80.4932L448.138 80.4932L448.138 338.338L447.138 338.338Z" fill="white" fill-opacity="0.8"/>
<path fill-rule="evenodd" clip-rule="evenodd" d="M497.171 351.658L497.171 93.8137L498.172 93.8137L498.172 351.658L497.171 351.658Z" fill="white" fill-opacity="0.8"/>
<path fill-rule="evenodd" clip-rule="evenodd" d="M578.226 205.134L338.065 116.649L338.427 115.761L578.588 204.247L578.226 205.134Z" fill="white" fill-opacity="0.8"/>
<path fill-rule="evenodd" clip-rule="evenodd" d="M578.226 262.221L338.065 173.735L338.427 172.848L578.588 261.334L578.226 262.221Z" fill="white" fill-opacity="0.8"/>
<path fill-rule="evenodd" clip-rule="evenodd" d="M578.226 319.308L338.065 230.823L338.427 229.936L578.588 318.421L578.226 319.308Z" fill="white" fill-opacity="0.8"/>
<g filter="url(#filter9_b_815_128)">
<path d="M401.108 138.056C401.108 139.896 399.54 141.387 397.605 141.387C395.671 141.387 394.103 139.896 394.103 138.056C394.103 136.217 395.671 134.726 397.605 134.726C399.54 134.726 401.108 136.217 401.108 138.056Z" fill="white" fill-opacity="0.8"/>
</g>
<g filter="url(#filter10_b_815_128)">
<path d="M501.175 175.163C501.175 177.003 499.607 178.493 497.673 178.493C495.738 178.493 494.17 177.003 494.17 175.163C494.17 173.324 495.738 171.833 497.673 171.833C499.607 171.833 501.175 173.324 501.175 175.163Z" fill="white" fill-opacity="0.8"/>
</g>
<g filter="url(#filter11_b_815_128)">
<path d="M501.175 289.338C501.175 291.177 499.607 292.668 497.673 292.668C495.738 292.668 494.17 291.177 494.17 289.338C494.17 287.499 495.738 286.008 497.673 286.008C499.607 286.008 501.175 287.499 501.175 289.338Z" fill="white" fill-opacity="0.8"/>
</g>
<g filter="url(#filter12_b_815_128)">
<path d="M451.142 271.26C451.142 273.099 449.574 274.59 447.639 274.59C445.705 274.59 444.137 273.099 444.137 271.26C444.137 269.421 445.705 267.93 447.639 267.93C449.574 267.93 451.142 269.421 451.142 271.26Z" fill="white" fill-opacity="0.8"/>
</g>
<g filter="url(#filter13_b_815_128)">
<path d="M451.142 214.173C451.142 216.012 449.574 217.503 447.639 217.503C445.705 217.503 444.137 216.012 444.137 214.173C444.137 212.334 445.705 210.843 447.639 210.843C449.574 210.843 451.142 212.334 451.142 214.173Z" fill="white" fill-opacity="0.8"/>
</g>
<g filter="url(#filter14_b_815_128)">
<path d="M451.142 156.134C451.142 157.973 449.574 159.464 447.639 159.464C445.705 159.464 444.137 157.973 444.137 156.134C444.137 154.295 445.705 152.804 447.639 152.804C449.574 152.804 451.142 154.295 451.142 156.134Z" fill="white" fill-opacity="0.8"/>
</g>
<g filter="url(#filter15_b_815_128)">
<path d="M401.108 252.231C401.108 254.07 399.54 255.561 397.605 255.561C395.671 255.561 394.103 254.07 394.103 252.231C394.103 250.392 395.671 248.901 397.605 248.901C399.54 248.901 401.108 250.392 401.108 252.231Z" fill="white" fill-opacity="0.8"/>
</g>
<g filter="url(#filter16_b_815_128)">
<path d="M401.108 195.143C401.108 196.982 399.54 198.473 397.605 198.473C395.671 198.473 394.103 196.982 394.103 195.143C394.103 193.304 395.671 191.813 397.605 191.813C399.54 191.813 401.108 193.304 401.108 195.143Z" fill="white" fill-opacity="0.8"/>
</g>
<path d="M341.563 485.41C338.233 485.41 334.743 484.832 331.092 483.675C327.442 482.518 324.4 480.569 321.966 477.829C321.454 477.22 321.23 476.581 321.294 475.911C321.422 475.18 321.838 474.571 322.542 474.084C323.183 473.658 323.855 473.505 324.56 473.627C325.328 473.749 325.937 474.084 326.385 474.632C328.242 476.702 330.484 478.164 333.11 479.016C335.799 479.808 338.713 480.204 341.851 480.204C347.231 480.204 351.042 479.29 353.283 477.463C355.525 475.637 356.645 473.505 356.645 471.07C356.645 468.695 355.429 466.746 352.995 465.224C350.625 463.641 346.943 462.514 341.947 461.844C335.543 460.992 330.804 459.348 327.73 456.912C324.656 454.476 323.119 451.645 323.119 448.417C323.119 445.373 323.919 442.815 325.52 440.745C327.122 438.614 329.299 437.03 332.053 435.995C334.871 434.899 338.073 434.351 341.659 434.351C346.014 434.351 349.697 435.112 352.707 436.635C355.717 438.096 358.15 440.075 360.008 442.572C360.52 443.181 360.68 443.85 360.488 444.581C360.36 445.251 359.879 445.799 359.047 446.225C358.406 446.53 357.734 446.621 357.03 446.499C356.325 446.378 355.717 446.012 355.204 445.403C353.603 443.455 351.65 441.993 349.344 441.019C347.103 439.984 344.477 439.466 341.467 439.466C337.432 439.466 334.294 440.288 332.053 441.932C329.811 443.576 328.691 445.555 328.691 447.869C328.691 449.453 329.139 450.853 330.035 452.071C330.996 453.228 332.533 454.233 334.647 455.085C336.76 455.877 339.578 456.516 343.1 457.003C347.903 457.612 351.682 458.647 354.436 460.109C357.254 461.57 359.239 463.275 360.392 465.224C361.609 467.112 362.217 469.152 362.217 471.344C362.217 474.206 361.256 476.702 359.335 478.834C357.414 480.965 354.884 482.609 351.746 483.766C348.608 484.862 345.214 485.41 341.563 485.41Z" fill="#404040"/>
<path d="M399.215 485.41C394.091 485.41 389.48 484.314 385.381 482.122C381.347 479.869 378.144 476.824 375.775 472.988C373.469 469.091 372.317 464.737 372.317 459.926C372.317 455.055 373.469 450.701 375.775 446.865C378.144 442.967 381.347 439.923 385.381 437.731C389.48 435.478 394.091 434.351 399.215 434.351C404.338 434.351 408.917 435.478 412.952 437.731C416.987 439.923 420.157 442.967 422.462 446.865C424.832 450.701 426.017 455.055 426.017 459.926C426.017 464.737 424.832 469.091 422.462 472.988C420.157 476.824 416.987 479.869 412.952 482.122C408.917 484.314 404.338 485.41 399.215 485.41ZM399.215 480.295C403.249 480.295 406.836 479.412 409.974 477.646C413.176 475.819 415.674 473.384 417.467 470.339C419.324 467.233 420.253 463.732 420.253 459.835C420.253 455.999 419.324 452.558 417.467 449.514C415.674 446.408 413.176 443.972 409.974 442.206C406.836 440.38 403.249 439.466 399.215 439.466C395.244 439.466 391.658 440.38 388.455 442.206C385.253 443.972 382.724 446.408 380.866 449.514C379.009 452.558 378.08 456.029 378.08 459.926C378.08 463.763 379.009 467.233 380.866 470.339C382.724 473.384 385.253 475.819 388.455 477.646C391.658 479.412 395.244 480.295 399.215 480.295Z" fill="#404040"/>
<path d="M450.965 484.862C448.532 484.862 446.354 484.223 444.433 482.944C442.576 481.665 441.103 479.899 440.014 477.646C438.989 475.393 438.477 472.775 438.477 469.791V416.266C438.477 415.413 438.733 414.743 439.246 414.256C439.822 413.769 440.527 413.526 441.359 413.526C442.256 413.526 442.96 413.769 443.472 414.256C443.985 414.743 444.241 415.413 444.241 416.266V469.791C444.241 472.592 444.849 474.906 446.066 476.733C447.347 478.499 448.98 479.382 450.965 479.382H453.367C454.072 479.382 454.648 479.625 455.096 480.112C455.545 480.599 455.769 481.269 455.769 482.122C455.769 482.913 455.513 483.583 455 484.131C454.488 484.618 453.783 484.862 452.887 484.862H450.965Z" fill="#404040"/>
<path d="M487.399 485.41C482.275 485.41 477.664 484.314 473.565 482.122C469.531 479.869 466.329 476.824 463.959 472.988C461.653 469.091 460.501 464.737 460.501 459.926C460.501 455.055 461.653 450.701 463.959 446.865C466.329 442.967 469.531 439.923 473.565 437.731C477.664 435.478 482.275 434.351 487.399 434.351C492.522 434.351 497.101 435.478 501.136 437.731C505.171 439.923 508.341 442.967 510.646 446.865C513.016 450.701 514.201 455.055 514.201 459.926L511.799 463.58C511.799 467.721 510.71 471.435 508.533 474.723C506.419 478.012 503.537 480.63 499.887 482.579C496.237 484.466 492.074 485.41 487.399 485.41ZM487.399 480.295C491.433 480.295 495.02 479.412 498.158 477.646C501.36 475.819 503.858 473.384 505.651 470.339C507.508 467.233 508.437 463.763 508.437 459.926C508.437 456.029 507.508 452.558 505.651 449.514C503.858 446.408 501.36 443.972 498.158 442.206C495.02 440.38 491.433 439.466 487.399 439.466C483.428 439.466 479.842 440.38 476.639 442.206C473.437 443.972 470.908 446.408 469.05 449.514C467.193 452.558 466.265 456.029 466.265 459.926C466.265 463.763 467.193 467.233 469.05 470.339C470.908 473.384 473.437 475.819 476.639 477.646C479.842 479.412 483.428 480.295 487.399 480.295ZM511.319 484.862C510.486 484.862 509.782 484.618 509.205 484.131C508.693 483.583 508.437 482.913 508.437 482.122V465.407L510.262 459.926H514.201V482.122C514.201 482.913 513.944 483.583 513.432 484.131C512.92 484.618 512.215 484.862 511.319 484.862Z" fill="#404040"/>
<path d="M530.504 454.355C530.888 450.457 532.009 447.017 533.866 444.033C535.723 440.988 538.125 438.614 541.071 436.909C544.017 435.204 547.283 434.351 550.869 434.351C553.303 434.351 555.192 434.625 556.537 435.173C557.882 435.721 558.394 436.695 558.074 438.096C557.882 439.009 557.434 439.557 556.729 439.74C556.025 439.923 555.16 439.953 554.136 439.831C553.175 439.649 552.086 439.557 550.869 439.557C547.667 439.557 544.817 440.197 542.32 441.476C539.822 442.754 537.869 444.52 536.46 446.773C535.051 448.965 534.346 451.493 534.346 454.355H530.504ZM531.464 484.862C530.632 484.862 529.927 484.618 529.351 484.131C528.839 483.583 528.583 482.913 528.583 482.122V437.639C528.583 436.787 528.839 436.117 529.351 435.63C529.927 435.143 530.632 434.899 531.464 434.899C532.361 434.899 533.066 435.143 533.578 435.63C534.09 436.117 534.346 436.787 534.346 437.639V482.122C534.346 482.913 534.09 483.583 533.578 484.131C533.066 484.618 532.361 484.862 531.464 484.862Z" fill="#404040"/>
<path d="M559.284 486.323C557.875 486.323 556.69 485.867 555.73 484.953C554.833 484.101 554.385 483.005 554.385 481.665C554.385 480.325 554.865 479.229 555.826 478.377C556.786 477.524 557.939 477.098 559.284 477.098C560.629 477.098 561.75 477.555 562.646 478.468C563.607 479.321 564.087 480.386 564.087 481.665C564.087 482.944 563.607 484.04 562.646 484.953C561.75 485.867 560.629 486.323 559.284 486.323Z" fill="#404040"/>
<path d="M113.729 484.862C112.765 484.862 111.971 484.565 111.348 483.972C110.724 483.379 110.412 482.624 110.412 481.708V424.853C110.412 423.937 110.724 423.182 111.348 422.589C111.971 421.996 112.765 421.699 113.729 421.699H129.04C133.916 421.699 138.368 422.481 142.394 424.045C146.476 425.554 149.992 427.738 152.941 430.595C155.889 433.399 158.157 436.715 159.745 440.543C161.39 444.371 162.212 448.603 162.212 453.24C162.212 457.877 161.39 462.136 159.745 466.018C158.157 469.846 155.889 473.189 152.941 476.046C149.992 478.85 146.476 481.034 142.394 482.597C138.368 484.107 133.916 484.862 129.04 484.862H113.729ZM117.047 479.2H129.04C134.256 479.2 138.849 478.095 142.819 475.885C146.845 473.62 149.992 470.547 152.26 466.665C154.528 462.729 155.662 458.254 155.662 453.24C155.662 448.226 154.528 443.778 152.26 439.896C149.992 435.96 146.845 432.887 142.819 430.676C138.849 428.466 134.256 427.36 129.04 427.36H117.047V479.2Z" fill="#0C2054"/>
<path d="M170.547 484.862C169.243 484.862 168.308 484.349 167.741 483.325C167.173 482.301 167.117 481.303 167.57 480.333L192.577 423.883C193.201 422.427 194.278 421.699 195.809 421.699C197.284 421.699 198.333 422.427 198.956 423.883L224.048 480.414C224.559 481.438 224.474 482.435 223.793 483.406C223.169 484.376 222.262 484.862 221.071 484.862C220.391 484.862 219.767 484.7 219.2 484.376C218.69 484.053 218.264 483.568 217.924 482.921L194.533 428.978H197.17L173.609 482.921C173.326 483.568 172.901 484.053 172.334 484.376C171.823 484.7 171.228 484.862 170.547 484.862ZM176.161 469.819L178.713 464.401H213.246L215.798 469.819H176.161Z" fill="#0C2054"/>
<path d="M237.328 484.862C236.364 484.862 235.57 484.565 234.946 483.972C234.322 483.379 234.011 482.624 234.011 481.708V424.853C234.011 423.937 234.322 423.182 234.946 422.589C235.57 421.996 236.364 421.699 237.328 421.699C238.348 421.699 239.199 422.077 239.879 422.831L280.537 473.62V424.853C280.537 423.937 280.849 423.182 281.472 422.589C282.096 421.996 282.89 421.699 283.854 421.699C284.761 421.699 285.527 421.996 286.15 422.589C286.831 423.182 287.171 423.937 287.171 424.853V481.708C287.171 482.624 286.831 483.379 286.15 483.972C285.527 484.565 284.761 484.862 283.854 484.862C283.4 484.862 282.947 484.781 282.493 484.619C282.039 484.457 281.671 484.188 281.387 483.81L240.645 433.022V481.708C240.645 482.624 240.305 483.379 239.624 483.972C239.001 484.565 238.235 484.862 237.328 484.862Z" fill="#0C2054"/>
<path fill-rule="evenodd" clip-rule="evenodd" d="M154.363 477.386L154.356 477.393C151.206 480.387 147.46 482.709 143.141 484.363L143.135 484.365L143.128 484.368C138.84 485.976 134.136 486.765 129.04 486.765H113.729C112.289 486.765 110.968 486.303 109.933 485.318C108.897 484.333 108.411 483.078 108.411 481.708V424.854C108.411 423.484 108.897 422.229 109.933 421.244C110.968 420.259 112.289 419.797 113.729 419.797H129.04C134.138 419.797 138.845 420.614 143.135 422.277C147.461 423.88 151.212 426.206 154.363 429.257C157.507 432.248 159.92 435.781 161.603 439.835C163.353 443.914 164.213 448.391 164.213 453.241C164.213 458.092 163.353 462.594 161.604 466.723C159.921 470.779 157.509 474.337 154.369 477.38L154.363 477.386ZM159.745 466.019C161.39 462.137 162.212 457.877 162.212 453.241C162.212 448.604 161.39 444.371 159.745 440.543C158.158 436.715 155.889 433.4 152.941 430.596C149.992 427.738 146.476 425.555 142.394 424.045C138.368 422.482 133.916 421.7 129.04 421.7H113.729C112.765 421.7 111.972 421.996 111.348 422.589C110.724 423.182 110.412 423.937 110.412 424.854V481.708C110.412 482.625 110.724 483.38 111.348 483.973C111.972 484.566 112.765 484.862 113.729 484.862H129.04C133.916 484.862 138.368 484.107 142.394 482.598C146.476 481.034 149.992 478.851 152.941 476.047C155.889 473.189 158.158 469.847 159.745 466.019ZM150.511 440.821L150.505 440.811C148.41 437.176 145.522 434.358 141.818 432.325L141.807 432.319C138.184 430.301 133.95 429.264 129.04 429.264H119.048V477.298H129.04C133.948 477.298 138.181 476.262 141.803 474.245C145.521 472.154 148.413 469.329 150.508 465.747C152.594 462.124 153.661 457.971 153.661 453.241C153.661 448.507 152.593 444.385 150.511 440.821ZM152.26 466.666C149.992 470.548 146.845 473.621 142.819 475.885C138.85 478.096 134.257 479.201 129.04 479.201H117.047V427.361H129.04C134.257 427.361 138.85 428.466 142.819 430.677C146.845 432.887 149.992 435.961 152.26 439.896C154.528 443.778 155.663 448.226 155.663 453.241C155.663 458.255 154.528 462.73 152.26 466.666ZM173.61 482.921C173.326 483.568 172.901 484.053 172.334 484.377C171.823 484.7 171.228 484.862 170.548 484.862C169.243 484.862 168.308 484.35 167.741 483.326C167.174 482.301 167.117 481.304 167.571 480.333L192.577 423.883C193.201 422.428 194.278 421.7 195.809 421.7C197.284 421.7 198.333 422.428 198.957 423.883L224.048 480.414C224.559 481.439 224.474 482.436 223.793 483.406C223.169 484.377 222.262 484.862 221.071 484.862C220.391 484.862 219.767 484.7 219.2 484.377C218.69 484.053 218.264 483.568 217.924 482.921L212.243 469.82H179.332L173.61 482.921ZM181.699 464.401H209.894L195.847 432.008L181.699 464.401ZM184.697 462.498H206.904L195.84 436.985L184.697 462.498ZM180.668 471.723L175.457 483.653C175.035 484.617 174.358 485.429 173.404 485.985C172.539 486.522 171.563 486.765 170.548 486.765C169.618 486.765 168.698 486.581 167.869 486.127C167.032 485.669 166.406 485.001 165.97 484.212C165.15 482.731 165.016 481.129 165.733 479.579L190.729 423.154C191.148 422.18 191.78 421.312 192.694 420.694C193.623 420.067 194.696 419.797 195.809 419.797C196.911 419.797 197.969 420.075 198.882 420.709C199.775 421.328 200.391 422.192 200.805 423.154L225.877 479.64C226.671 481.266 226.509 482.944 225.48 484.431C224.494 485.943 222.95 486.765 221.071 486.765C220.039 486.765 219.058 486.515 218.17 486.009L218.13 485.985L218.09 485.96C217.228 485.414 216.593 484.645 216.134 483.772L216.102 483.71L210.904 471.723H180.668ZM241.437 421.636L278.535 467.979V424.854C278.535 423.484 279.022 422.229 280.057 421.244C281.093 420.259 282.414 419.797 283.854 419.797C285.261 419.797 286.529 420.273 287.535 421.215C288.628 422.182 289.173 423.444 289.173 424.854V481.708C289.173 483.118 288.628 484.38 287.535 485.347C286.529 486.289 285.261 486.765 283.854 486.765C283.145 486.765 282.453 486.638 281.79 486.401C280.973 486.11 280.291 485.613 279.78 484.945L242.646 438.655V481.708C242.646 483.118 242.102 484.38 241.009 485.347C240.003 486.289 238.735 486.765 237.328 486.765C235.887 486.765 234.567 486.303 233.531 485.318C232.495 484.333 232.009 483.078 232.009 481.708V424.854C232.009 423.484 232.495 422.229 233.531 421.244C234.567 420.259 235.887 419.797 237.328 419.797C238.949 419.797 240.349 420.429 241.399 421.594L241.437 421.636ZM239.624 483.973C240.305 483.38 240.645 482.625 240.645 481.708V433.022L281.387 483.811C281.671 484.188 282.04 484.458 282.493 484.62C282.947 484.781 283.4 484.862 283.854 484.862C284.761 484.862 285.527 484.566 286.151 483.973C286.831 483.38 287.171 482.625 287.171 481.708V424.854C287.171 423.937 286.831 423.182 286.151 422.589C285.527 421.996 284.761 421.7 283.854 421.7C282.89 421.7 282.096 421.996 281.472 422.589C280.849 423.182 280.537 423.937 280.537 424.854V473.621L239.88 422.832C239.199 422.077 238.349 421.7 237.328 421.7C236.364 421.7 235.57 421.996 234.946 422.589C234.323 423.182 234.011 423.937 234.011 424.854V481.708C234.011 482.625 234.323 483.38 234.946 483.973C235.57 484.566 236.364 484.862 237.328 484.862C238.235 484.862 239.001 484.566 239.624 483.973Z" fill="#0C2054"/>
<defs>
<filter id="filter0_ddddd_815_128" x="187.058" y="64.8423" width="265.569" height="440.599" filterUnits="userSpaceOnUse" color-interpolation-filters="sRGB">
<feFlood flood-opacity="0" result="BackgroundImageFix"/>
<feColorMatrix in="SourceAlpha" type="matrix" values="0 0 0 0 0 0 0 0 0 0 0 0 0 0 0 0 0 0 127 0" result="hardAlpha"/>
<feOffset/>
<feColorMatrix type="matrix" values="0 0 0 0 0 0 0 0 0 0 0 0 0 0 0 0 0 0 0.1 0"/>
<feBlend mode="normal" in2="BackgroundImageFix" result="effect1_dropShadow_815_128"/>
<feColorMatrix in="SourceAlpha" type="matrix" values="0 0 0 0 0 0 0 0 0 0 0 0 0 0 0 0 0 0 127 0" result="hardAlpha"/>
<feOffset dx="-1" dy="6"/>
<feGaussianBlur stdDeviation="6.5"/>
<feColorMatrix type="matrix" values="0 0 0 0 0 0 0 0 0 0 0 0 0 0 0 0 0 0 0.1 0"/>
<feBlend mode="normal" in2="effect1_dropShadow_815_128" result="effect2_dropShadow_815_128"/>
<feColorMatrix in="SourceAlpha" type="matrix" values="0 0 0 0 0 0 0 0 0 0 0 0 0 0 0 0 0 0 127 0" result="hardAlpha"/>
<feOffset dx="-2" dy="24"/>
<feGaussianBlur stdDeviation="12"/>
<feColorMatrix type="matrix" values="0 0 0 0 0 0 0 0 0 0 0 0 0 0 0 0 0 0 0.09 0"/>
<feBlend mode="normal" in2="effect2_dropShadow_815_128" result="effect3_dropShadow_815_128"/>
<feColorMatrix in="SourceAlpha" type="matrix" values="0 0 0 0 0 0 0 0 0 0 0 0 0 0 0 0 0 0 127 0" result="hardAlpha"/>
<feOffset dx="-5" dy="54"/>
<feGaussianBlur stdDeviation="16"/>
<feColorMatrix type="matrix" values="0 0 0 0 0 0 0 0 0 0 0 0 0 0 0 0 0 0 0.05 0"/>
<feBlend mode="normal" in2="effect3_dropShadow_815_128" result="effect4_dropShadow_815_128"/>
<feColorMatrix in="SourceAlpha" type="matrix" values="0 0 0 0 0 0 0 0 0 0 0 0 0 0 0 0 0 0 127 0" result="hardAlpha"/>
<feOffset dx="-9" dy="95"/>
<feGaussianBlur stdDeviation="19"/>
<feColorMatrix type="matrix" values="0 0 0 0 0 0 0 0 0 0 0 0 0 0 0 0 0 0 0.01 0"/>
<feBlend mode="normal" in2="effect4_dropShadow_815_128" result="effect5_dropShadow_815_128"/>
<feBlend mode="normal" in="SourceGraphic" in2="effect5_dropShadow_815_128" result="shape"/>
</filter>
<filter id="filter1_b_815_128" x="129.94" y="111.726" width="53.0046" height="52.6602" filterUnits="userSpaceOnUse" color-interpolation-filters="sRGB">
<feFlood flood-opacity="0" result="BackgroundImageFix"/>
<feGaussianBlur in="BackgroundImageFix" stdDeviation="11.5"/>
<feComposite in2="SourceAlpha" operator="in" result="effect1_backgroundBlur_815_128"/>
<feBlend mode="normal" in="SourceGraphic" in2="effect1_backgroundBlur_815_128" result="shape"/>
</filter>
<filter id="filter2_b_815_128" x="230.008" y="148.833" width="53.0046" height="52.6602" filterUnits="userSpaceOnUse" color-interpolation-filters="sRGB">
<feFlood flood-opacity="0" result="BackgroundImageFix"/>
<feGaussianBlur in="BackgroundImageFix" stdDeviation="11.5"/>
<feComposite in2="SourceAlpha" operator="in" result="effect1_backgroundBlur_815_128"/>
<feBlend mode="normal" in="SourceGraphic" in2="effect1_backgroundBlur_815_128" result="shape"/>
</filter>
<filter id="filter3_b_815_128" x="230.008" y="263.008" width="53.0046" height="52.6602" filterUnits="userSpaceOnUse" color-interpolation-filters="sRGB">
<feFlood flood-opacity="0" result="BackgroundImageFix"/>
<feGaussianBlur in="BackgroundImageFix" stdDeviation="11.5"/>
<feComposite in2="SourceAlpha" operator="in" result="effect1_backgroundBlur_815_128"/>
<feBlend mode="normal" in="SourceGraphic" in2="effect1_backgroundBlur_815_128" result="shape"/>
</filter>
<filter id="filter4_b_815_128" x="179.974" y="244.929" width="53.0046" height="52.6602" filterUnits="userSpaceOnUse" color-interpolation-filters="sRGB">
<feFlood flood-opacity="0" result="BackgroundImageFix"/>
<feGaussianBlur in="BackgroundImageFix" stdDeviation="11.5"/>
<feComposite in2="SourceAlpha" operator="in" result="effect1_backgroundBlur_815_128"/>
<feBlend mode="normal" in="SourceGraphic" in2="effect1_backgroundBlur_815_128" result="shape"/>
</filter>
<filter id="filter5_b_815_128" x="179.974" y="187.843" width="53.0046" height="52.6602" filterUnits="userSpaceOnUse" color-interpolation-filters="sRGB">
<feFlood flood-opacity="0" result="BackgroundImageFix"/>
<feGaussianBlur in="BackgroundImageFix" stdDeviation="11.5"/>
<feComposite in2="SourceAlpha" operator="in" result="effect1_backgroundBlur_815_128"/>
<feBlend mode="normal" in="SourceGraphic" in2="effect1_backgroundBlur_815_128" result="shape"/>
</filter>
<filter id="filter6_b_815_128" x="179.974" y="129.803" width="53.0046" height="52.6602" filterUnits="userSpaceOnUse" color-interpolation-filters="sRGB">
<feFlood flood-opacity="0" result="BackgroundImageFix"/>
<feGaussianBlur in="BackgroundImageFix" stdDeviation="11.5"/>
<feComposite in2="SourceAlpha" operator="in" result="effect1_backgroundBlur_815_128"/>
<feBlend mode="normal" in="SourceGraphic" in2="effect1_backgroundBlur_815_128" result="shape"/>
</filter>
<filter id="filter7_b_815_128" x="129.94" y="225.901" width="53.0046" height="52.6602" filterUnits="userSpaceOnUse" color-interpolation-filters="sRGB">
<feFlood flood-opacity="0" result="BackgroundImageFix"/>
<feGaussianBlur in="BackgroundImageFix" stdDeviation="11.5"/>
<feComposite in2="SourceAlpha" operator="in" result="effect1_backgroundBlur_815_128"/>
<feBlend mode="normal" in="SourceGraphic" in2="effect1_backgroundBlur_815_128" result="shape"/>
</filter>
<filter id="filter8_b_815_128" x="129.94" y="168.813" width="53.0046" height="52.6602" filterUnits="userSpaceOnUse" color-interpolation-filters="sRGB">
<feFlood flood-opacity="0" result="BackgroundImageFix"/>
<feGaussianBlur in="BackgroundImageFix" stdDeviation="11.5"/>
<feComposite in2="SourceAlpha" operator="in" result="effect1_backgroundBlur_815_128"/>
<feBlend mode="normal" in="SourceGraphic" in2="effect1_backgroundBlur_815_128" result="shape"/>
</filter>
<filter id="filter9_b_815_128" x="371.103" y="111.726" width="53.0046" height="52.6602" filterUnits="userSpaceOnUse" color-interpolation-filters="sRGB">
<feFlood flood-opacity="0" result="BackgroundImageFix"/>
<feGaussianBlur in="BackgroundImageFix" stdDeviation="11.5"/>
<feComposite in2="SourceAlpha" operator="in" result="effect1_backgroundBlur_815_128"/>
<feBlend mode="normal" in="SourceGraphic" in2="effect1_backgroundBlur_815_128" result="shape"/>
</filter>
<filter id="filter10_b_815_128" x="471.17" y="148.833" width="53.0046" height="52.6602" filterUnits="userSpaceOnUse" color-interpolation-filters="sRGB">
<feFlood flood-opacity="0" result="BackgroundImageFix"/>
<feGaussianBlur in="BackgroundImageFix" stdDeviation="11.5"/>
<feComposite in2="SourceAlpha" operator="in" result="effect1_backgroundBlur_815_128"/>
<feBlend mode="normal" in="SourceGraphic" in2="effect1_backgroundBlur_815_128" result="shape"/>
</filter>
<filter id="filter11_b_815_128" x="471.17" y="263.008" width="53.0046" height="52.6602" filterUnits="userSpaceOnUse" color-interpolation-filters="sRGB">
<feFlood flood-opacity="0" result="BackgroundImageFix"/>
<feGaussianBlur in="BackgroundImageFix" stdDeviation="11.5"/>
<feComposite in2="SourceAlpha" operator="in" result="effect1_backgroundBlur_815_128"/>
<feBlend mode="normal" in="SourceGraphic" in2="effect1_backgroundBlur_815_128" result="shape"/>
</filter>
<filter id="filter12_b_815_128" x="421.137" y="244.93" width="53.0046" height="52.6602" filterUnits="userSpaceOnUse" color-interpolation-filters="sRGB">
<feFlood flood-opacity="0" result="BackgroundImageFix"/>
<feGaussianBlur in="BackgroundImageFix" stdDeviation="11.5"/>
<feComposite in2="SourceAlpha" operator="in" result="effect1_backgroundBlur_815_128"/>
<feBlend mode="normal" in="SourceGraphic" in2="effect1_backgroundBlur_815_128" result="shape"/>
</filter>
<filter id="filter13_b_815_128" x="421.137" y="187.843" width="53.0046" height="52.6602" filterUnits="userSpaceOnUse" color-interpolation-filters="sRGB">
<feFlood flood-opacity="0" result="BackgroundImageFix"/>
<feGaussianBlur in="BackgroundImageFix" stdDeviation="11.5"/>
<feComposite in2="SourceAlpha" operator="in" result="effect1_backgroundBlur_815_128"/>
<feBlend mode="normal" in="SourceGraphic" in2="effect1_backgroundBlur_815_128" result="shape"/>
</filter>
<filter id="filter14_b_815_128" x="421.137" y="129.804" width="53.0046" height="52.6602" filterUnits="userSpaceOnUse" color-interpolation-filters="sRGB">
<feFlood flood-opacity="0" result="BackgroundImageFix"/>
<feGaussianBlur in="BackgroundImageFix" stdDeviation="11.5"/>
<feComposite in2="SourceAlpha" operator="in" result="effect1_backgroundBlur_815_128"/>
<feBlend mode="normal" in="SourceGraphic" in2="effect1_backgroundBlur_815_128" result="shape"/>
</filter>
<filter id="filter15_b_815_128" x="371.103" y="225.901" width="53.0046" height="52.6602" filterUnits="userSpaceOnUse" color-interpolation-filters="sRGB">
<feFlood flood-opacity="0" result="BackgroundImageFix"/>
<feGaussianBlur in="BackgroundImageFix" stdDeviation="11.5"/>
<feComposite in2="SourceAlpha" operator="in" result="effect1_backgroundBlur_815_128"/>
<feBlend mode="normal" in="SourceGraphic" in2="effect1_backgroundBlur_815_128" result="shape"/>
</filter>
<filter id="filter16_b_815_128" x="371.103" y="168.813" width="53.0046" height="52.6602" filterUnits="userSpaceOnUse" color-interpolation-filters="sRGB">
<feFlood flood-opacity="0" result="BackgroundImageFix"/>
<feGaussianBlur in="BackgroundImageFix" stdDeviation="11.5"/>
<feComposite in2="SourceAlpha" operator="in" result="effect1_backgroundBlur_815_128"/>
<feBlend mode="normal" in="SourceGraphic" in2="effect1_backgroundBlur_815_128" result="shape"/>
</filter>
<linearGradient id="paint0_linear_815_128" x1="112.913" y1="248.425" x2="504.253" y2="10.0868" gradientUnits="userSpaceOnUse">
<stop stop-color="#0EB9F2"/>
<stop offset="1" stop-color="#0695C6"/>
</linearGradient>
<linearGradient id="paint1_linear_815_128" x1="353.075" y1="261.745" x2="794.752" y2="33.351" gradientUnits="userSpaceOnUse">
<stop stop-color="#23A7DC"/>
<stop offset="1" stop-color="#0F7193"/>
</linearGradient>
</defs>
</svg>
