<svg width="70" height="70" viewBox="0 0 70 70" fill="none" xmlns="http://www.w3.org/2000/svg">
<path fill-rule="evenodd" clip-rule="evenodd" d="M41.9592 35.9727C41.5569 34.8352 40.812 33.8505 39.8268 33.1539C38.8417 32.4574 37.6649 32.0834 36.4584 32.0833V30.625H33.5417V32.0833C31.9946 32.0833 30.5109 32.6979 29.4169 33.7919C28.323 34.8858 27.7084 36.3696 27.7084 37.9167C27.7084 39.4638 28.323 40.9475 29.4169 42.0415C30.5109 43.1354 31.9946 43.75 33.5417 43.75V49.5833C32.273 49.5833 31.1923 48.774 30.7898 47.6394C30.7301 47.4538 30.6338 47.282 30.5065 47.1342C30.3793 46.9865 30.2237 46.8658 30.0489 46.7792C29.8742 46.6927 29.6839 46.642 29.4893 46.6303C29.2946 46.6186 29.0996 46.646 28.9158 46.711C28.7319 46.7759 28.5629 46.8771 28.4189 47.0085C28.2748 47.1399 28.1585 47.2988 28.077 47.476C27.9954 47.6531 27.9502 47.8447 27.944 48.0396C27.9378 48.2345 27.9707 48.4287 28.0409 48.6106C28.4431 49.7481 29.1881 50.7329 30.1733 51.4294C31.1584 52.126 32.3352 52.5 33.5417 52.5V53.9583H36.4584V52.5C38.0055 52.5 39.4892 51.8854 40.5832 50.7915C41.6771 49.6975 42.2917 48.2138 42.2917 46.6667C42.2917 45.1196 41.6771 43.6358 40.5832 42.5419C39.4892 41.4479 38.0055 40.8333 36.4584 40.8333V35C37.0616 34.9998 37.65 35.1867 38.1425 35.5349C38.6351 35.883 39.0076 36.3753 39.2088 36.944C39.3376 37.3087 39.606 37.6073 39.955 37.7741C40.1278 37.8567 40.3151 37.9045 40.5064 37.9147C40.6976 37.9249 40.889 37.8973 41.0696 37.8335C41.2502 37.7698 41.4165 37.671 41.5589 37.543C41.7014 37.415 41.8172 37.2602 41.8998 37.0874C41.9824 36.9146 42.0302 36.7272 42.0404 36.5359C42.0506 36.3447 42.023 36.1533 41.9592 35.9727ZM33.5417 35C32.7682 35 32.0263 35.3073 31.4793 35.8543C30.9323 36.4013 30.625 37.1431 30.625 37.9167C30.625 38.6902 30.9323 39.4321 31.4793 39.9791C32.0263 40.526 32.7682 40.8333 33.5417 40.8333V35ZM36.4584 49.5833C37.2319 49.5833 37.9738 49.276 38.5208 48.7291C39.0677 48.1821 39.375 47.4402 39.375 46.6667C39.375 45.8931 39.0677 45.1513 38.5208 44.6043C37.9738 44.0573 37.2319 43.75 36.4584 43.75V49.5833Z" fill="url(#paint0_linear_67_284)"/>
<path fill-rule="evenodd" clip-rule="evenodd" d="M19.1815 12.5723C22.7602 10.8208 28.6315 8.75 35.0569 8.75C41.3481 8.75 47.0648 10.7348 50.6246 12.4629L50.8258 12.5606C51.8992 13.0915 52.7654 13.5931 53.375 14L47.9879 21.875C60.4071 34.5713 70 61.2456 35.0569 61.2456C0.113761 61.2456 9.44855 35.0554 21.9756 21.875L16.6236 14C17.0363 13.7302 17.5598 13.4167 18.184 13.0842C18.4931 12.9179 18.8256 12.7458 19.1815 12.5723ZM44.5258 21.77L48.8381 15.4656C44.8277 15.7544 40.0561 16.6965 35.4623 18.0265C32.1811 18.9744 28.5352 18.83 25.1592 18.2073C24.3084 18.0496 23.4635 17.8618 22.6261 17.6444L25.4261 21.7671C31.4271 23.9035 38.5233 23.9035 44.5258 21.77ZM23.7417 24.2521C30.7636 26.9646 39.2029 26.9646 46.2248 24.2492C49.1559 27.3389 51.6078 30.8501 53.499 34.666C55.4706 38.6881 56.544 42.7088 56.369 46.1738C56.1998 49.5177 54.8844 52.3746 51.8802 54.4979C48.7492 56.7102 43.4831 58.329 35.0554 58.329C26.619 58.329 21.3281 56.7379 18.1679 54.5504C15.1419 52.4533 13.8133 49.6358 13.6252 46.3371C13.4283 42.91 14.4783 38.9098 16.4427 34.86C18.3167 30.9983 20.9315 27.281 23.7417 24.2521ZM22.0646 14.4608C23.2313 14.8079 24.4504 15.1098 25.6871 15.3387C28.8225 15.9162 31.9667 16.0008 34.65 15.2235C37.777 14.3126 40.9574 13.5961 44.1729 13.0783C41.4896 12.2704 38.3513 11.6667 35.0554 11.6667C30.0315 11.6667 25.3458 13.0681 22.0646 14.4608Z" fill="url(#paint1_linear_67_284)"/>
<defs>
<linearGradient id="paint0_linear_67_284" x1="27.7084" y1="46.0952" x2="61.4638" y2="28.816" gradientUnits="userSpaceOnUse">
<stop stop-color="#23A7DC"/>
<stop offset="1" stop-color="#0F7193"/>
</linearGradient>
<linearGradient id="paint1_linear_67_284" x1="10.6869" y1="43.5551" x2="100.839" y2="-24.8289" gradientUnits="userSpaceOnUse">
<stop stop-color="#23A7DC"/>
<stop offset="1" stop-color="#0F7193"/>
</linearGradient>
</defs>
</svg>
