<svg width="99" height="184" viewBox="0 0 99 184" fill="none" xmlns="http://www.w3.org/2000/svg">
<rect x="26" y="0.89502" width="67.4667" height="70.2475" rx="10" fill="#F9F9FF"/>
<path d="M33.9082 13.3442L55.7216 22.1721V49.681L33.9082 40.6822V13.3442Z" fill="url(#paint0_linear_67_301)"/>
<path d="M61.2461 13.3442L83.0595 22.1721V49.681L61.2461 40.6822V13.3442Z" fill="url(#paint1_linear_67_301)"/>
<g filter="url(#filter0_ddddd_67_301)">
<path d="M60.2525 14.3245C60.4902 14.3716 60.7019 14.4963 60.8529 14.6783C61.0039 14.8602 61.0854 15.0886 61.084 15.3261L61.017 28.1828L67.8851 25.9484C68.0869 25.8827 68.3022 25.8753 68.5043 25.9271C68.7065 25.979 68.8867 26.0878 69.0227 26.2402C69.1588 26.3926 69.2446 26.5818 69.2697 26.7846C69.2948 26.9874 69.258 27.1948 69.164 27.3813L57.9388 49.6759C57.8302 49.8917 57.6508 50.0678 57.4299 50.1753C57.209 50.2829 56.9595 50.3157 56.7222 50.2682C56.4848 50.2208 56.2736 50.096 56.1229 49.9142C55.9722 49.7323 55.891 49.5042 55.8924 49.2669L55.9588 36.4082L49.0907 38.6426C48.8889 38.7084 48.6736 38.7158 48.4715 38.6639C48.2693 38.6121 48.0891 38.5032 47.9531 38.3509C47.817 38.1985 47.7312 38.0092 47.7061 37.8064C47.681 37.6037 47.7178 37.3962 47.8118 37.2098L59.037 14.9152C59.1455 14.6996 59.3245 14.5237 59.5451 14.4161C59.7657 14.3085 60.0148 14.2756 60.2519 14.3226L60.2525 14.3245Z" fill="white"/>
</g>
<path fill-rule="evenodd" clip-rule="evenodd" d="M38.8063 45.0107L38.8063 14.1416L38.9202 14.1416L38.9202 45.0107L38.8063 45.0107Z" fill="white" fill-opacity="0.8"/>
<path fill-rule="evenodd" clip-rule="evenodd" d="M44.5016 46.6055L44.5016 15.7363L44.6155 15.7363L44.6155 46.6055L44.5016 46.6055Z" fill="white" fill-opacity="0.8"/>
<path fill-rule="evenodd" clip-rule="evenodd" d="M50.1971 48.2002L50.1971 17.3311L50.311 17.3311L50.311 48.2002L50.1971 48.2002Z" fill="white" fill-opacity="0.8"/>
<path fill-rule="evenodd" clip-rule="evenodd" d="M59.4235 30.6582L32.0856 20.0647L32.1267 19.9585L59.4647 30.552L59.4235 30.6582Z" fill="white" fill-opacity="0.8"/>
<path fill-rule="evenodd" clip-rule="evenodd" d="M59.4235 37.4926L32.0856 26.8992L32.1267 26.793L59.4647 37.3864L59.4235 37.4926Z" fill="white" fill-opacity="0.8"/>
<path fill-rule="evenodd" clip-rule="evenodd" d="M59.4235 44.3271L32.0856 33.7337L32.1267 33.6274L59.4647 44.2209L59.4235 44.3271Z" fill="white" fill-opacity="0.8"/>
<g filter="url(#filter1_b_67_301)">
<path d="M39.2617 22.6277C39.2617 22.8479 39.0832 23.0264 38.863 23.0264C38.6429 23.0264 38.4644 22.8479 38.4644 22.6277C38.4644 22.4075 38.6429 22.229 38.863 22.229C39.0832 22.229 39.2617 22.4075 39.2617 22.6277Z" fill="white" fill-opacity="0.8"/>
</g>
<g filter="url(#filter2_b_67_301)">
<path d="M50.6526 27.0701C50.6526 27.2902 50.4741 27.4687 50.2539 27.4687C50.0337 27.4687 49.8552 27.2902 49.8552 27.0701C49.8552 26.8499 50.0337 26.6714 50.2539 26.6714C50.4741 26.6714 50.6526 26.8499 50.6526 27.0701Z" fill="white" fill-opacity="0.8"/>
</g>
<g filter="url(#filter3_b_67_301)">
<path d="M50.6526 40.739C50.6526 40.9592 50.4741 41.1377 50.2539 41.1377C50.0337 41.1377 49.8552 40.9592 49.8552 40.739C49.8552 40.5188 50.0337 40.3403 50.2539 40.3403C50.4741 40.3403 50.6526 40.5188 50.6526 40.739Z" fill="white" fill-opacity="0.8"/>
</g>
<g filter="url(#filter4_b_67_301)">
<path d="M44.957 38.5749C44.957 38.7951 44.7785 38.9736 44.5583 38.9736C44.3382 38.9736 44.1597 38.7951 44.1597 38.5749C44.1597 38.3548 44.3382 38.1763 44.5583 38.1763C44.7785 38.1763 44.957 38.3548 44.957 38.5749Z" fill="white" fill-opacity="0.8"/>
</g>
<g filter="url(#filter5_b_67_301)">
<path d="M44.957 31.7405C44.957 31.9607 44.7785 32.1392 44.5583 32.1392C44.3382 32.1392 44.1597 31.9607 44.1597 31.7405C44.1597 31.5203 44.3382 31.3418 44.5583 31.3418C44.7785 31.3418 44.957 31.5203 44.957 31.7405Z" fill="white" fill-opacity="0.8"/>
</g>
<g filter="url(#filter6_b_67_301)">
<path d="M44.957 24.7917C44.957 25.0119 44.7785 25.1904 44.5583 25.1904C44.3382 25.1904 44.1597 25.0119 44.1597 24.7917C44.1597 24.5716 44.3382 24.3931 44.5583 24.3931C44.7785 24.3931 44.957 24.5716 44.957 24.7917Z" fill="white" fill-opacity="0.8"/>
</g>
<g filter="url(#filter7_b_67_301)">
<path d="M39.2617 36.2966C39.2617 36.5168 39.0832 36.6953 38.863 36.6953C38.6429 36.6953 38.4644 36.5168 38.4644 36.2966C38.4644 36.0764 38.6429 35.8979 38.863 35.8979C39.0832 35.8979 39.2617 36.0764 39.2617 36.2966Z" fill="white" fill-opacity="0.8"/>
</g>
<g filter="url(#filter8_b_67_301)">
<path d="M39.2617 29.4622C39.2617 29.6823 39.0832 29.8608 38.863 29.8608C38.6429 29.8608 38.4644 29.6823 38.4644 29.4622C38.4644 29.242 38.6429 29.0635 38.863 29.0635C39.0832 29.0635 39.2617 29.242 39.2617 29.4622Z" fill="white" fill-opacity="0.8"/>
</g>
<path fill-rule="evenodd" clip-rule="evenodd" d="M66.2582 45.0107L66.2582 14.1416L66.3721 14.1416L66.3721 45.0107L66.2582 45.0107Z" fill="white" fill-opacity="0.8"/>
<path fill-rule="evenodd" clip-rule="evenodd" d="M71.9537 46.6055L71.9537 15.7363L72.0676 15.7363L72.0676 46.6055L71.9537 46.6055Z" fill="white" fill-opacity="0.8"/>
<path fill-rule="evenodd" clip-rule="evenodd" d="M77.649 48.2002L77.649 17.3311L77.7629 17.3311L77.7629 48.2002L77.649 48.2002Z" fill="white" fill-opacity="0.8"/>
<path fill-rule="evenodd" clip-rule="evenodd" d="M86.8757 30.6582L59.5377 20.0647L59.5789 19.9585L86.9168 30.552L86.8757 30.6582Z" fill="white" fill-opacity="0.8"/>
<path fill-rule="evenodd" clip-rule="evenodd" d="M86.8757 37.4926L59.5377 26.8992L59.5789 26.793L86.9168 37.3864L86.8757 37.4926Z" fill="white" fill-opacity="0.8"/>
<path fill-rule="evenodd" clip-rule="evenodd" d="M86.8757 44.3271L59.5377 33.7337L59.5789 33.6274L86.9168 44.2209L86.8757 44.3271Z" fill="white" fill-opacity="0.8"/>
<g filter="url(#filter9_b_67_301)">
<path d="M66.7139 22.6277C66.7139 22.8479 66.5354 23.0264 66.3152 23.0264C66.095 23.0264 65.9165 22.8479 65.9165 22.6277C65.9165 22.4075 66.095 22.229 66.3152 22.229C66.5354 22.229 66.7139 22.4075 66.7139 22.6277Z" fill="white" fill-opacity="0.8"/>
</g>
<g filter="url(#filter10_b_67_301)">
<path d="M78.1047 27.0701C78.1047 27.2902 77.9262 27.4687 77.7061 27.4687C77.4859 27.4687 77.3074 27.2902 77.3074 27.0701C77.3074 26.8499 77.4859 26.6714 77.7061 26.6714C77.9262 26.6714 78.1047 26.8499 78.1047 27.0701Z" fill="white" fill-opacity="0.8"/>
</g>
<g filter="url(#filter11_b_67_301)">
<path d="M78.1047 40.739C78.1047 40.9592 77.9262 41.1377 77.7061 41.1377C77.4859 41.1377 77.3074 40.9592 77.3074 40.739C77.3074 40.5188 77.4859 40.3403 77.7061 40.3403C77.9262 40.3403 78.1047 40.5188 78.1047 40.739Z" fill="white" fill-opacity="0.8"/>
</g>
<g filter="url(#filter12_b_67_301)">
<path d="M72.4094 38.5749C72.4094 38.7951 72.2309 38.9736 72.0107 38.9736C71.7906 38.9736 71.6121 38.7951 71.6121 38.5749C71.6121 38.3548 71.7906 38.1763 72.0107 38.1763C72.2309 38.1763 72.4094 38.3548 72.4094 38.5749Z" fill="white" fill-opacity="0.8"/>
</g>
<g filter="url(#filter13_b_67_301)">
<path d="M72.4094 31.7405C72.4094 31.9607 72.2309 32.1392 72.0107 32.1392C71.7906 32.1392 71.6121 31.9607 71.6121 31.7405C71.6121 31.5203 71.7906 31.3418 72.0107 31.3418C72.2309 31.3418 72.4094 31.5203 72.4094 31.7405Z" fill="white" fill-opacity="0.8"/>
</g>
<g filter="url(#filter14_b_67_301)">
<path d="M72.4094 24.7917C72.4094 25.0119 72.2309 25.1904 72.0107 25.1904C71.7906 25.1904 71.6121 25.0119 71.6121 24.7917C71.6121 24.5716 71.7906 24.3931 72.0107 24.3931C72.2309 24.3931 72.4094 24.5716 72.4094 24.7917Z" fill="white" fill-opacity="0.8"/>
</g>
<g filter="url(#filter15_b_67_301)">
<path d="M66.7139 36.2966C66.7139 36.5168 66.5354 36.6953 66.3152 36.6953C66.095 36.6953 65.9165 36.5168 65.9165 36.2966C65.9165 36.0764 66.095 35.8979 66.3152 35.8979C66.5354 35.8979 66.7139 36.0764 66.7139 36.2966Z" fill="white" fill-opacity="0.8"/>
</g>
<g filter="url(#filter16_b_67_301)">
<path d="M66.7139 29.4622C66.7139 29.6823 66.5354 29.8608 66.3152 29.8608C66.095 29.8608 65.9165 29.6823 65.9165 29.4622C65.9165 29.242 66.095 29.0635 66.3152 29.0635C66.5354 29.0635 66.7139 29.242 66.7139 29.4622Z" fill="white" fill-opacity="0.8"/>
</g>
<path d="M59.9357 64.2129C59.5567 64.2129 59.1593 64.1437 58.7438 64.0052C58.3283 63.8666 57.982 63.6334 57.705 63.3053C57.6466 63.2324 57.6211 63.1559 57.6284 63.0757C57.643 62.9882 57.6904 62.9153 57.7706 62.857C57.8435 62.8059 57.92 62.7877 58.0002 62.8023C58.0877 62.8169 58.1569 62.857 58.208 62.9226C58.4194 63.1704 58.6745 63.3454 58.9734 63.4475C59.2796 63.5422 59.6113 63.5896 59.9685 63.5896C60.5809 63.5896 61.0147 63.4803 61.2698 63.2616C61.525 63.0429 61.6526 62.7877 61.6526 62.4961C61.6526 62.2118 61.5141 61.9785 61.237 61.7963C60.9673 61.6067 60.5481 61.4718 59.9795 61.3916C59.2505 61.2896 58.711 61.0928 58.3611 60.8011C58.0111 60.5095 57.8362 60.1706 57.8362 59.7842C57.8362 59.4197 57.9273 59.1135 58.1096 58.8656C58.2918 58.6105 58.5397 58.4209 58.8532 58.297C59.1739 58.1658 59.5384 58.1002 59.9467 58.1002C60.4424 58.1002 60.8616 58.1913 61.2042 58.3735C61.5469 58.5485 61.8239 58.7854 62.0353 59.0843C62.0936 59.1572 62.1118 59.2374 62.09 59.3249C62.0754 59.4051 62.0207 59.4707 61.9259 59.5217C61.853 59.5582 61.7765 59.5691 61.6963 59.5545C61.6161 59.54 61.5469 59.4962 61.4885 59.4233C61.3063 59.19 61.0839 59.0151 60.8215 58.8984C60.5663 58.7745 60.2674 58.7125 59.9248 58.7125C59.4655 58.7125 59.1083 58.8109 58.8532 59.0078C58.598 59.2046 58.4704 59.4415 58.4704 59.7186C58.4704 59.9081 58.5215 60.0758 58.6235 60.2216C58.7329 60.3601 58.9078 60.4804 59.1484 60.5824C59.389 60.6772 59.7097 60.7538 60.1107 60.8121C60.6575 60.885 61.0876 61.0089 61.4011 61.1839C61.7218 61.3588 61.9478 61.563 62.079 61.7963C62.2175 62.0222 62.2868 62.2665 62.2868 62.5289C62.2868 62.8715 62.1775 63.1704 61.9587 63.4256C61.74 63.6807 61.4521 63.8776 61.0949 64.0161C60.7377 64.1473 60.3513 64.2129 59.9357 64.2129Z" fill="#404040"/>
<path d="M66.4983 64.2129C65.9151 64.2129 65.3902 64.0817 64.9236 63.8193C64.4644 63.5495 64.0999 63.185 63.8301 62.7257C63.5677 62.2592 63.4365 61.7379 63.4365 61.162C63.4365 60.5788 63.5677 60.0576 63.8301 59.5983C64.0999 59.1317 64.4644 58.7672 64.9236 58.5048C65.3902 58.235 65.9151 58.1002 66.4983 58.1002C67.0815 58.1002 67.6028 58.235 68.062 58.5048C68.5213 58.7672 68.8822 59.1317 69.1446 59.5983C69.4144 60.0576 69.5492 60.5788 69.5492 61.162C69.5492 61.7379 69.4144 62.2592 69.1446 62.7257C68.8822 63.185 68.5213 63.5495 68.062 63.8193C67.6028 64.0817 67.0815 64.2129 66.4983 64.2129ZM66.4983 63.6006C66.9576 63.6006 67.3658 63.4949 67.723 63.2834C68.0876 63.0647 68.3719 62.7731 68.576 62.4086C68.7874 62.0368 68.8931 61.6176 68.8931 61.1511C68.8931 60.6918 68.7874 60.2799 68.576 59.9154C68.3719 59.5436 68.0876 59.252 67.723 59.0406C67.3658 58.8219 66.9576 58.7125 66.4983 58.7125C66.0463 58.7125 65.6381 58.8219 65.2736 59.0406C64.9091 59.252 64.6211 59.5436 64.4097 59.9154C64.1983 60.2799 64.0926 60.6954 64.0926 61.162C64.0926 61.6213 64.1983 62.0368 64.4097 62.4086C64.6211 62.7731 64.9091 63.0647 65.2736 63.2834C65.6381 63.4949 66.0463 63.6006 66.4983 63.6006Z" fill="#404040"/>
<path d="M72.3892 64.1473C72.1122 64.1473 71.8643 64.0708 71.6456 63.9177C71.4342 63.7646 71.2665 63.5532 71.1426 63.2834C71.026 63.0137 70.9676 62.7002 70.9676 62.343V55.935C70.9676 55.8329 70.9968 55.7527 71.0551 55.6944C71.1207 55.6361 71.2009 55.6069 71.2957 55.6069C71.3978 55.6069 71.4779 55.6361 71.5363 55.6944C71.5946 55.7527 71.6237 55.8329 71.6237 55.935V62.343C71.6237 62.6784 71.693 62.9554 71.8315 63.1741C71.9773 63.3855 72.1632 63.4912 72.3892 63.4912H72.6626C72.7428 63.4912 72.8084 63.5204 72.8594 63.5787C72.9105 63.637 72.936 63.7172 72.936 63.8193C72.936 63.914 72.9068 63.9942 72.8485 64.0598C72.7902 64.1182 72.71 64.1473 72.6079 64.1473H72.3892Z" fill="#404040"/>
<path d="M76.5365 64.2129C75.9533 64.2129 75.4284 64.0817 74.9618 63.8193C74.5025 63.5495 74.138 63.185 73.8683 62.7257C73.6058 62.2592 73.4746 61.7379 73.4746 61.162C73.4746 60.5788 73.6058 60.0576 73.8683 59.5983C74.138 59.1317 74.5025 58.7672 74.9618 58.5048C75.4284 58.235 75.9533 58.1002 76.5365 58.1002C77.1197 58.1002 77.6409 58.235 78.1002 58.5048C78.5595 58.7672 78.9203 59.1317 79.1828 59.5983C79.4525 60.0576 79.5874 60.5788 79.5874 61.162L79.314 61.5994C79.314 62.0951 79.1901 62.5398 78.9422 62.9335C78.7016 63.3272 78.3736 63.6407 77.958 63.8739C77.5425 64.0999 77.0686 64.2129 76.5365 64.2129ZM76.5365 63.6006C76.9957 63.6006 77.404 63.4949 77.7612 63.2834C78.1257 63.0647 78.41 62.7731 78.6142 62.4086C78.8256 62.0368 78.9313 61.6213 78.9313 61.162C78.9313 60.6954 78.8256 60.2799 78.6142 59.9154C78.41 59.5436 78.1257 59.252 77.7612 59.0406C77.404 58.8219 76.9957 58.7125 76.5365 58.7125C76.0845 58.7125 75.6762 58.8219 75.3117 59.0406C74.9472 59.252 74.6593 59.5436 74.4478 59.9154C74.2364 60.2799 74.1307 60.6954 74.1307 61.162C74.1307 61.6213 74.2364 62.0368 74.4478 62.4086C74.6593 62.7731 74.9472 63.0647 75.3117 63.2834C75.6762 63.4949 76.0845 63.6006 76.5365 63.6006ZM79.2593 64.1473C79.1646 64.1473 79.0844 64.1182 79.0188 64.0598C78.9604 63.9942 78.9313 63.914 78.9313 63.8193V61.8181L79.139 61.162H79.5874V63.8193C79.5874 63.914 79.5582 63.9942 79.4999 64.0598C79.4416 64.1182 79.3614 64.1473 79.2593 64.1473Z" fill="#404040"/>
<path d="M81.4432 60.495C81.4869 60.0284 81.6145 59.6165 81.8259 59.2593C82.0374 58.8948 82.3107 58.6105 82.6461 58.4063C82.9814 58.2022 83.3532 58.1002 83.7615 58.1002C84.0385 58.1002 84.2536 58.133 84.4066 58.1986C84.5597 58.2642 84.6181 58.3808 84.5816 58.5485C84.5597 58.6579 84.5087 58.7235 84.4285 58.7453C84.3483 58.7672 84.2499 58.7708 84.1333 58.7563C84.0239 58.7344 83.9 58.7235 83.7615 58.7235C83.397 58.7235 83.0725 58.8 82.7882 58.9531C82.5039 59.1062 82.2816 59.3176 82.1212 59.5873C81.9608 59.8498 81.8806 60.1523 81.8806 60.495H81.4432ZM81.5526 64.1473C81.4578 64.1473 81.3776 64.1182 81.312 64.0598C81.2537 63.9942 81.2245 63.914 81.2245 63.8193V58.4938C81.2245 58.3918 81.2537 58.3116 81.312 58.2532C81.3776 58.1949 81.4578 58.1658 81.5526 58.1658C81.6546 58.1658 81.7348 58.1949 81.7931 58.2532C81.8515 58.3116 81.8806 58.3918 81.8806 58.4938V63.8193C81.8806 63.914 81.8515 63.9942 81.7931 64.0598C81.7348 64.1182 81.6546 64.1473 81.5526 64.1473Z" fill="#404040"/>
<path d="M84.7193 64.3223C84.5589 64.3223 84.4241 64.2676 84.3147 64.1583C84.2127 64.0562 84.1616 63.925 84.1616 63.7646C84.1616 63.6042 84.2163 63.473 84.3257 63.3709C84.435 63.2689 84.5662 63.2178 84.7193 63.2178C84.8724 63.2178 85 63.2725 85.1021 63.3819C85.2114 63.4839 85.2661 63.6115 85.2661 63.7646C85.2661 63.9177 85.2114 64.0489 85.1021 64.1583C85 64.2676 84.8724 64.3223 84.7193 64.3223Z" fill="#404040"/>
<path d="M34.0011 64.1472C33.8914 64.1472 33.801 64.1117 33.73 64.0407C33.659 63.9697 33.6235 63.8794 33.6235 63.7696V56.9631C33.6235 56.8533 33.659 56.763 33.73 56.692C33.801 56.621 33.8914 56.5854 34.0011 56.5854H35.7439C36.299 56.5854 36.8058 56.679 37.264 56.8662C37.7288 57.047 38.129 57.3084 38.4646 57.6505C38.8003 57.9861 39.0585 58.3831 39.2392 58.8414C39.4264 59.2997 39.52 59.8064 39.52 60.3615C39.52 60.9166 39.4264 61.4265 39.2392 61.8913C39.0585 62.3496 38.8003 62.7498 38.4646 63.0919C38.129 63.4275 37.7288 63.689 37.264 63.8761C36.8058 64.0569 36.299 64.1472 35.7439 64.1472H34.0011ZM34.3787 63.4695H35.7439C36.3378 63.4695 36.8606 63.3372 37.3125 63.0725C37.7707 62.8014 38.129 62.4335 38.3872 61.9688C38.6454 61.4976 38.7745 60.9618 38.7745 60.3615C38.7745 59.7612 38.6454 59.2287 38.3872 58.7639C38.129 58.2927 37.7707 57.9248 37.3125 57.6602C36.8606 57.3955 36.3378 57.2632 35.7439 57.2632H34.3787V63.4695Z" fill="#0C2054"/>
<path d="M40.4689 64.1472C40.3204 64.1472 40.2139 64.0859 40.1493 63.9633C40.0848 63.8406 40.0783 63.7212 40.13 63.605L42.9765 56.8469C43.0475 56.6726 43.1702 56.5854 43.3445 56.5854C43.5123 56.5854 43.6317 56.6726 43.7027 56.8469L46.559 63.6147C46.617 63.7374 46.6074 63.8568 46.5299 63.973C46.4589 64.0892 46.3556 64.1472 46.2201 64.1472C46.1426 64.1472 46.0716 64.1279 46.0071 64.0892C45.949 64.0504 45.9006 63.9923 45.8618 63.9149L43.1992 57.4568H43.4994L40.8174 63.9149C40.7851 63.9923 40.7367 64.0504 40.6722 64.0892C40.6141 64.1279 40.5463 64.1472 40.4689 64.1472ZM41.1079 62.3464L41.3983 61.6977H45.3293L45.6198 62.3464H41.1079Z" fill="#0C2054"/>
<path d="M48.0706 64.1472C47.9609 64.1472 47.8705 64.1117 47.7995 64.0407C47.7285 63.9697 47.693 63.8794 47.693 63.7696V56.9631C47.693 56.8533 47.7285 56.763 47.7995 56.692C47.8705 56.621 47.9609 56.5854 48.0706 56.5854C48.1868 56.5854 48.2836 56.6306 48.3611 56.721L52.9891 62.8014V56.9631C52.9891 56.8533 53.0246 56.763 53.0956 56.692C53.1667 56.621 53.257 56.5854 53.3668 56.5854C53.47 56.5854 53.5572 56.621 53.6282 56.692C53.7056 56.763 53.7444 56.8533 53.7444 56.9631V63.7696C53.7444 63.8794 53.7056 63.9697 53.6282 64.0407C53.5572 64.1117 53.47 64.1472 53.3668 64.1472C53.3151 64.1472 53.2635 64.1376 53.2118 64.1182C53.1602 64.0988 53.1182 64.0666 53.086 64.0214L48.4482 57.941V63.7696C48.4482 63.8794 48.4095 63.9697 48.332 64.0407C48.261 64.1117 48.1739 64.1472 48.0706 64.1472Z" fill="#0C2054"/>
<path fill-rule="evenodd" clip-rule="evenodd" d="M38.6265 63.252L38.6258 63.2528C38.2672 63.6113 37.8408 63.8893 37.3492 64.0873L37.3484 64.0876L37.3477 64.0879C36.8596 64.2803 36.3241 64.3749 35.744 64.3749H34.0012C33.8372 64.3749 33.6869 64.3195 33.569 64.2016C33.4511 64.0837 33.3958 63.9334 33.3958 63.7694V56.9628C33.3958 56.7989 33.4511 56.6486 33.569 56.5307C33.6869 56.4128 33.8372 56.3574 34.0012 56.3574H35.744C36.3243 56.3574 36.8601 56.4552 37.3484 56.6544C37.841 56.8462 38.2679 57.1247 38.6265 57.49C38.9844 57.848 39.2591 58.271 39.4507 58.7563C39.65 59.2447 39.7478 59.7807 39.7478 60.3613C39.7478 60.9421 39.6499 61.4811 39.4509 61.9754C39.2593 62.461 38.9847 62.8869 38.6273 63.2512L38.6265 63.252ZM39.2392 61.8911C39.4264 61.4263 39.52 60.9164 39.52 60.3613C39.52 59.8062 39.4264 59.2995 39.2392 58.8412C39.0585 58.3829 38.8003 57.9859 38.4647 57.6503C38.129 57.3082 37.7288 57.0468 37.2641 56.866C36.8058 56.6788 36.2991 56.5852 35.744 56.5852H34.0012C33.8914 56.5852 33.8011 56.6207 33.7301 56.6917C33.6591 56.7627 33.6236 56.8531 33.6236 56.9628V63.7694C33.6236 63.8792 33.6591 63.9695 33.7301 64.0405C33.8011 64.1115 33.8914 64.147 34.0012 64.147H35.744C36.2991 64.147 36.8058 64.0567 37.2641 63.8759C37.7288 63.6887 38.129 63.4273 38.4647 63.0917C38.8003 62.7496 39.0585 62.3494 39.2392 61.8911ZM38.1881 58.8744L38.1874 58.8732C37.9489 58.438 37.6202 58.1007 37.1986 57.8572L37.1973 57.8565C36.7849 57.615 36.3029 57.4908 35.744 57.4908H34.6066V63.2415H35.744C36.3027 63.2415 36.7846 63.1174 37.1969 62.876C37.62 62.6256 37.9493 62.2874 38.1877 61.8585C38.4253 61.4248 38.5467 60.9277 38.5467 60.3613C38.5467 59.7946 38.4251 59.3011 38.1881 58.8744ZM38.3872 61.9685C38.129 62.4333 37.7708 62.8012 37.3125 63.0723C36.8607 63.337 36.3378 63.4693 35.744 63.4693H34.3788V57.263H35.744C36.3378 57.263 36.8607 57.3953 37.3125 57.66C37.7708 57.9246 38.129 58.2925 38.3872 58.7637C38.6454 59.2285 38.7745 59.761 38.7745 60.3613C38.7745 60.9616 38.6454 61.4973 38.3872 61.9685ZM40.8174 63.9147C40.7852 63.9921 40.7368 64.0502 40.6722 64.0889C40.6141 64.1277 40.5463 64.147 40.4689 64.147C40.3204 64.147 40.2139 64.0857 40.1494 63.9631C40.0848 63.8404 40.0784 63.721 40.13 63.6048L42.9766 56.8467C43.0476 56.6724 43.1702 56.5852 43.3445 56.5852C43.5123 56.5852 43.6317 56.6724 43.7027 56.8467L46.559 63.6145C46.6171 63.7372 46.6074 63.8566 46.5299 63.9728C46.4589 64.0889 46.3557 64.147 46.2201 64.147C46.1427 64.147 46.0717 64.1277 46.0071 64.0889C45.949 64.0502 45.9006 63.9921 45.8619 63.9147L45.2152 62.3461H41.4688L40.8174 63.9147ZM41.7382 61.6974H44.9477L43.3488 57.8193L41.7382 61.6974ZM42.0795 61.4696H44.6074L43.348 58.4151L42.0795 61.4696ZM41.6209 62.574L41.0277 64.0023C40.9797 64.1176 40.9027 64.2149 40.7941 64.2815C40.6956 64.3458 40.5844 64.3749 40.4689 64.3749C40.363 64.3749 40.2584 64.3528 40.164 64.2985C40.0688 64.2436 39.9975 64.1636 39.9478 64.0692C39.8545 63.8919 39.8392 63.7001 39.9208 63.5146L42.7662 56.7593C42.8139 56.6427 42.8858 56.5388 42.9899 56.4649C43.0956 56.3898 43.2178 56.3574 43.3445 56.3574C43.4699 56.3574 43.5904 56.3908 43.6942 56.4666C43.7959 56.5407 43.866 56.6441 43.9131 56.7593L46.7672 63.5219C46.8575 63.7165 46.839 63.9174 46.722 64.0954C46.6097 64.2765 46.434 64.3749 46.2201 64.3749C46.1026 64.3749 45.9909 64.3449 45.8899 64.2843L45.8852 64.2815L45.8807 64.2785C45.7826 64.2131 45.7103 64.121 45.6581 64.0165L45.6544 64.0091L45.0627 62.574H41.6209ZM48.5384 56.5775L52.7614 62.1258V56.9628C52.7614 56.7989 52.8167 56.6486 52.9346 56.5307C53.0525 56.4128 53.2028 56.3574 53.3668 56.3574C53.5269 56.3574 53.6713 56.4144 53.7858 56.5272C53.9102 56.643 53.9722 56.7941 53.9722 56.9628V63.7694C53.9722 63.9382 53.9102 64.0893 53.7858 64.2051C53.6713 64.3179 53.5269 64.3749 53.3668 64.3749C53.286 64.3749 53.2073 64.3596 53.1319 64.3313C53.0388 64.2964 52.9611 64.237 52.903 64.1569L48.676 58.6151V63.7694C48.676 63.9382 48.614 64.0893 48.4896 64.2051C48.3751 64.3179 48.2308 64.3749 48.0706 64.3749C47.9066 64.3749 47.7563 64.3195 47.6384 64.2016C47.5205 64.0837 47.4652 63.9334 47.4652 63.7694V56.9628C47.4652 56.7989 47.5205 56.6486 47.6384 56.5307C47.7563 56.4128 47.9066 56.3574 48.0706 56.3574C48.2552 56.3574 48.4145 56.4331 48.5341 56.5725L48.5384 56.5775ZM48.332 64.0405C48.4095 63.9695 48.4482 63.8792 48.4482 63.7694V57.9407L53.086 64.0212C53.1183 64.0664 53.1602 64.0986 53.2119 64.118C53.2635 64.1374 53.3151 64.147 53.3668 64.147C53.4701 64.147 53.5572 64.1115 53.6282 64.0405C53.7057 63.9695 53.7444 63.8792 53.7444 63.7694V56.9628C53.7444 56.8531 53.7057 56.7627 53.6282 56.6917C53.5572 56.6207 53.4701 56.5852 53.3668 56.5852C53.2571 56.5852 53.1667 56.6207 53.0957 56.6917C53.0247 56.7627 52.9892 56.8531 52.9892 56.9628V62.8012L48.3611 56.7208C48.2836 56.6304 48.1868 56.5852 48.0706 56.5852C47.9609 56.5852 47.8705 56.6207 47.7995 56.6917C47.7285 56.7627 47.693 56.8531 47.693 56.9628V63.7694C47.693 63.8792 47.7285 63.9695 47.7995 64.0405C47.8705 64.1115 47.9609 64.147 48.0706 64.147C48.1739 64.147 48.261 64.1115 48.332 64.0405Z" fill="#0C2054"/>
<defs>
<filter id="filter0_ddddd_67_301" x="0.698486" y="7.30176" width="97.5789" height="175.988" filterUnits="userSpaceOnUse" color-interpolation-filters="sRGB">
<feFlood flood-opacity="0" result="BackgroundImageFix"/>
<feColorMatrix in="SourceAlpha" type="matrix" values="0 0 0 0 0 0 0 0 0 0 0 0 0 0 0 0 0 0 127 0" result="hardAlpha"/>
<feOffset/>
<feColorMatrix type="matrix" values="0 0 0 0 0 0 0 0 0 0 0 0 0 0 0 0 0 0 0.1 0"/>
<feBlend mode="normal" in2="BackgroundImageFix" result="effect1_dropShadow_67_301"/>
<feColorMatrix in="SourceAlpha" type="matrix" values="0 0 0 0 0 0 0 0 0 0 0 0 0 0 0 0 0 0 127 0" result="hardAlpha"/>
<feOffset dx="-1" dy="6"/>
<feGaussianBlur stdDeviation="6.5"/>
<feColorMatrix type="matrix" values="0 0 0 0 0 0 0 0 0 0 0 0 0 0 0 0 0 0 0.1 0"/>
<feBlend mode="normal" in2="effect1_dropShadow_67_301" result="effect2_dropShadow_67_301"/>
<feColorMatrix in="SourceAlpha" type="matrix" values="0 0 0 0 0 0 0 0 0 0 0 0 0 0 0 0 0 0 127 0" result="hardAlpha"/>
<feOffset dx="-2" dy="24"/>
<feGaussianBlur stdDeviation="12"/>
<feColorMatrix type="matrix" values="0 0 0 0 0 0 0 0 0 0 0 0 0 0 0 0 0 0 0.09 0"/>
<feBlend mode="normal" in2="effect2_dropShadow_67_301" result="effect3_dropShadow_67_301"/>
<feColorMatrix in="SourceAlpha" type="matrix" values="0 0 0 0 0 0 0 0 0 0 0 0 0 0 0 0 0 0 127 0" result="hardAlpha"/>
<feOffset dx="-5" dy="54"/>
<feGaussianBlur stdDeviation="16"/>
<feColorMatrix type="matrix" values="0 0 0 0 0 0 0 0 0 0 0 0 0 0 0 0 0 0 0.05 0"/>
<feBlend mode="normal" in2="effect3_dropShadow_67_301" result="effect4_dropShadow_67_301"/>
<feColorMatrix in="SourceAlpha" type="matrix" values="0 0 0 0 0 0 0 0 0 0 0 0 0 0 0 0 0 0 127 0" result="hardAlpha"/>
<feOffset dx="-9" dy="95"/>
<feGaussianBlur stdDeviation="19"/>
<feColorMatrix type="matrix" values="0 0 0 0 0 0 0 0 0 0 0 0 0 0 0 0 0 0 0.01 0"/>
<feBlend mode="normal" in2="effect4_dropShadow_67_301" result="effect5_dropShadow_67_301"/>
<feBlend mode="normal" in="SourceGraphic" in2="effect5_dropShadow_67_301" result="shape"/>
</filter>
<filter id="filter1_b_67_301" x="15.4644" y="-0.770996" width="46.7974" height="46.7974" filterUnits="userSpaceOnUse" color-interpolation-filters="sRGB">
<feFlood flood-opacity="0" result="BackgroundImageFix"/>
<feGaussianBlur in="BackgroundImageFix" stdDeviation="11.5"/>
<feComposite in2="SourceAlpha" operator="in" result="effect1_backgroundBlur_67_301"/>
<feBlend mode="normal" in="SourceGraphic" in2="effect1_backgroundBlur_67_301" result="shape"/>
</filter>
<filter id="filter2_b_67_301" x="26.8552" y="3.67139" width="46.7974" height="46.7974" filterUnits="userSpaceOnUse" color-interpolation-filters="sRGB">
<feFlood flood-opacity="0" result="BackgroundImageFix"/>
<feGaussianBlur in="BackgroundImageFix" stdDeviation="11.5"/>
<feComposite in2="SourceAlpha" operator="in" result="effect1_backgroundBlur_67_301"/>
<feBlend mode="normal" in="SourceGraphic" in2="effect1_backgroundBlur_67_301" result="shape"/>
</filter>
<filter id="filter3_b_67_301" x="26.8552" y="17.3403" width="46.7974" height="46.7974" filterUnits="userSpaceOnUse" color-interpolation-filters="sRGB">
<feFlood flood-opacity="0" result="BackgroundImageFix"/>
<feGaussianBlur in="BackgroundImageFix" stdDeviation="11.5"/>
<feComposite in2="SourceAlpha" operator="in" result="effect1_backgroundBlur_67_301"/>
<feBlend mode="normal" in="SourceGraphic" in2="effect1_backgroundBlur_67_301" result="shape"/>
</filter>
<filter id="filter4_b_67_301" x="21.1597" y="15.1763" width="46.7974" height="46.7974" filterUnits="userSpaceOnUse" color-interpolation-filters="sRGB">
<feFlood flood-opacity="0" result="BackgroundImageFix"/>
<feGaussianBlur in="BackgroundImageFix" stdDeviation="11.5"/>
<feComposite in2="SourceAlpha" operator="in" result="effect1_backgroundBlur_67_301"/>
<feBlend mode="normal" in="SourceGraphic" in2="effect1_backgroundBlur_67_301" result="shape"/>
</filter>
<filter id="filter5_b_67_301" x="21.1597" y="8.3418" width="46.7974" height="46.7974" filterUnits="userSpaceOnUse" color-interpolation-filters="sRGB">
<feFlood flood-opacity="0" result="BackgroundImageFix"/>
<feGaussianBlur in="BackgroundImageFix" stdDeviation="11.5"/>
<feComposite in2="SourceAlpha" operator="in" result="effect1_backgroundBlur_67_301"/>
<feBlend mode="normal" in="SourceGraphic" in2="effect1_backgroundBlur_67_301" result="shape"/>
</filter>
<filter id="filter6_b_67_301" x="21.1597" y="1.39307" width="46.7974" height="46.7974" filterUnits="userSpaceOnUse" color-interpolation-filters="sRGB">
<feFlood flood-opacity="0" result="BackgroundImageFix"/>
<feGaussianBlur in="BackgroundImageFix" stdDeviation="11.5"/>
<feComposite in2="SourceAlpha" operator="in" result="effect1_backgroundBlur_67_301"/>
<feBlend mode="normal" in="SourceGraphic" in2="effect1_backgroundBlur_67_301" result="shape"/>
</filter>
<filter id="filter7_b_67_301" x="15.4644" y="12.8979" width="46.7974" height="46.7974" filterUnits="userSpaceOnUse" color-interpolation-filters="sRGB">
<feFlood flood-opacity="0" result="BackgroundImageFix"/>
<feGaussianBlur in="BackgroundImageFix" stdDeviation="11.5"/>
<feComposite in2="SourceAlpha" operator="in" result="effect1_backgroundBlur_67_301"/>
<feBlend mode="normal" in="SourceGraphic" in2="effect1_backgroundBlur_67_301" result="shape"/>
</filter>
<filter id="filter8_b_67_301" x="15.4644" y="6.06348" width="46.7974" height="46.7974" filterUnits="userSpaceOnUse" color-interpolation-filters="sRGB">
<feFlood flood-opacity="0" result="BackgroundImageFix"/>
<feGaussianBlur in="BackgroundImageFix" stdDeviation="11.5"/>
<feComposite in2="SourceAlpha" operator="in" result="effect1_backgroundBlur_67_301"/>
<feBlend mode="normal" in="SourceGraphic" in2="effect1_backgroundBlur_67_301" result="shape"/>
</filter>
<filter id="filter9_b_67_301" x="42.9165" y="-0.770996" width="46.7974" height="46.7974" filterUnits="userSpaceOnUse" color-interpolation-filters="sRGB">
<feFlood flood-opacity="0" result="BackgroundImageFix"/>
<feGaussianBlur in="BackgroundImageFix" stdDeviation="11.5"/>
<feComposite in2="SourceAlpha" operator="in" result="effect1_backgroundBlur_67_301"/>
<feBlend mode="normal" in="SourceGraphic" in2="effect1_backgroundBlur_67_301" result="shape"/>
</filter>
<filter id="filter10_b_67_301" x="54.3074" y="3.67139" width="46.7974" height="46.7974" filterUnits="userSpaceOnUse" color-interpolation-filters="sRGB">
<feFlood flood-opacity="0" result="BackgroundImageFix"/>
<feGaussianBlur in="BackgroundImageFix" stdDeviation="11.5"/>
<feComposite in2="SourceAlpha" operator="in" result="effect1_backgroundBlur_67_301"/>
<feBlend mode="normal" in="SourceGraphic" in2="effect1_backgroundBlur_67_301" result="shape"/>
</filter>
<filter id="filter11_b_67_301" x="54.3074" y="17.3403" width="46.7974" height="46.7974" filterUnits="userSpaceOnUse" color-interpolation-filters="sRGB">
<feFlood flood-opacity="0" result="BackgroundImageFix"/>
<feGaussianBlur in="BackgroundImageFix" stdDeviation="11.5"/>
<feComposite in2="SourceAlpha" operator="in" result="effect1_backgroundBlur_67_301"/>
<feBlend mode="normal" in="SourceGraphic" in2="effect1_backgroundBlur_67_301" result="shape"/>
</filter>
<filter id="filter12_b_67_301" x="48.6121" y="15.1763" width="46.7974" height="46.7974" filterUnits="userSpaceOnUse" color-interpolation-filters="sRGB">
<feFlood flood-opacity="0" result="BackgroundImageFix"/>
<feGaussianBlur in="BackgroundImageFix" stdDeviation="11.5"/>
<feComposite in2="SourceAlpha" operator="in" result="effect1_backgroundBlur_67_301"/>
<feBlend mode="normal" in="SourceGraphic" in2="effect1_backgroundBlur_67_301" result="shape"/>
</filter>
<filter id="filter13_b_67_301" x="48.6121" y="8.3418" width="46.7974" height="46.7974" filterUnits="userSpaceOnUse" color-interpolation-filters="sRGB">
<feFlood flood-opacity="0" result="BackgroundImageFix"/>
<feGaussianBlur in="BackgroundImageFix" stdDeviation="11.5"/>
<feComposite in2="SourceAlpha" operator="in" result="effect1_backgroundBlur_67_301"/>
<feBlend mode="normal" in="SourceGraphic" in2="effect1_backgroundBlur_67_301" result="shape"/>
</filter>
<filter id="filter14_b_67_301" x="48.6121" y="1.39307" width="46.7974" height="46.7974" filterUnits="userSpaceOnUse" color-interpolation-filters="sRGB">
<feFlood flood-opacity="0" result="BackgroundImageFix"/>
<feGaussianBlur in="BackgroundImageFix" stdDeviation="11.5"/>
<feComposite in2="SourceAlpha" operator="in" result="effect1_backgroundBlur_67_301"/>
<feBlend mode="normal" in="SourceGraphic" in2="effect1_backgroundBlur_67_301" result="shape"/>
</filter>
<filter id="filter15_b_67_301" x="42.9165" y="12.8979" width="46.7974" height="46.7974" filterUnits="userSpaceOnUse" color-interpolation-filters="sRGB">
<feFlood flood-opacity="0" result="BackgroundImageFix"/>
<feGaussianBlur in="BackgroundImageFix" stdDeviation="11.5"/>
<feComposite in2="SourceAlpha" operator="in" result="effect1_backgroundBlur_67_301"/>
<feBlend mode="normal" in="SourceGraphic" in2="effect1_backgroundBlur_67_301" result="shape"/>
</filter>
<filter id="filter16_b_67_301" x="42.9165" y="6.06348" width="46.7974" height="46.7974" filterUnits="userSpaceOnUse" color-interpolation-filters="sRGB">
<feFlood flood-opacity="0" result="BackgroundImageFix"/>
<feGaussianBlur in="BackgroundImageFix" stdDeviation="11.5"/>
<feComposite in2="SourceAlpha" operator="in" result="effect1_backgroundBlur_67_301"/>
<feBlend mode="normal" in="SourceGraphic" in2="effect1_backgroundBlur_67_301" result="shape"/>
</filter>
<linearGradient id="paint0_linear_67_301" x1="33.9082" y1="35.8411" x2="79.6424" y2="9.35745" gradientUnits="userSpaceOnUse">
<stop stop-color="#0EB9F2"/>
<stop offset="1" stop-color="#0695C6"/>
</linearGradient>
<linearGradient id="paint1_linear_67_301" x1="61.2461" y1="37.4358" x2="112.562" y2="12.2052" gradientUnits="userSpaceOnUse">
<stop stop-color="#23A7DC"/>
<stop offset="1" stop-color="#0F7193"/>
</linearGradient>
</defs>
</svg>
