<svg width="30" height="30" viewBox="0 0 30 30" fill="none" xmlns="http://www.w3.org/2000/svg">
<path d="M7.13212 1.87501C7.09323 1.87465 7.05487 1.88397 7.02049 1.90213C6.98611 1.9203 6.95679 1.94673 6.93516 1.97904C6.91354 2.01136 6.9003 2.04855 6.89663 2.08726C6.89296 2.12597 6.89898 2.16499 6.91415 2.20079L7.04891 2.51896L9.43368 8.0795C9.44989 8.11732 9.47576 8.15021 9.50871 8.17486C9.54166 8.1995 9.58051 8.21504 9.62137 8.21991C9.66223 8.22478 9.70364 8.21881 9.74146 8.2026C9.77928 8.18638 9.81216 8.1605 9.8368 8.12755L14.2384 2.25001C14.2645 2.21519 14.2804 2.17378 14.2843 2.13043C14.2882 2.08708 14.28 2.0435 14.2605 2.00457C14.241 1.96564 14.2111 1.9329 14.1741 1.91001C14.1371 1.88713 14.0944 1.87501 14.0509 1.87501H7.13212ZM24.6054 3.40196L22.1866 9.04864C22.1714 9.08429 22.1653 9.12316 22.1688 9.16176C22.1722 9.20036 22.1853 9.23749 22.2066 9.26983C22.228 9.30217 22.257 9.32871 22.2912 9.34706C22.3253 9.36542 22.3635 9.37502 22.4022 9.37501H28.3202C28.362 9.37503 28.403 9.36387 28.439 9.3427C28.4751 9.32153 28.5048 9.29111 28.5251 9.2546C28.5454 9.21808 28.5556 9.1768 28.5546 9.13503C28.5536 9.09325 28.5415 9.0525 28.5194 9.017L25.0196 3.37091C24.997 3.33456 24.9649 3.30509 24.9267 3.28572C24.8885 3.26634 24.8458 3.25779 24.8031 3.26099C24.7604 3.26419 24.7194 3.27902 24.6845 3.30387C24.6497 3.32872 24.6223 3.36265 24.6054 3.40196ZM4.98055 3.37325L1.48192 9.017C1.45988 9.0525 1.44773 9.09325 1.44673 9.13503C1.44573 9.1768 1.45592 9.21808 1.47623 9.2546C1.49655 9.29111 1.52627 9.32153 1.56229 9.3427C1.59832 9.36387 1.63935 9.37503 1.68114 9.37501H7.59911C7.63789 9.37496 7.67606 9.36529 7.71019 9.34687C7.74432 9.32844 7.77334 9.30183 7.79465 9.26942C7.81596 9.23702 7.8289 9.19983 7.8323 9.1612C7.83571 9.12256 7.82947 9.08369 7.81415 9.04806L5.39071 3.40431C5.37338 3.36597 5.34605 3.333 5.31158 3.30887C5.27712 3.28474 5.23679 3.27033 5.19484 3.26715C5.15289 3.26398 5.11085 3.27215 5.07315 3.29082C5.03544 3.30949 5.00346 3.33796 4.98055 3.37325ZM23.0432 1.87501H15.6927C15.6715 1.87487 15.6506 1.88067 15.6325 1.89175C15.6145 1.90283 15.5998 1.91875 15.5903 1.93771C15.5808 1.95667 15.5768 1.97791 15.5787 1.99904C15.5807 2.02016 15.5885 2.04032 15.6013 2.05724L20.2841 8.29513C20.296 8.31115 20.312 8.32374 20.3304 8.33162C20.3487 8.3395 20.3689 8.3424 20.3887 8.34003C20.4086 8.33765 20.4274 8.33008 20.4434 8.31808C20.4594 8.30608 20.4719 8.29008 20.4798 8.27169L22.9454 2.51954L23.1446 2.03087C23.1516 2.0141 23.1545 1.99587 23.1529 1.97775C23.1514 1.95964 23.1454 1.94217 23.1356 1.92685C23.1258 1.91153 23.1125 1.89881 23.0967 1.88978C23.0809 1.88075 23.0632 1.87568 23.045 1.87501H23.0432ZM14.004 26.25L8.76395 11.3971C8.74857 11.3539 8.72019 11.3166 8.68273 11.2903C8.64527 11.264 8.60057 11.2499 8.55477 11.25H1.50594C1.46511 11.2499 1.42507 11.2612 1.39037 11.2828C1.35568 11.3043 1.32773 11.3352 1.30972 11.3718C1.2917 11.4084 1.28434 11.4494 1.28847 11.49C1.29261 11.5307 1.30807 11.5693 1.33309 11.6016L13.9893 27.9967C14.0322 28.0522 14.0933 28.0907 14.1619 28.1054C14.2304 28.1201 14.3019 28.11 14.3638 28.077C14.4259 28.0442 14.4743 27.9903 14.5 27.9249C14.5257 27.8595 14.5271 27.787 14.5038 27.7207L14.004 26.25ZM28.4942 11.25H21.4454C21.3998 11.25 21.3554 11.2641 21.3183 11.2905C21.2811 11.3168 21.253 11.3541 21.238 11.3971L15.4841 27.6955C15.4599 27.7639 15.4609 27.8387 15.4869 27.9065C15.5129 27.9742 15.5621 28.0305 15.6259 28.0652C15.6896 28.0998 15.7635 28.1105 15.8345 28.0956C15.9054 28.0807 15.9687 28.0411 16.0132 27.9838L28.6671 11.6016C28.6921 11.5693 28.7076 11.5307 28.7117 11.49C28.7158 11.4494 28.7085 11.4084 28.6905 11.3718C28.6724 11.3352 28.6445 11.3043 28.6098 11.2828C28.5751 11.2612 28.5351 11.2499 28.4942 11.25ZM15.1876 4.62481L18.4688 9.00001C18.495 9.03483 18.5109 9.07624 18.5148 9.11959C18.5187 9.16294 18.5104 9.20652 18.491 9.24545C18.4715 9.28438 18.4416 9.31712 18.4046 9.34001C18.3675 9.36289 18.3249 9.37501 18.2813 9.37501H11.7188C11.6753 9.37501 11.6326 9.36289 11.5956 9.34001C11.5586 9.31712 11.5287 9.28438 11.5092 9.24545C11.4897 9.20652 11.4815 9.16294 11.4854 9.11959C11.4893 9.07624 11.5052 9.03483 11.5313 9.00001L14.8126 4.62481C14.8344 4.59571 14.8627 4.57208 14.8953 4.55581C14.9278 4.53954 14.9637 4.53106 15.0001 4.53106C15.0365 4.53106 15.0724 4.53954 15.1049 4.55581C15.1374 4.57208 15.1658 4.59571 15.1876 4.62481ZM14.7774 22.807L10.8106 11.5623C10.7982 11.527 10.7944 11.4892 10.7995 11.4521C10.8047 11.415 10.8187 11.3796 10.8403 11.349C10.862 11.3185 10.8906 11.2935 10.9239 11.2763C10.9571 11.259 10.9941 11.25 11.0315 11.25H18.9686C19.0061 11.25 19.043 11.259 19.0763 11.2763C19.1096 11.2935 19.1382 11.3185 19.1598 11.349C19.1815 11.3796 19.1955 11.415 19.2006 11.4521C19.2058 11.4892 19.202 11.527 19.1895 11.5623L15.221 22.807C15.2048 22.8527 15.1749 22.8922 15.1353 22.9201C15.0958 22.9481 15.0485 22.9631 15.0001 22.9631C14.9517 22.9631 14.9044 22.9481 14.8649 22.9201C14.8253 22.8922 14.7954 22.8527 14.7792 22.807H14.7774Z" fill="white"/>
</svg>
