<svg width="20" height="21" viewBox="0 0 20 21" fill="none" xmlns="http://www.w3.org/2000/svg">
<path d="M14.1667 8.00928H5.83333C4.68274 8.00928 3.75 8.94202 3.75 10.0926V16.3426C3.75 17.4932 4.68274 18.4259 5.83333 18.4259H14.1667C15.3173 18.4259 16.25 17.4932 16.25 16.3426V10.0926C16.25 8.94202 15.3173 8.00928 14.1667 8.00928Z" stroke="#1E285F" stroke-width="1.4" stroke-linecap="round" stroke-linejoin="round"/>
<path d="M10 1.75928C8.89497 1.75928 7.83516 2.19826 7.05376 2.97967C6.27236 3.76107 5.83337 4.82088 5.83337 5.92594V8.00928H14.1667V5.92594C14.1667 4.82088 13.7277 3.76107 12.9463 2.97967C12.1649 2.19826 11.1051 1.75928 10 1.75928V1.75928Z" stroke="#1E285F" stroke-width="1.4" stroke-linecap="round" stroke-linejoin="round"/>
</svg>
