<svg width="30" height="30" viewBox="0 0 30 30" fill="none" xmlns="http://www.w3.org/2000/svg">
<path d="M29 21.75C29 22.32 28.6733 22.815 28.1756 23.07L15.8867 29.73C15.6378 29.91 15.3267 30 15 30C14.6733 30 14.3622 29.91 14.1133 29.73L1.82445 23.07C1.57506 22.9436 1.36636 22.7538 1.22101 22.5211C1.07566 22.2883 0.999224 22.0217 1.00001 21.75V8.25C1.00001 7.68 1.32667 7.185 1.82445 6.93L14.1133 0.27C14.3622 0.0900001 14.6733 0 15 0C15.3267 0 15.6378 0.0900001 15.8867 0.27L28.1756 6.93C28.6733 7.185 29 7.68 29 8.25V21.75ZM4.11112 10.5V19.5H6.05556V16.5H7.22223C8.04735 16.5 8.83867 16.1839 9.42211 15.6213C10.0056 15.0587 10.3333 14.2957 10.3333 13.5C10.3333 12.7044 10.0056 11.9413 9.42211 11.3787C8.83867 10.8161 8.04735 10.5 7.22223 10.5H4.11112ZM6.05556 15V12H6.83334C7.2459 12 7.64156 12.158 7.93328 12.4393C8.225 12.7206 8.38889 13.1022 8.38889 13.5C8.38889 13.8978 8.225 14.2794 7.93328 14.5607C7.64156 14.842 7.2459 15 6.83334 15H6.05556ZM11.5 10.5V19.5H13.4444V16.5H14.6111L15.6378 19.5H17.6911L16.4622 15.915C17.2244 15.375 17.7222 14.49 17.7222 13.5C17.7222 12.7044 17.3944 11.9413 16.811 11.3787C16.2276 10.8161 15.4362 10.5 14.6111 10.5H11.5ZM13.4444 15V12H14.2222C14.6348 12 15.0304 12.158 15.3222 12.4393C15.6139 12.7206 15.7778 13.1022 15.7778 13.5C15.7778 13.8978 15.6139 14.2794 15.3222 14.5607C15.0304 14.842 14.6348 15 14.2222 15H13.4444ZM22.7778 10.5C20.6311 10.5 18.8889 12.51 18.8889 15C18.8889 17.49 20.6311 19.5 22.7778 19.5C24.9244 19.5 26.6667 17.49 26.6667 15C26.6667 12.51 24.9244 10.5 22.7778 10.5ZM22.7778 12.375C23.96 12.375 24.9244 13.545 24.9244 15C24.9244 16.455 23.96 17.625 22.7778 17.625C21.5956 17.625 20.6467 16.455 20.6467 15C20.6467 13.545 21.5956 12.375 22.7778 12.375Z" fill="white"/>
</svg>
