<svg width="85" height="12" viewBox="0 0 85 12" fill="none" xmlns="http://www.w3.org/2000/svg">
<path fill-rule="evenodd" clip-rule="evenodd" d="M79.2223 11.0518C76.5222 11.0518 74.3334 8.81318 74.3334 6.05176C74.3334 3.29033 76.5222 1.05176 79.2223 1.05176C81.9223 1.05176 84.1112 3.29033 84.1112 6.05176C84.1112 8.81318 81.9223 11.0518 79.2223 11.0518Z" stroke="white"/>
<path fill-rule="evenodd" clip-rule="evenodd" d="M79.2223 11.0518C76.5222 11.0518 74.3334 8.81318 74.3334 6.05176C74.3334 3.29033 76.5222 1.05176 79.2223 1.05176C81.9223 1.05176 84.1112 3.29033 84.1112 6.05176C84.1112 8.81318 81.9223 11.0518 79.2223 11.0518Z" stroke="#1B93C1"/>
<path fill-rule="evenodd" clip-rule="evenodd" d="M54.7779 11.0518C52.0779 11.0518 49.889 8.81318 49.889 6.05176C49.889 3.29033 52.0779 1.05176 54.7779 1.05176C57.478 1.05176 59.6668 3.29033 59.6668 6.05176C59.6668 8.81318 57.478 11.0518 54.7779 11.0518Z" stroke="white"/>
<path fill-rule="evenodd" clip-rule="evenodd" d="M54.7779 11.0518C52.0779 11.0518 49.889 8.81318 49.889 6.05176C49.889 3.29033 52.0779 1.05176 54.7779 1.05176C57.478 1.05176 59.6668 3.29033 59.6668 6.05176C59.6668 8.81318 57.478 11.0518 54.7779 11.0518Z" stroke="#1B93C1"/>
<path fill-rule="evenodd" clip-rule="evenodd" d="M5.88889 11.0518C3.18883 11.0518 1 8.81318 1 6.05176C1 3.29033 3.18883 1.05176 5.88889 1.05176C8.58895 1.05176 10.7778 3.29033 10.7778 6.05176C10.7778 8.81318 8.58895 11.0518 5.88889 11.0518Z" stroke="white"/>
<path fill-rule="evenodd" clip-rule="evenodd" d="M5.88889 11.0518C3.18883 11.0518 1 8.81318 1 6.05176C1 3.29033 3.18883 1.05176 5.88889 1.05176C8.58895 1.05176 10.7778 3.29033 10.7778 6.05176C10.7778 8.81318 8.58895 11.0518 5.88889 11.0518Z" stroke="#1B93C1"/>
<path d="M30.3333 11.0518C33.0334 11.0518 35.2222 8.81318 35.2222 6.05176C35.2222 3.29033 33.0334 1.05176 30.3333 1.05176C27.6333 1.05176 25.4445 3.29033 25.4445 6.05176C25.4445 8.81318 27.6333 11.0518 30.3333 11.0518Z" fill="white"/>
<path d="M30.3333 11.0518C33.0334 11.0518 35.2222 8.81318 35.2222 6.05176C35.2222 3.29033 33.0334 1.05176 30.3333 1.05176C27.6333 1.05176 25.4445 3.29033 25.4445 6.05176C25.4445 8.81318 27.6333 11.0518 30.3333 11.0518Z" fill="#1B93C1"/>
</svg>
