<svg width="360" height="515" viewBox="0 0 360 515" fill="none" xmlns="http://www.w3.org/2000/svg">
<path d="M277.738 2.06703C281.023 3.73652 283.618 6.43193 285.1 9.71291C286.581 12.9939 286.861 16.6665 285.894 20.1308L233.706 207.665L342.935 203.379C346.144 203.252 349.319 204.032 352.066 205.624C354.812 207.216 357.011 209.55 358.391 212.338C359.771 215.126 360.272 218.245 359.831 221.31C359.389 224.376 358.026 227.254 355.909 229.59L103.13 508.926C100.684 511.631 97.3629 513.462 93.707 514.121C90.0511 514.781 86.2764 514.229 82.9982 512.556C79.72 510.884 77.1316 508.188 75.6548 504.91C74.1781 501.632 73.9001 497.964 74.8662 494.504L127.053 306.938L17.8246 311.224C14.6147 311.351 11.4404 310.571 8.69361 308.979C5.94679 307.386 3.7477 305.052 2.3678 302.265C0.987902 299.477 0.48761 296.358 0.928678 293.292C1.36975 290.227 2.73286 287.348 4.84977 285.013L257.629 5.67702C260.072 2.97571 263.388 1.1457 267.039 0.484535C270.689 -0.176626 274.46 0.369943 277.737 2.03538L277.738 2.06703Z" fill="white" fill-opacity="0.2"/>
</svg>
